<svg xmlns="http://www.w3.org/2000/svg" viewBox="0 0 50 50">
  <path d="M25 2C15.074219 2 7 10.074219 7 20C7 29.925781 15.074219 38 25 38C34.925781 38 43 29.925781 43 20C43 10.074219 34.925781 2 25 2 Z M 25 5C25.550781 5 26 5.449219 26 6C26 6.550781 25.550781 7 25 7C24.449219 7 24 6.550781 24 6C24 5.449219 24.449219 5 25 5 Z M 22.0625 5.28125C22.601563 5.171875 23.144531 5.519531 23.25 6.0625C23.355469 6.605469 23.011719 7.140625 22.46875 7.25C21.925781 7.355469 21.390625 7.011719 21.28125 6.46875C21.175781 5.925781 21.519531 5.390625 22.0625 5.28125 Z M 27.53125 5.28125C27.660156 5.253906 27.800781 5.253906 27.9375 5.28125C28.480469 5.390625 28.828125 5.925781 28.71875 6.46875C28.609375 7.011719 28.074219 7.359375 27.53125 7.25C26.988281 7.140625 26.640625 6.605469 26.75 6.0625C26.832031 5.65625 27.148438 5.359375 27.53125 5.28125 Z M 19.65625 6.0625C20.046875 6.066406 20.402344 6.304688 20.5625 6.6875C20.773438 7.199219 20.542969 7.789063 20.03125 8C19.519531 8.210938 18.929688 7.949219 18.71875 7.4375C18.507813 6.925781 18.738281 6.367188 19.25 6.15625C19.378906 6.101563 19.527344 6.0625 19.65625 6.0625 Z M 30.34375 6.0625C30.472656 6.0625 30.621094 6.101563 30.75 6.15625C31.261719 6.367188 31.492188 6.925781 31.28125 7.4375C31.070313 7.949219 30.480469 8.210938 29.96875 8C29.457031 7.789063 29.226563 7.199219 29.4375 6.6875C29.597656 6.304688 29.953125 6.066406 30.34375 6.0625 Z M 17.03125 7.375C17.414063 7.300781 17.832031 7.46875 18.0625 7.8125C18.371094 8.273438 18.242188 8.878906 17.78125 9.1875C17.320313 9.496094 16.683594 9.367188 16.375 8.90625C16.066406 8.445313 16.195313 7.839844 16.65625 7.53125C16.769531 7.453125 16.902344 7.398438 17.03125 7.375 Z M 32.59375 7.375C32.84375 7.324219 33.113281 7.378906 33.34375 7.53125C33.804688 7.839844 33.933594 8.445313 33.625 8.90625C33.316406 9.367188 32.679688 9.496094 32.21875 9.1875C31.757813 8.878906 31.628906 8.273438 31.9375 7.8125C32.089844 7.582031 32.34375 7.425781 32.59375 7.375 Z M 15.09375 9.09375C15.351563 9.09375 15.617188 9.210938 15.8125 9.40625C16.203125 9.796875 16.203125 10.421875 15.8125 10.8125C15.421875 11.203125 14.796875 11.203125 14.40625 10.8125C14.015625 10.421875 14.015625 9.796875 14.40625 9.40625C14.601563 9.210938 14.835938 9.09375 15.09375 9.09375 Z M 34.90625 9.09375C35.164063 9.09375 35.398438 9.210938 35.59375 9.40625C35.984375 9.796875 35.984375 10.421875 35.59375 10.8125C35.203125 11.203125 34.578125 11.203125 34.1875 10.8125C33.796875 10.421875 33.796875 9.796875 34.1875 9.40625C34.382813 9.210938 34.648438 9.09375 34.90625 9.09375 Z M 13.15625 11.25C13.40625 11.199219 13.675781 11.222656 13.90625 11.375C14.367188 11.683594 14.496094 12.320313 14.1875 12.78125C13.878906 13.242188 13.273438 13.371094 12.8125 13.0625C12.351563 12.753906 12.222656 12.117188 12.53125 11.65625C12.683594 11.425781 12.90625 11.300781 13.15625 11.25 Z M 36.4375 11.25C36.820313 11.175781 37.238281 11.3125 37.46875 11.65625C37.777344 12.117188 37.648438 12.753906 37.1875 13.0625C36.726563 13.371094 36.121094 13.242188 35.8125 12.78125C35.503906 12.320313 35.632813 11.714844 36.09375 11.40625C36.207031 11.328125 36.308594 11.273438 36.4375 11.25 Z M 24.65625 12.6875L26.53125 12.6875L26.53125 26.6875L24.03125 26.6875L24.03125 16.8125L21.21875 16.8125L21.21875 15.03125C23.511719 14.882813 24.578125 13.113281 24.65625 12.6875 Z M 12.0625 13.65625C12.191406 13.65625 12.308594 13.664063 12.4375 13.71875C12.949219 13.929688 13.210938 14.519531 13 15.03125C12.789063 15.542969 12.199219 15.773438 11.6875 15.5625C11.175781 15.351563 10.945313 14.761719 11.15625 14.25C11.316406 13.867188 11.671875 13.660156 12.0625 13.65625 Z M 37.9375 13.65625C38.328125 13.660156 38.683594 13.867188 38.84375 14.25C39.054688 14.761719 38.824219 15.351563 38.3125 15.5625C37.800781 15.773438 37.210938 15.542969 37 15.03125C36.789063 14.519531 37.050781 13.929688 37.5625 13.71875C37.691406 13.664063 37.808594 13.65625 37.9375 13.65625 Z M 11.0625 16.28125C11.191406 16.253906 11.332031 16.253906 11.46875 16.28125C12.011719 16.390625 12.359375 16.925781 12.25 17.46875C12.140625 18.011719 11.605469 18.359375 11.0625 18.25C10.519531 18.140625 10.171875 17.605469 10.28125 17.0625C10.363281 16.65625 10.679688 16.359375 11.0625 16.28125 Z M 38.53125 16.28125C39.074219 16.175781 39.609375 16.519531 39.71875 17.0625C39.824219 17.605469 39.480469 18.140625 38.9375 18.25C38.394531 18.355469 37.859375 18.007813 37.75 17.46875C37.644531 16.925781 37.988281 16.390625 38.53125 16.28125 Z M 16.25 17.6875L16.96875 19.125L18.53125 19.34375L17.375 20.46875L17.65625 22.0625L16.25 21.28125L14.8125 22.0625L15.09375 20.46875L13.9375 19.34375L15.53125 19.125 Z M 33.25 17.6875L33.96875 19.125L35.53125 19.34375L34.375 20.46875L34.65625 22.0625L33.25 21.28125L31.8125 22.0625L32.09375 20.46875L30.9375 19.34375L32.53125 19.125 Z M 11 19C11.550781 19 12 19.449219 12 20C12 20.550781 11.550781 21 11 21C10.449219 21 10 20.550781 10 20C10 19.449219 10.449219 19 11 19 Z M 39 19C39.550781 19 40 19.449219 40 20C40 20.550781 39.550781 21 39 21C38.449219 21 38 20.550781 38 20C38 19.449219 38.449219 19 39 19 Z M 11.0625 21.75C11.605469 21.644531 12.140625 21.992188 12.25 22.53125C12.355469 23.074219 12.011719 23.613281 11.46875 23.71875C10.925781 23.824219 10.390625 23.480469 10.28125 22.9375C10.175781 22.394531 10.519531 21.859375 11.0625 21.75 Z M 38.53125 21.75C38.660156 21.722656 38.800781 21.722656 38.9375 21.75C39.480469 21.859375 39.828125 22.398438 39.71875 22.9375C39.609375 23.480469 39.074219 23.828125 38.53125 23.71875C37.988281 23.609375 37.640625 23.074219 37.75 22.53125C37.832031 22.125 38.148438 21.828125 38.53125 21.75 Z M 12.0625 24.34375C12.453125 24.347656 12.839844 24.585938 13 24.96875C13.210938 25.480469 12.949219 26.070313 12.4375 26.28125C11.925781 26.492188 11.367188 26.261719 11.15625 25.75C10.945313 25.238281 11.175781 24.648438 11.6875 24.4375C11.816406 24.382813 11.933594 24.34375 12.0625 24.34375 Z M 37.9375 24.34375C38.066406 24.34375 38.183594 24.382813 38.3125 24.4375C38.824219 24.648438 39.054688 25.238281 38.84375 25.75C38.632813 26.261719 38.074219 26.492188 37.5625 26.28125C37.050781 26.070313 36.789063 25.480469 37 24.96875C37.160156 24.585938 37.546875 24.347656 37.9375 24.34375 Z M 13.15625 26.78125C13.539063 26.707031 13.957031 26.875 14.1875 27.21875C14.496094 27.679688 14.367188 28.285156 13.90625 28.59375C13.445313 28.902344 12.839844 28.804688 12.53125 28.34375C12.222656 27.882813 12.351563 27.246094 12.8125 26.9375C12.925781 26.859375 13.027344 26.804688 13.15625 26.78125 Z M 36.84375 26.78125C36.972656 26.804688 37.074219 26.859375 37.1875 26.9375C37.648438 27.246094 37.777344 27.882813 37.46875 28.34375C37.160156 28.804688 36.554688 28.902344 36.09375 28.59375C35.632813 28.285156 35.503906 27.679688 35.8125 27.21875C36.042969 26.875 36.460938 26.707031 36.84375 26.78125 Z M 15.09375 28.90625C15.351563 28.90625 15.617188 28.992188 15.8125 29.1875C16.203125 29.578125 16.203125 30.203125 15.8125 30.59375C15.421875 30.984375 14.796875 30.984375 14.40625 30.59375C14.015625 30.203125 14.015625 29.578125 14.40625 29.1875C14.601563 28.992188 14.835938 28.90625 15.09375 28.90625 Z M 34.90625 28.90625C35.164063 28.90625 35.398438 28.992188 35.59375 29.1875C35.984375 29.578125 35.984375 30.203125 35.59375 30.59375C35.203125 30.984375 34.578125 30.984375 34.1875 30.59375C33.796875 30.203125 33.796875 29.578125 34.1875 29.1875C34.382813 28.992188 34.648438 28.90625 34.90625 28.90625 Z M 17.03125 30.65625C17.28125 30.605469 17.550781 30.660156 17.78125 30.8125C18.242188 31.121094 18.371094 31.726563 18.0625 32.1875C17.753906 32.648438 17.117188 32.777344 16.65625 32.46875C16.195313 32.160156 16.097656 31.554688 16.40625 31.09375C16.558594 30.863281 16.78125 30.707031 17.03125 30.65625 Z M 32.59375 30.65625C32.976563 30.582031 33.363281 30.75 33.59375 31.09375C33.902344 31.554688 33.804688 32.160156 33.34375 32.46875C32.882813 32.777344 32.246094 32.648438 31.9375 32.1875C31.628906 31.726563 31.757813 31.121094 32.21875 30.8125C32.332031 30.734375 32.464844 30.679688 32.59375 30.65625 Z M 19.625 31.9375C19.753906 31.9375 19.902344 31.945313 20.03125 32C20.542969 32.210938 20.773438 32.800781 20.5625 33.3125C20.351563 33.824219 19.761719 34.054688 19.25 33.84375C18.738281 33.632813 18.507813 33.074219 18.71875 32.5625C18.878906 32.179688 19.234375 31.941406 19.625 31.9375 Z M 30.375 31.9375C30.765625 31.941406 31.121094 32.179688 31.28125 32.5625C31.492188 33.074219 31.261719 33.632813 30.75 33.84375C30.238281 34.054688 29.648438 33.824219 29.4375 33.3125C29.226563 32.800781 29.457031 32.210938 29.96875 32C30.097656 31.945313 30.246094 31.9375 30.375 31.9375 Z M 9.4375 32.53125L4.125 41.59375C3.953125 41.882813 3.945313 42.226563 4.09375 42.53125C4.242188 42.832031 4.539063 43.054688 4.875 43.09375L9.875 43.6875L12.59375 47.5625C12.78125 47.832031 13.078125 48 13.40625 48C13.417969 48 13.425781 48 13.4375 48C13.777344 47.988281 14.109375 47.796875 14.28125 47.5L19.15625 39.125C15.28125 37.941406 11.921875 35.613281 9.4375 32.53125 Z M 40.5625 32.53125C38.078125 35.613281 34.71875 37.941406 30.84375 39.125L35.71875 47.5C35.890625 47.796875 36.21875 47.988281 36.5625 48C36.574219 48.003906 36.582031 48 36.59375 48C36.921875 48 37.21875 47.832031 37.40625 47.5625L40.125 43.6875L45.125 43.09375C45.460938 43.054688 45.757813 42.832031 45.90625 42.53125C46.058594 42.226563 46.046875 41.882813 45.875 41.59375 Z M 22.0625 32.75C22.191406 32.722656 22.332031 32.722656 22.46875 32.75C23.007813 32.859375 23.355469 33.394531 23.25 33.9375C23.140625 34.480469 22.605469 34.828125 22.0625 34.71875C21.519531 34.609375 21.171875 34.074219 21.28125 33.53125C21.363281 33.125 21.679688 32.828125 22.0625 32.75 Z M 27.53125 32.75C28.074219 32.640625 28.609375 32.988281 28.71875 33.53125C28.824219 34.074219 28.480469 34.609375 27.9375 34.71875C27.394531 34.824219 26.859375 34.480469 26.75 33.9375C26.644531 33.394531 26.988281 32.859375 27.53125 32.75 Z M 25 33C25.550781 33 26 33.449219 26 34C26 34.550781 25.550781 35 25 35C24.449219 35 24 34.550781 24 34C24 33.449219 24.449219 33 25 33Z" fill="#FFFFFF" />
</svg>