<svg xmlns="http://www.w3.org/2000/svg" viewBox="0 0 50 50">
  <path d="M19.9375 12.96875C19.414063 12.988281 18.921875 13.214844 18.5625 13.59375L8.6875 23.59375L7.3125 25L8.6875 26.40625L18.5625 36.40625C19.339844 37.199219 20.613281 37.214844 21.40625 36.4375C22.199219 35.660156 22.214844 34.386719 21.4375 33.59375L14.90625 27L40 27C40.722656 27.011719 41.390625 26.632813 41.753906 26.007813C42.121094 25.386719 42.121094 24.613281 41.753906 23.992188C41.390625 23.367188 40.722656 22.988281 40 23L14.90625 23L21.4375 16.40625C22.039063 15.824219 22.21875 14.933594 21.882813 14.164063C21.546875 13.398438 20.773438 12.921875 19.9375 12.96875Z" fill="#FFFFFF" />
</svg>