<svg xmlns="http://www.w3.org/2000/svg" viewBox="0 0 148.51 168.91"><defs><style>.cls-1{fill:#3c3c3b;}.cls-1,.cls-2,.cls-3{fill-rule:evenodd;}.cls-2{fill:#e8348b;}.cls-3{fill:#575756;}</style></defs><g id="Layer_2" data-name="Layer 2"><g id="Layer_1-2" data-name="Layer 1"><polygon class="cls-1" points="112.42 0 138.28 92.11 148.51 89.36 125.69 0 112.42 0"/><polygon class="cls-1" points="0 0 1.29 108.75 11.88 108.75 13.17 0 0 0"/><path class="cls-1" d="M31.89,150.73a62.07,62.07,0,1,1,43.89,18.18,61.9,61.9,0,0,1-43.89-18.18ZM19.11,106.84a56.66,56.66,0,1,0,16.6-40.07A56.49,56.49,0,0,0,19.11,106.84Z"/><path class="cls-2" d="M41.71,140.92a48,48,0,0,1-14.08-32.24c0,.31,0,.61,0,.91a83.86,83.86,0,0,0,62.91,43.12,48.18,48.18,0,0,1-48.87-11.79ZM27.62,108.48c0-.31,0-.62,0-.93,0,.31,0,.62,0,.93Zm0-1.19c0-.29,0-.57,0-.86,0,.29,0,.57,0,.86Zm0-1.21c0-.25,0-.5,0-.74,0,.24,0,.49,0,.74Zm0-1.22q0-.31,0-.63,0,.31,0,.63Zm.06-1.19c0-.19,0-.38,0-.56,0,.18,0,.37,0,.56Zm.09-1.19c0-.16,0-.32.05-.48,0,.16,0,.32-.05.48Zm.12-1.19c0-.14,0-.28.05-.43,0,.15,0,.29-.05.43Zm.15-1.17.06-.39-.06.39ZM28.24,99l.06-.36-.06.36Zm.06-.36a78.6,78.6,0,0,0,72.3,49.56,48.55,48.55,0,0,0,15.25-14.54A83.88,83.88,0,0,1,29.33,94c-.42,1.52-.76,3.06-1,4.61Zm1.21-5.24c0-.16.09-.32.14-.48,0,.16-.09.32-.14.48Zm.34-1.12.15-.46-.15.46Zm.37-1.11.15-.45-.15.45ZM30.61,90c.06-.14.11-.29.17-.43-.06.14-.11.29-.17.43ZM31,88.91l.16-.4-.16.4Zm.45-1.08a47.88,47.88,0,0,1,2.62-5.21,83.83,83.83,0,0,0,89.41,30.78,48.06,48.06,0,0,1-4.23,14.18A78.65,78.65,0,0,1,31.66,87.44l-.17.39Zm2.62-5.21.31-.53-.31.53Zm.61-1c.11-.19.23-.38.35-.57-.12.19-.24.38-.35.57Zm.61-1,.42-.62-.42.62Zm.65-1,.49-.71-.49.71Zm.66-1,.55-.74-.55.74ZM37.2,78a48.14,48.14,0,0,1,4.42-5.11l.46.47a83.75,83.75,0,0,0,80.45,21.82h0a48.26,48.26,0,0,1,1.42,13c0-.12,0-.24,0-.36A78.52,78.52,0,0,1,45.78,88.14,79.56,79.56,0,0,1,37.2,78Zm7.13-7.64.21-.18-.21.18Zm.9-.75a47.4,47.4,0,0,1,8.25-5.47l-.21.11a83.76,83.76,0,0,0,61.34,14.07h0A48,48,0,0,1,121,90.15h0A78.52,78.52,0,0,1,45.78,69.63l-.27-.28-.28.23Zm9.08-5.89.24-.12-.24.12Zm1-.51.26-.12-.26.12Zm1.06-.48.3-.13-.3.13Zm1.07-.45.32-.13-.32.13Zm1.08-.43.34-.13a78.5,78.5,0,0,0,51.72,11.88l.19.19-1-1A48.18,48.18,0,0,0,58.57,61.82Zm52.9,12.65.18.2-.18-.2Zm.83.93.15.17-.15-.17Zm8.84,15.15.24.69-.24-.69Zm.39,1.14c.07.2.13.41.2.61-.07-.2-.13-.41-.2-.61Zm.37,1.16c0,.18.1.35.16.53-.06-.18-.11-.35-.16-.53Zm.33,1.15c0,.16.09.32.13.48,0-.16-.09-.32-.13-.48Zm1.69,15c0,.13,0,.27,0,.4,0-.13,0-.27,0-.4Zm-.06,1.11c0,.17,0,.34,0,.5,0-.16,0-.33,0-.5Zm-.09,1.1-.06.61.06-.61Zm-.11,1.09c0,.24,0,.48-.09.72,0-.24.06-.48.09-.72Zm-4.46,15.49c-.14.3-.28.59-.43.88.15-.29.29-.58.43-.88Zm-.53,1.08-.45.85.45-.85Zm-.54,1-.47.84.47-.84Zm-.6,1.06c-.15.26-.3.52-.46.78.16-.26.31-.52.46-.78Zm-.64,1.07-.42.68.42-.68Zm-.66,1.06-.38.57.38-.57Zm-15.64,15.11-.67.4.67-.4Zm-1,.6-.65.36.65-.36Zm-1.09.6-.57.3.57-.3Zm-1.09.57-.49.24.49-.24Zm-1.12.54-.38.18.38-.18Zm-1.12.51-.3.13Z"/><polygon class="cls-3" points="9.37 0 9.37 108.75 11.88 108.75 13.17 0 9.37 0"/><polygon class="cls-3" points="121.97 0 146.09 90.01 148.51 89.36 125.69 0 121.97 0"/></g></g></svg>