<svg xmlns="http://www.w3.org/2000/svg" viewBox="0 0 50 50">
  <path d="M26 -0.03125C20.148438 -0.03125 17.96875 1.09375 17.96875 4.09375C17.96875 4.566406 18.136719 5.265625 18.875 5.90625C20.28125 7.132813 23.25 7.566406 25.3125 7.28125C31.359375 6.441406 34.515625 7.84375 36.5 9.4375C35.546875 10.421875 35.175781 11.304688 34.90625 12C34.683594 12.578125 34.570313 12.878906 34.25 13.15625C33.261719 14.011719 31.960938 13.605469 29.59375 12.75C27.738281 12.078125 25.449219 11.25 22.75 11.25C16.578125 11.25 11.585938 15.558594 10.46875 21.4375C9.691406 20.949219 8.722656 20.6875 7.71875 20.6875C4.925781 20.6875 2.96875 22.609375 2.96875 25.375C2.96875 26.628906 3.75 27.878906 5 28.65625C6.519531 29.601563 8.503906 29.695313 10.53125 28.9375C12.121094 31.277344 15.359375 31.832031 16.5 32.03125C16.605469 32.050781 16.683594 32.054688 16.71875 32.0625C17.101563 32.171875 17.566406 32.242188 18.0625 32.3125C18.941406 32.4375 20.5625 32.671875 20.5625 33.21875C20.5625 33.777344 20.148438 34.226563 19.46875 34.875C18.773438 35.53125 18 36.265625 18 37.40625C18 40.3125 21.359375 40.617188 23.15625 40.78125C23.632813 40.824219 24.097656 40.871094 24.3125 40.9375C27.910156 42.046875 28.839844 43.40625 30.375 45.65625L30.59375 45.96875C31.925781 47.914063 34.363281 49 36.1875 49C36.558594 49 36.914063 48.96875 37.21875 48.875C38.167969 48.582031 38.71875 47.839844 38.71875 46.90625C38.71875 43.148438 36.570313 40.558594 34.0625 38.8125C32.433594 37.675781 30.640625 36.914063 29.21875 36.40625C30.6875 35.246094 31.371094 33.480469 31.65625 31.90625C31.703125 31.632813 31.722656 31.355469 31.75 31.09375C31.761719 30.988281 31.800781 30.882813 31.8125 30.78125C31.84375 30.410156 31.839844 30.058594 31.84375 29.71875C31.84375 29.617188 31.84375 29.53125 31.84375 29.4375C31.769531 24.519531 28.648438 22.6875 27.40625 21.96875C26.917969 21.6875 26.75 21.082031 27.03125 20.59375C27.3125 20.109375 27.945313 19.949219 28.4375 20.21875C33.652344 23.097656 35.359375 29.140625 32.5625 35.625C32.835938 35.761719 33.097656 35.910156 33.375 36.0625C39.175781 31.699219 40.742188 25.945313 40.78125 21.15625C41.890625 21.625 43.101563 21.910156 44.4375 22C46.339844 22.132813 48.710938 21.480469 49.40625 20.15625C50.546875 17.976563 49.894531 13.746094 49.09375 12.28125C47.371094 9.125 44.566406 7.574219 40.5625 7.5625C37.585938 2.671875 30.1875 -0.03125 26 -0.03125 Z M 4.28125 7C3.730469 7 3.28125 7.449219 3.28125 8C3.28125 8.550781 3.730469 9 4.28125 9L14.5 9C15.050781 9 15.5 8.550781 15.5 8C15.5 7.449219 15.050781 7 14.5 7 Z M 2.625 11C2.074219 11 1.625 11.449219 1.625 12C1.625 12.550781 2.074219 13 2.625 13L9.6875 13C10.238281 13 10.6875 12.550781 10.6875 12C10.6875 11.449219 10.238281 11 9.6875 11 Z M 45.5 14C46.328125 14 47 14.671875 47 15.5C47 16.328125 46.328125 17 45.5 17C44.671875 17 44 16.328125 44 15.5C44 14.671875 44.671875 14 45.5 14 Z M 1 15C0.449219 15 0 15.449219 0 16C0 16.550781 0.449219 17 1 17L7.40625 17C7.957031 17 8.40625 16.550781 8.40625 16C8.40625 15.449219 7.957031 15 7.40625 15Z" fill="#FFFFFF" />
</svg>