<svg xmlns="http://www.w3.org/2000/svg" xmlns:xlink="http://www.w3.org/1999/xlink" viewBox="0 0 191.94 373.25"><defs><style>.cls-1{fill:none;}.cls-2{fill:#fff;}.cls-3{fill:#686de0;}.cls-4{fill:#5663af;}.cls-5{opacity:0.2;}.cls-6{fill:#30336b;}.cls-7{fill:#f52293;}.cls-8{fill:#f28bc5;}.cls-9{fill:#7ed6df;}.cls-10{clip-path:url(#clip-path);}.cls-11{clip-path:url(#clip-path-2);}.cls-12{clip-path:url(#clip-path-3);}.cls-13{fill:#7dd5df;}.cls-14{fill:#7cd5de;}.cls-15{fill:#7bd4de;}.cls-16{fill:#7ad4dd;}.cls-17{fill:#79d3dd;}.cls-18{fill:#78d3dc;}.cls-19{fill:#77d2dc;}.cls-20{fill:#76d2db;}.cls-21{fill:#75d1db;}.cls-22{fill:#74d1da;}.cls-23{fill:#73d0da;}.cls-24{fill:#72d0d9;}.cls-25{fill:#71cfd9;}.cls-26{fill:#70cfd8;}.cls-27{fill:#6fced8;}.cls-28{fill:#6eced7;}.cls-29{fill:#6dcdd7;}.cls-30{fill:#6ccdd6;}.cls-31{fill:#6bccd6;}.cls-32{fill:#6acbd5;}.cls-33{fill:#69cbd5;}.cls-34{fill:#68cad4;}.cls-35{fill:#67cad4;}.cls-36{fill:#66c9d3;}.cls-37{fill:#65c9d3;}.cls-38{fill:#64c8d2;}.cls-39{fill:#63c8d2;}.cls-40{fill:#62c7d1;}.cls-41{fill:#61c7d1;}.cls-42{fill:#60c6d0;}.cls-43{fill:#5fc6d0;}.cls-44{fill:#5ec5d0;}.cls-45{fill:#5dc5cf;}.cls-46{fill:#5cc4cf;}.cls-47{fill:#5bc4ce;}.cls-48{fill:#5ac3ce;}.cls-49{fill:#59c2cd;}.cls-50{fill:#58c2cd;}.cls-51{fill:#57c1cc;}.cls-52{fill:#56c1cc;}.cls-53{fill:#55c0cb;}.cls-54{fill:#54c0cb;}.cls-55{fill:#53bfca;}.cls-56{fill:#52bfca;}.cls-57{fill:#51bec9;}.cls-58{fill:#4fbec9;}.cls-59{fill:#4ebdc8;}.cls-60{fill:#4dbdc8;}.cls-61{fill:#4cbcc7;}.cls-62{fill:#4bbcc7;}.cls-63{fill:#4abbc6;}.cls-64{fill:#49bbc6;}.cls-65{fill:#48bac5;}.cls-66{fill:#47bac5;}.cls-67{fill:#46b9c4;}.cls-68{fill:#45b8c4;}.cls-69{fill:#44b8c3;}.cls-70{fill:#43b7c3;}.cls-71{fill:#42b7c2;}.cls-72{fill:#41b6c2;}.cls-73{fill:#40b6c2;}.cls-74{fill:#3fb5c1;}.cls-75{fill:#3eb5c1;}.cls-76{fill:#3db4c0;}.cls-77{fill:#3cb4c0;}.cls-78{fill:#3bb3bf;}.cls-79{fill:#3ab3bf;}.cls-80{fill:#39b2be;}.cls-81{fill:#38b2be;}.cls-82{fill:#37b1bd;}.cls-83{fill:#36b1bd;}.cls-84{fill:#35b0bc;}.cls-85{fill:#34afbc;}.cls-86{fill:#33afbb;}.cls-87{fill:#32aebb;}.cls-88{fill:#31aeba;}.cls-89{fill:#30adba;}.cls-90{fill:#2fadb9;}.cls-91{fill:#2eacb9;}.cls-92{fill:#2dacb8;}.cls-93{fill:#2cabb8;}.cls-94{fill:#2babb7;}.cls-95{fill:#2aaab7;}.cls-96{fill:#29aab6;}.cls-97{fill:#28a9b6;}.cls-98{fill:#27a9b5;}.cls-99{fill:#26a8b5;}.cls-100{fill:#25a8b4;}.cls-101{fill:#24a7b4;}.cls-102{fill:#23a7b3;}.cls-103{fill:#22a6b3;}.cls-104{fill:#f6e58d;}.cls-105{clip-path:url(#clip-path-4);}.cls-106{fill:#3c4382;}.cls-107{clip-path:url(#clip-path-5);}.cls-108{fill:#010101;}.cls-109{fill:#020202;}.cls-110{fill:#030303;}.cls-111{fill:#040404;}.cls-112{fill:#050505;}.cls-113{fill:#060606;}.cls-114{fill:#070707;}.cls-115{fill:#080808;}.cls-116{fill:#090909;}.cls-117{fill:#0a0a0a;}.cls-118{fill:#0b0b0b;}.cls-119{fill:#0c0c0c;}.cls-120{fill:#0d0d0d;}.cls-121{fill:#0f0f0e;}.cls-122{fill:#10100e;}.cls-123{fill:#11110f;}.cls-124{fill:#121210;}.cls-125{fill:#131311;}.cls-126{fill:#141412;}.cls-127{fill:#151513;}.cls-128{fill:#161614;}.cls-129{fill:#171715;}.cls-130{fill:#181816;}.cls-131{fill:#191917;}.cls-132{fill:#1a1a18;}.cls-133{fill:#1b1b19;}.cls-134{fill:#1c1c1a;}.cls-135{fill:#1d1d1b;}.cls-136{fill:#fbb03b;}</style><clipPath id="clip-path"><path class="cls-1" d="M35.05,107.79A17.18,17.18,0,1,1,52.24,90.61,17.2,17.2,0,0,1,35.05,107.79Zm0-31.68a14.5,14.5,0,1,0,14.5,14.5A14.52,14.52,0,0,0,35.05,76.11Z"/></clipPath><clipPath id="clip-path-2"><path class="cls-1" d="M104.18,217.64a17.18,17.18,0,1,1,17.18-17.18A17.2,17.2,0,0,1,104.18,217.64Zm0-31.68a14.5,14.5,0,1,0,14.5,14.5A14.52,14.52,0,0,0,104.18,186Z"/></clipPath><clipPath id="clip-path-3"><rect class="cls-1" x="66.76" y="133.45" width="56" height="14.79"/></clipPath><clipPath id="clip-path-4"><rect class="cls-1" x="69.59" y="136.22" width="57.32" height="14.79"/></clipPath><clipPath id="clip-path-5"><path class="cls-1" d="M131,139.09v53.1H66.12a4.26,4.26,0,0,1-4.26-4.25v-53.1a4.25,4.25,0,0,0,4.26,4.25Z"/></clipPath></defs><g id="Layer_2" data-name="Layer 2"><g id="OBJECTS"><rect class="cls-2" width="191.94" height="373.25" rx="19.01"/><path class="cls-3" d="M45.08,274a2.34,2.34,0,0,1-.54-1.65v-4.89a2.34,2.34,0,0,1,.54-1.65,2.4,2.4,0,0,1,3.13,0,2.34,2.34,0,0,1,.54,1.65v1H47.4v-1.06q0-.84-.72-.84c-.47,0-.71.28-.71.84v5.09c0,.55.24.83.71.83s.72-.28.72-.83v-1.39h1.35v1.28a2.34,2.34,0,0,1-.54,1.65,2.37,2.37,0,0,1-3.13,0Z"/><path class="cls-3" d="M50.26,265.36h1.43v3.7h1.53v-3.7h1.43v9.1H53.22v-4.1H51.69v4.1H50.26Z"/><path class="cls-3" d="M56.82,274a2.39,2.39,0,0,1-.56-1.69v-4.78a2.38,2.38,0,0,1,.56-1.69,2.09,2.09,0,0,1,1.61-.6,2.11,2.11,0,0,1,1.62.6,2.38,2.38,0,0,1,.56,1.69v4.78a2.39,2.39,0,0,1-.56,1.69,2.11,2.11,0,0,1-1.62.6A2.09,2.09,0,0,1,56.82,274Zm2.36-1.6v-5q0-.9-.75-.9c-.49,0-.74.3-.74.9v5c0,.6.25.9.74.9S59.18,273,59.18,272.39Z"/><path class="cls-3" d="M62.67,274a2.39,2.39,0,0,1-.56-1.69v-4.78a2.38,2.38,0,0,1,.56-1.69,2.09,2.09,0,0,1,1.61-.6,2.11,2.11,0,0,1,1.62.6,2.38,2.38,0,0,1,.56,1.69v4.78A2.39,2.39,0,0,1,65.9,274a2.11,2.11,0,0,1-1.62.6A2.09,2.09,0,0,1,62.67,274Zm2.36-1.6v-5q0-.9-.75-.9c-.49,0-.74.3-.74.9v5c0,.6.25.9.74.9S65,273,65,272.39Z"/><path class="cls-3" d="M68.35,274a2.49,2.49,0,0,1-.53-1.7v-.52h1.35v.62c0,.59.25.89.74.89a.69.69,0,0,0,.56-.22,1.06,1.06,0,0,0,.18-.69,1.88,1.88,0,0,0-.26-1,4.72,4.72,0,0,0-1-1.05,5.63,5.63,0,0,1-1.23-1.41,2.8,2.8,0,0,1-.35-1.42,2.38,2.38,0,0,1,.54-1.67,2.07,2.07,0,0,1,1.59-.59,2,2,0,0,1,1.55.59,2.47,2.47,0,0,1,.53,1.7v.37H70.71v-.46a1,1,0,0,0-.19-.69.65.65,0,0,0-.53-.21c-.48,0-.71.29-.71.87a1.75,1.75,0,0,0,.26.92,4.84,4.84,0,0,0,1,1,5.36,5.36,0,0,1,1.24,1.42,3.18,3.18,0,0,1,.33,1.49,2.44,2.44,0,0,1-.55,1.72,2.07,2.07,0,0,1-1.6.6A2,2,0,0,1,68.35,274Z"/><path class="cls-3" d="M73.55,265.36h3.9v1.3H75v2.4h2v1.3H75v2.8h2.47v1.3h-3.9Z"/><path class="cls-3" d="M83,270.58l-1.73-5.22h1.52l1,3.34h0l1-3.34h1.39l-1.73,5.22v3.88H83Z"/><path class="cls-3" d="M87.64,274a2.39,2.39,0,0,1-.55-1.69v-4.78a2.37,2.37,0,0,1,.55-1.69,2.13,2.13,0,0,1,1.62-.6,2.09,2.09,0,0,1,1.61.6,2.38,2.38,0,0,1,.56,1.69v4.78a2.39,2.39,0,0,1-.56,1.69,2.09,2.09,0,0,1-1.61.6A2.13,2.13,0,0,1,87.64,274Zm2.36-1.6v-5c0-.6-.25-.9-.74-.9s-.74.3-.74.9v5c0,.6.24.9.74.9S90,273,90,272.39Z"/><path class="cls-3" d="M93.53,274a2.44,2.44,0,0,1-.54-1.7v-6.94h1.43v7a1,1,0,0,0,.19.68.67.67,0,0,0,.54.21.7.7,0,0,0,.54-.21,1,1,0,0,0,.18-.68v-7h1.38v6.94a2.44,2.44,0,0,1-.54,1.7,2.44,2.44,0,0,1-3.18,0Z"/><path class="cls-3" d="M98.92,265.36H101a1.82,1.82,0,0,1,2.12,2.09V268c0,.95-.31,1.54-.93,1.79v0a1.11,1.11,0,0,1,.73.64,3.07,3.07,0,0,1,.22,1.28v1.6c0,.26,0,.47,0,.63a1.72,1.72,0,0,0,.13.48h-1.45a1.87,1.87,0,0,1-.11-.42,6,6,0,0,1,0-.7v-1.66a1.35,1.35,0,0,0-.21-.87.82.82,0,0,0-.69-.25h-.49v3.9H98.92Zm2,3.9a.88.88,0,0,0,.64-.22,1.07,1.07,0,0,0,.21-.74v-.71a1.14,1.14,0,0,0-.17-.71.66.66,0,0,0-.55-.22h-.65v2.6Z"/><path class="cls-3" d="M107.53,265.36h2.11a2.1,2.1,0,0,1,1.6.57,2.35,2.35,0,0,1,.53,1.68v.89a2.35,2.35,0,0,1-.53,1.68,2.1,2.1,0,0,1-1.6.57H109v3.71h-1.43Zm2.11,4.09a.69.69,0,0,0,.53-.19,1,1,0,0,0,.17-.66v-1.08a1,1,0,0,0-.17-.67.69.69,0,0,0-.53-.19H109v2.79Z"/><path class="cls-3" d="M113.85,265.36h1.94l1.48,9.1h-1.43l-.26-1.81v0H114l-.26,1.78h-1.33Zm1.56,6.08-.63-4.5h0l-.62,4.5Z"/><path class="cls-3" d="M119.33,270.58l-1.73-5.22h1.52l1,3.34h0l1-3.34h1.39l-1.72,5.22v3.88h-1.43Z"/><path class="cls-3" d="M123.78,265.36h2l.91,6.51h0l.91-6.51h2v9.1h-1.35v-6.89h0l-1,6.89H126.1l-1-6.89h0v6.89h-1.25Z"/><path class="cls-3" d="M131.43,265.36h3.9v1.3h-2.47v2.4h2v1.3h-2v2.8h2.47v1.3h-3.9Z"/><path class="cls-3" d="M136.8,265.36h1.79l1.39,5.45h0v-5.45h1.27v9.1h-1.47l-1.71-6.64h0v6.64H136.8Z"/><path class="cls-3" d="M144.12,266.66h-1.5v-1.3H147v1.3h-1.49v7.8h-1.43Z"/><path class="cls-4" d="M32.13,295.55h.66v3.6h1.09v.6H32.13Z"/><path class="cls-4" d="M34.68,299.54a1.13,1.13,0,0,1-.26-.78v-2.21a1.1,1.1,0,0,1,.26-.78,1.13,1.13,0,0,1,1.49,0,1.1,1.1,0,0,1,.26.78v2.21a1.13,1.13,0,0,1-.26.78,1.16,1.16,0,0,1-1.49,0Zm1.09-.74v-2.29c0-.28-.12-.42-.34-.42s-.35.14-.35.42v2.29c0,.28.12.41.35.41S35.77,299.08,35.77,298.8Z"/><path class="cls-4" d="M37.17,295.55h1a.85.85,0,0,1,1,1v.26a.81.81,0,0,1-.43.83h0a.48.48,0,0,1,.33.29,1.44,1.44,0,0,1,.1.6v.73a2.36,2.36,0,0,0,0,.3.42.42,0,0,0,.06.21h-.68a.65.65,0,0,1,0-.19,2.1,2.1,0,0,1,0-.32v-.77a.65.65,0,0,0-.09-.4.38.38,0,0,0-.32-.12h-.23v1.8h-.66Zm.9,1.8a.4.4,0,0,0,.3-.1.51.51,0,0,0,.1-.34v-.32a.53.53,0,0,0-.08-.33.32.32,0,0,0-.26-.11h-.3v1.2Z"/><path class="cls-4" d="M39.89,295.55h1.8v.6H40.55v1.11h.91v.6h-.91v1.29h1.14v.6h-1.8Z"/><path class="cls-4" d="M42.37,295.55h.94l.42,3h0l.42-3h.94v4.2h-.62v-3.18h0L44,299.75h-.55L43,296.57h0v3.18h-.57Z"/><path class="cls-4" d="M48.53,295.55h.66v4.2h-.66Z"/><path class="cls-4" d="M50,295.55h1a1,1,0,0,1,.74.27,1.05,1.05,0,0,1,.25.77V297a1.07,1.07,0,0,1-.25.77A.94.94,0,0,1,51,298h-.31v1.71H50Zm1,1.89a.33.33,0,0,0,.25-.09.47.47,0,0,0,.08-.3v-.5a.5.5,0,0,0-.08-.31.33.33,0,0,0-.25-.09h-.31v1.29Z"/><path class="cls-4" d="M52.75,299.54a1.14,1.14,0,0,1-.24-.78v-.24h.62v.29c0,.27.12.4.34.4a.34.34,0,0,0,.26-.09.5.5,0,0,0,.09-.33.88.88,0,0,0-.12-.46,2.09,2.09,0,0,0-.45-.48,2.83,2.83,0,0,1-.57-.65,1.34,1.34,0,0,1-.16-.66,1.08,1.08,0,0,1,.25-.77,1,1,0,0,1,.73-.28.92.92,0,0,1,.72.28,1.14,1.14,0,0,1,.24.78v.17h-.62v-.21a.54.54,0,0,0-.08-.32.34.34,0,0,0-.25-.1c-.22,0-.33.14-.33.41a.79.79,0,0,0,.12.42,2.63,2.63,0,0,0,.45.48,2.29,2.29,0,0,1,.57.66,1.46,1.46,0,0,1,.16.69,1.14,1.14,0,0,1-.26.79,1,1,0,0,1-.74.27A1,1,0,0,1,52.75,299.54Z"/><path class="cls-4" d="M55.38,299.54a1.09,1.09,0,0,1-.25-.78v-3.21h.66v3.26a.46.46,0,0,0,.09.31.33.33,0,0,0,.25.09.35.35,0,0,0,.25-.09.52.52,0,0,0,.08-.31v-3.26h.64v3.21a1.14,1.14,0,0,1-.25.78,1,1,0,0,1-.74.27A1,1,0,0,1,55.38,299.54Z"/><path class="cls-4" d="M57.87,295.55h.94l.42,3h0l.42-3h.94v4.2H60v-3.18h0l-.48,3.18h-.56l-.48-3.18h0v3.18h-.57Z"/><path class="cls-4" d="M64,295.55h1a1,1,0,0,1,.74.27,1.09,1.09,0,0,1,.24.77v2.13a1.11,1.11,0,0,1-.24.77,1,1,0,0,1-.74.26H64Zm1,3.6a.31.31,0,0,0,.24-.09.46.46,0,0,0,.09-.31v-2.19a.44.44,0,0,0-.09-.31.31.31,0,0,0-.24-.1h-.34v3Z"/><path class="cls-4" d="M67,299.54a1.08,1.08,0,0,1-.26-.78v-2.21a1.05,1.05,0,0,1,.26-.78,1.12,1.12,0,0,1,1.48,0,1.05,1.05,0,0,1,.26.78v2.21a1.08,1.08,0,0,1-.26.78,1.15,1.15,0,0,1-1.48,0Zm1.08-.74v-2.29c0-.28-.11-.42-.34-.42s-.34.14-.34.42v2.29c0,.28.11.41.34.41S68.06,299.08,68.06,298.8Z"/><path class="cls-4" d="M69.47,295.55h.66v3.6h1.08v.6H69.47Z"/><path class="cls-4" d="M72,299.54a1.08,1.08,0,0,1-.26-.78v-2.21a1.05,1.05,0,0,1,.26-.78,1.12,1.12,0,0,1,1.48,0,1.05,1.05,0,0,1,.26.78v2.21a1.08,1.08,0,0,1-.26.78,1.15,1.15,0,0,1-1.48,0Zm1.08-.74v-2.29c0-.28-.11-.42-.34-.42s-.34.14-.34.42v2.29c0,.28.11.41.34.41S73.1,299.08,73.1,298.8Z"/><path class="cls-4" d="M74.51,295.55h1a.84.84,0,0,1,1,1v.26a.8.8,0,0,1-.43.83h0a.52.52,0,0,1,.34.29,1.63,1.63,0,0,1,.1.6v.73a2.63,2.63,0,0,0,0,.3.83.83,0,0,0,.06.21h-.67a.67.67,0,0,1-.05-.19,2.55,2.55,0,0,1,0-.32v-.77a.58.58,0,0,0-.1-.4.37.37,0,0,0-.32-.12h-.22v1.8h-.66Zm.9,1.8a.37.37,0,0,0,.29-.1.46.46,0,0,0,.1-.34v-.32a.53.53,0,0,0-.08-.33.3.3,0,0,0-.25-.11h-.3v1.2Z"/><path class="cls-4" d="M80,299.54a1.14,1.14,0,0,1-.25-.78v-.24h.63v.29c0,.27.11.4.34.4a.36.36,0,0,0,.26-.09.57.57,0,0,0,.08-.33.88.88,0,0,0-.12-.46,2.24,2.24,0,0,0-.44-.48,2.83,2.83,0,0,1-.57-.65,1.34,1.34,0,0,1-.16-.66,1.08,1.08,0,0,1,.25-.77,1,1,0,0,1,.73-.28.92.92,0,0,1,.72.28,1.14,1.14,0,0,1,.24.78v.17h-.62v-.21a.47.47,0,0,0-.09-.32.31.31,0,0,0-.24-.1c-.22,0-.33.14-.33.41a.79.79,0,0,0,.12.42,2.31,2.31,0,0,0,.45.48,2.65,2.65,0,0,1,.57.66,1.47,1.47,0,0,1,.15.69,1.14,1.14,0,0,1-.25.79,1,1,0,0,1-.74.27A.94.94,0,0,1,80,299.54Z"/><path class="cls-4" d="M82.39,295.55h.66v4.2h-.66Z"/><path class="cls-4" d="M84.36,296.15h-.69v-.6h2v.6H85v3.6h-.66Z"/><path class="cls-4" d="M89.47,295.55h.9l.68,4.2h-.66l-.12-.83h-.75l-.12.82h-.61Zm.72,2.81-.29-2.07h0l-.29,2.07Z"/><path class="cls-4" d="M91.67,295.55h.94l.42,3h0l.42-3h.94v4.2h-.62v-3.18h0l-.48,3.18h-.55l-.48-3.18h0v3.18h-.57Z"/><path class="cls-4" d="M95.2,295.55H97v.6H95.86v1.11h.9v.6h-.9v1.29H97v.6H95.2Z"/><path class="cls-4" d="M98.19,296.15H97.5v-.6h2v.6h-.69v3.6h-.66Z"/><path class="cls-4" d="M99.93,299.75h-.21v-.63h.63v.57l-.33.78h-.3Z"/><path class="cls-4" d="M104,299.54a1.06,1.06,0,0,1-.25-.76v-2.25a1.08,1.08,0,0,1,.25-.77.94.94,0,0,1,.72-.27.91.91,0,0,1,.72.27,1.08,1.08,0,0,1,.25.77V297h-.62v-.49q0-.39-.33-.39t-.33.39v2.35c0,.26.11.38.33.38s.33-.12.33-.38v-.64h.62v.59a1.06,1.06,0,0,1-.25.76.91.91,0,0,1-.72.27A.94.94,0,0,1,104,299.54Z"/><path class="cls-4" d="M106.6,299.54a1.13,1.13,0,0,1-.26-.78v-2.21a1.1,1.1,0,0,1,.26-.78,1.13,1.13,0,0,1,1.49,0,1.1,1.1,0,0,1,.26.78v2.21a1.13,1.13,0,0,1-.26.78,1.16,1.16,0,0,1-1.49,0Zm1.09-.74v-2.29c0-.28-.12-.42-.34-.42s-.35.14-.35.42v2.29c0,.28.12.41.35.41S107.69,299.08,107.69,298.8Z"/><path class="cls-4" d="M109.09,295.55h.83l.64,2.52h0v-2.52h.59v4.2h-.68l-.79-3.06h0v3.06h-.59Z"/><path class="cls-4" d="M112.09,299.54a1.09,1.09,0,0,1-.25-.78v-.24h.62v.29c0,.27.12.4.35.4a.33.33,0,0,0,.25-.09.5.5,0,0,0,.09-.33.88.88,0,0,0-.12-.46,2.09,2.09,0,0,0-.45-.48,2.83,2.83,0,0,1-.57-.65,1.46,1.46,0,0,1-.16-.66,1.13,1.13,0,0,1,.25-.77,1,1,0,0,1,.74-.28.91.91,0,0,1,.71.28,1.14,1.14,0,0,1,.25.78v.17h-.63v-.21a.54.54,0,0,0-.08-.32.34.34,0,0,0-.25-.1c-.22,0-.33.14-.33.41a.79.79,0,0,0,.12.42,3,3,0,0,0,.45.48,2.29,2.29,0,0,1,.57.66,1.35,1.35,0,0,1,.16.69,1.14,1.14,0,0,1-.26.79,1,1,0,0,1-.74.27A.91.91,0,0,1,112.09,299.54Z"/><path class="cls-4" d="M114.49,295.55h1.8v.6h-1.14v1.11h.9v.6h-.9v1.29h1.14v.6h-1.8Z"/><path class="cls-4" d="M117.17,299.54a1.06,1.06,0,0,1-.25-.76v-2.25a1.08,1.08,0,0,1,.25-.77,1.11,1.11,0,0,1,1.45,0,1.13,1.13,0,0,1,.25.77V297h-.63v-.49q0-.39-.33-.39t-.33.39v2.35c0,.26.11.38.33.38s.33-.12.33-.38v-.64h.63v.59a1.1,1.1,0,0,1-.25.76,1.11,1.11,0,0,1-1.45,0Z"/><path class="cls-4" d="M120.08,296.15h-.69v-.6h2v.6h-.69v3.6h-.66Z"/><path class="cls-4" d="M122.05,295.55h1.8v.6H122.7v1.11h.91v.6h-.91v1.29h1.15v.6h-1.8Z"/><path class="cls-4" d="M125,296.15h-.69v-.6h2v.6h-.69v3.6H125Z"/><path class="cls-4" d="M127.24,299.54a1.1,1.1,0,0,1-.26-.78v-3.21h.66v3.26a.46.46,0,0,0,.09.31.39.39,0,0,0,.5,0,.46.46,0,0,0,.09-.31v-3.26H129v3.21a1.09,1.09,0,0,1-.25.78,1,1,0,0,1-.73.27A.94.94,0,0,1,127.24,299.54Z"/><path class="cls-4" d="M129.72,295.55h1.8v.6h-1.14v1.11h.9v.6h-.9v1.29h1.14v.6h-1.8Z"/><path class="cls-4" d="M132.2,295.55h1a1,1,0,0,1,.74.24,1,1,0,0,1,.23.73v.26a.8.8,0,0,1-.43.83h0a.52.52,0,0,1,.34.29,1.44,1.44,0,0,1,.1.6v.73a2.63,2.63,0,0,0,0,.3.83.83,0,0,0,.06.21h-.67a.67.67,0,0,1-.05-.19,2.55,2.55,0,0,1,0-.32v-.77a.65.65,0,0,0-.09-.4.4.4,0,0,0-.33-.12h-.22v1.8h-.66Zm.9,1.8a.37.37,0,0,0,.29-.1.46.46,0,0,0,.1-.34v-.32a.47.47,0,0,0-.08-.33.3.3,0,0,0-.25-.11h-.3v1.2Z"/><path class="cls-4" d="M138.06,295.55H139l.69,4.2H139l-.12-.83h-.75l-.12.82h-.61Zm.72,2.81-.29-2.07h0l-.28,2.07Z"/><path class="cls-4" d="M140.26,295.55h1a1,1,0,0,1,.74.27,1.05,1.05,0,0,1,.25.77v2.13a1.07,1.07,0,0,1-.25.77.94.94,0,0,1-.74.26h-1Zm1,3.6a.33.33,0,0,0,.25-.09.46.46,0,0,0,.09-.31v-2.19a.44.44,0,0,0-.09-.31.34.34,0,0,0-.25-.1h-.33v3Z"/><path class="cls-4" d="M143,295.55h.66v4.2H143Z"/><path class="cls-4" d="M144.44,295.55h1a.94.94,0,0,1,.73.27,1.05,1.05,0,0,1,.25.77V297a1.07,1.07,0,0,1-.25.77.93.93,0,0,1-.73.26h-.32v1.71h-.66Zm1,1.89a.32.32,0,0,0,.24-.09.47.47,0,0,0,.08-.3v-.5a.5.5,0,0,0-.08-.31.32.32,0,0,0-.24-.09h-.32v1.29Z"/><path class="cls-4" d="M147.06,295.55h.66v4.2h-.66Z"/><path class="cls-4" d="M148.64,299.54a1.14,1.14,0,0,1-.24-.78v-.24H149v.29c0,.27.12.4.34.4a.34.34,0,0,0,.26-.09.5.5,0,0,0,.09-.33.88.88,0,0,0-.12-.46,2.09,2.09,0,0,0-.45-.48,2.83,2.83,0,0,1-.57-.65,1.34,1.34,0,0,1-.16-.66,1.08,1.08,0,0,1,.25-.77,1,1,0,0,1,.73-.28.92.92,0,0,1,.72.28,1.14,1.14,0,0,1,.24.78v.17h-.62v-.21a.54.54,0,0,0-.08-.32.34.34,0,0,0-.25-.1c-.22,0-.33.14-.33.41a.79.79,0,0,0,.12.42,2.31,2.31,0,0,0,.45.48,2.29,2.29,0,0,1,.57.66,1.46,1.46,0,0,1,.16.69,1.14,1.14,0,0,1-.26.79,1,1,0,0,1-.74.27A1,1,0,0,1,148.64,299.54Z"/><path class="cls-4" d="M151.25,299.54a1.06,1.06,0,0,1-.25-.76v-2.25a1.08,1.08,0,0,1,.25-.77,1.11,1.11,0,0,1,1.45,0,1.13,1.13,0,0,1,.25.77V297h-.63v-.49q0-.39-.33-.39t-.33.39v2.35c0,.26.11.38.33.38s.33-.12.33-.38v-.64H153v.59a1.1,1.1,0,0,1-.25.76,1.11,1.11,0,0,1-1.45,0Z"/><path class="cls-4" d="M153.64,295.55h.66v4.2h-.66Z"/><path class="cls-4" d="M155.09,295.55h.83l.64,2.52h0v-2.52h.58v4.2h-.67l-.8-3.06h0v3.06h-.59Z"/><path class="cls-4" d="M158.16,299.54a1.09,1.09,0,0,1-.25-.78v-2.21a1.09,1.09,0,0,1,.25-.78,1.09,1.09,0,0,1,1.46,0,1.09,1.09,0,0,1,.25.78v.36h-.62v-.4c0-.28-.11-.42-.34-.42s-.34.14-.34.42v2.3c0,.27.11.4.34.4s.34-.13.34-.4V298h-.33v-.6h1v1.38a1.09,1.09,0,0,1-.25.78,1.12,1.12,0,0,1-1.46,0Z"/><path class="cls-4" d="M42.88,302.75h1.8v.6H43.54v1.11h.9v.6h-.9v1.29h1.14v.6h-1.8Z"/><path class="cls-4" d="M45.36,302.75H46v3.6H47.1v.6H45.36Z"/><path class="cls-4" d="M47.72,302.75h.66V307h-.66Z"/><path class="cls-4" d="M49.69,303.35H49v-.6h2v.6h-.69V307h-.66Z"/><path class="cls-4" d="M51.43,307h-.21v-.63h.63v.57l-.33.78h-.3Z"/><path class="cls-4" d="M54,306.74a1.09,1.09,0,0,1-.25-.78v-.24h.63V306c0,.27.11.4.34.4a.33.33,0,0,0,.25-.09.5.5,0,0,0,.09-.33.88.88,0,0,0-.12-.46,2.24,2.24,0,0,0-.44-.48,2.41,2.41,0,0,1-.57-.65,1.35,1.35,0,0,1-.17-.66,1.09,1.09,0,0,1,.26-.77.94.94,0,0,1,.73-.28.91.91,0,0,1,.71.28,1.09,1.09,0,0,1,.25.78v.17h-.63v-.21a.47.47,0,0,0-.08-.32.34.34,0,0,0-.25-.1c-.22,0-.33.14-.33.41a.72.72,0,0,0,.13.42,2.51,2.51,0,0,0,.44.48,2.29,2.29,0,0,1,.57.66,1.35,1.35,0,0,1,.16.69,1.14,1.14,0,0,1-.26.79,1,1,0,0,1-.74.27A.91.91,0,0,1,54,306.74Z"/><path class="cls-4" d="M56.44,302.75h1.8v.6H57.1v1.11H58v.6h-.9v1.29h1.14v.6h-1.8Z"/><path class="cls-4" d="M58.92,302.75h1a1,1,0,0,1,.74.27,1.05,1.05,0,0,1,.25.77v2.13a1.07,1.07,0,0,1-.25.77.94.94,0,0,1-.74.26h-1Zm1,3.6a.33.33,0,0,0,.25-.09.46.46,0,0,0,.09-.31v-2.19a.44.44,0,0,0-.09-.31.34.34,0,0,0-.25-.1h-.33v3Z"/><path class="cls-4" d="M62.91,302.75h1a1,1,0,0,1,.74.27,1.09,1.09,0,0,1,.24.77v2.13a1.11,1.11,0,0,1-.24.77,1,1,0,0,1-.74.26h-1Zm1,3.6a.33.33,0,0,0,.25-.09.52.52,0,0,0,.08-.31v-2.19a.5.5,0,0,0-.08-.31.34.34,0,0,0-.25-.1h-.34v3Z"/><path class="cls-4" d="M65.65,302.75h.66V307h-.66Z"/><path class="cls-4" d="M67.61,302.75h.89l.69,4.2h-.66l-.12-.83h-.75l-.12.82h-.61Zm.72,2.81L68,303.49h0l-.28,2.07Z"/><path class="cls-4" d="M69.81,302.75h.94l.42,3h0l.42-3h.94V307h-.62v-3.18h0L71.43,307h-.56l-.48-3.18h0V307h-.57Z"/><path class="cls-4" d="M74.59,302.75h.83l.64,2.52h0v-2.52h.58V307H76l-.8-3.06h0V307h-.59Z"/><path class="cls-4" d="M77.66,306.74a1.13,1.13,0,0,1-.25-.78v-2.21a1.09,1.09,0,0,1,.25-.78,1,1,0,0,1,.75-.28,1,1,0,0,1,.74.28,1.1,1.1,0,0,1,.26.78V306a1.13,1.13,0,0,1-.26.78,1,1,0,0,1-.74.27A1,1,0,0,1,77.66,306.74Zm1.09-.74v-2.29c0-.28-.11-.42-.34-.42s-.34.14-.34.42V306c0,.28.11.41.34.41S78.75,306.28,78.75,306Z"/><path class="cls-4" d="M80.16,302.75H81l.64,2.52h0v-2.52h.58V307h-.67l-.79-3.06h0V307h-.58Z"/><path class="cls-4" d="M83.24,306.74A1.14,1.14,0,0,1,83,306v-3.21h.66V306a.46.46,0,0,0,.09.31.39.39,0,0,0,.5,0,.46.46,0,0,0,.09-.31v-3.26H85V306a1.09,1.09,0,0,1-.25.78A1,1,0,0,1,84,307,1,1,0,0,1,83.24,306.74Z"/><path class="cls-4" d="M85.73,302.75h.94l.42,3h0l.42-3h1V307h-.63v-3.18h0L87.35,307H86.8l-.48-3.18h0V307h-.58Z"/><path class="cls-4" d="M89.26,302.75h.94l.42,3h0l.42-3H92V307h-.62v-3.18h0L90.88,307h-.55l-.48-3.18h0V307h-.57Z"/><path class="cls-4" d="M93.39,305.17l-.8-2.42h.7l.45,1.55h0l.45-1.55h.64l-.8,2.42V307h-.66Z"/><path class="cls-4" d="M96.71,302.75h.83l.64,2.52h0v-2.52h.59V307H98.1l-.79-3.06h0V307h-.59Z"/><path class="cls-4" d="M99.57,302.75h.66V307h-.66Z"/><path class="cls-4" d="M101,302.75h1a.85.85,0,0,1,1,1v.17a1.19,1.19,0,0,1-.11.53.65.65,0,0,1-.32.29h0c.33.11.49.41.49.88V306a.88.88,0,0,1-1,1h-1Zm.92,1.71a.4.4,0,0,0,.3-.1.51.51,0,0,0,.1-.34v-.23a.53.53,0,0,0-.08-.33.32.32,0,0,0-.26-.11h-.32v1.11Zm.12,1.89a.34.34,0,0,0,.26-.09.51.51,0,0,0,.08-.32v-.37a.55.55,0,0,0-.1-.39.38.38,0,0,0-.32-.12h-.3v1.29Z"/><path class="cls-4" d="M103.75,302.75h.66v1.71h.7v-1.71h.66V307h-.66v-1.89h-.7V307h-.66Z"/><path class="cls-4" d="M107.83,302.75h1.8v.6h-1.14v1.11h.9v.6h-.9v1.29h1.14v.6h-1.8Z"/><path class="cls-4" d="M110.53,306.74a1.09,1.09,0,0,1-.25-.78v-3.21h.66V306a.46.46,0,0,0,.09.31.33.33,0,0,0,.25.09.35.35,0,0,0,.25-.09.52.52,0,0,0,.08-.31v-3.26h.64V306a1.14,1.14,0,0,1-.25.78,1,1,0,0,1-.74.27A1,1,0,0,1,110.53,306.74Z"/><path class="cls-4" d="M113,302.75h.66V307H113Z"/><path class="cls-4" d="M114.6,306.74a1.14,1.14,0,0,1-.25-.78v-.24H115V306c0,.27.11.4.34.4a.36.36,0,0,0,.26-.09.57.57,0,0,0,.08-.33.88.88,0,0,0-.12-.46,2.24,2.24,0,0,0-.44-.48,2.83,2.83,0,0,1-.57-.65,1.34,1.34,0,0,1-.16-.66,1.08,1.08,0,0,1,.25-.77,1,1,0,0,1,.73-.28.92.92,0,0,1,.72.28,1.14,1.14,0,0,1,.24.78v.17h-.62v-.21a.47.47,0,0,0-.09-.32.31.31,0,0,0-.24-.1c-.22,0-.33.14-.33.41a.79.79,0,0,0,.12.42,2.31,2.31,0,0,0,.45.48,2.65,2.65,0,0,1,.57.66,1.47,1.47,0,0,1,.15.69,1.14,1.14,0,0,1-.25.79,1,1,0,0,1-.74.27A.94.94,0,0,1,114.6,306.74Z"/><path class="cls-4" d="M117,302.75h.94l.42,3h0l.42-3h.95V307h-.63v-3.18h0l-.48,3.18h-.55l-.48-3.18h0V307H117Z"/><path class="cls-4" d="M120.74,306.74a1.13,1.13,0,0,1-.26-.78v-2.21a1.1,1.1,0,0,1,.26-.78,1,1,0,0,1,.74-.28,1,1,0,0,1,.75.28,1.09,1.09,0,0,1,.25.78V306a1.13,1.13,0,0,1-.25.78,1,1,0,0,1-.75.27A1,1,0,0,1,120.74,306.74Zm1.08-.74v-2.29c0-.28-.11-.42-.34-.42s-.34.14-.34.42V306c0,.28.11.41.34.41S121.82,306.28,121.82,306Z"/><path class="cls-4" d="M123.23,302.75h1a.94.94,0,0,1,.73.27,1.05,1.05,0,0,1,.25.77v2.13a1.07,1.07,0,0,1-.25.77.93.93,0,0,1-.73.26h-1Zm1,3.6a.32.32,0,0,0,.25-.09.46.46,0,0,0,.09-.31v-2.19a.44.44,0,0,0-.09-.31.32.32,0,0,0-.25-.1h-.33v3Z"/><path class="cls-4" d="M127.74,303.35h-.69v-.6h2v.6h-.69V307h-.66Z"/><path class="cls-4" d="M129.71,302.75h.66V307h-.66Z"/><path class="cls-4" d="M131.16,302.75H132l.64,2.52h0v-2.52h.59V307h-.68l-.79-3.06h0V307h-.59Z"/><path class="cls-4" d="M134.23,306.74A1.06,1.06,0,0,1,134,306v-2.25a1.08,1.08,0,0,1,.25-.77,1.11,1.11,0,0,1,1.45,0,1.13,1.13,0,0,1,.24.77v.44h-.62v-.49q0-.39-.33-.39t-.33.39V306c0,.26.11.38.33.38s.33-.12.33-.38v-.64h.62V306a1.1,1.1,0,0,1-.24.76,1.11,1.11,0,0,1-1.45,0Z"/><path class="cls-4" d="M136.62,302.75h.66V307h-.66Z"/><path class="cls-4" d="M138.07,302.75h1a1,1,0,0,1,.74.27,1.09,1.09,0,0,1,.24.77v2.13a1.11,1.11,0,0,1-.24.77,1,1,0,0,1-.74.26h-1Zm1,3.6a.33.33,0,0,0,.25-.09.52.52,0,0,0,.08-.31v-2.19a.5.5,0,0,0-.08-.31.34.34,0,0,0-.25-.1h-.34v3Z"/><path class="cls-4" d="M141,306.74a1.1,1.1,0,0,1-.26-.78v-3.21h.66V306a.46.46,0,0,0,.09.31.39.39,0,0,0,.5,0,.46.46,0,0,0,.09-.31v-3.26h.63V306a1.09,1.09,0,0,1-.25.78,1,1,0,0,1-.73.27A.94.94,0,0,1,141,306.74Z"/><path class="cls-4" d="M143.52,302.75h.83l.64,2.52h0v-2.52h.59V307h-.68l-.79-3.06h0V307h-.59Z"/><path class="cls-4" d="M146.9,303.35h-.69v-.6h2v.6h-.69V307h-.66Z"/><path class="cls-4" d="M148.43,306.32h.63V307h-.63Z"/><g class="cls-5"><circle class="cls-6" cx="74.96" cy="355.51" r="2.89"/></g><circle class="cls-7" cx="95.97" cy="355.51" r="2.89"/><g class="cls-5"><circle class="cls-6" cx="116.98" cy="355.51" r="2.89"/></g><path class="cls-6" d="M72.61,175.63a2.3,2.3,0,0,0,0,.37v-.37Z"/><path class="cls-8" d="M154.18,189.92s.09-7.76,7.76-7.76c0,0-7.76-.1-7.76-7.76,0,0-.1,7.76-7.76,7.76C146.42,182.16,154.18,182.26,154.18,189.92Z"/><path class="cls-8" d="M59.19,225.05s.09-7.75,7.75-7.75c0,0-7.75-.1-7.75-7.76,0,0-.1,7.76-7.76,7.76C51.43,217.3,59.19,217.39,59.19,225.05Z"/><path class="cls-8" d="M106.23,98.93s.09-7.76,7.76-7.76c0,0-7.76-.1-7.76-7.76,0,0-.1,7.76-7.76,7.76C98.47,91.17,106.23,91.27,106.23,98.93Z"/><path class="cls-8" d="M135.26,213.3s.05-4.56,4.55-4.56c0,0-4.55-.06-4.55-4.56,0,0-.06,4.56-4.56,4.56C130.7,208.74,135.26,208.8,135.26,213.3Z"/><path class="cls-8" d="M36.41,214.09s.05-4.55,4.55-4.55c0,0-4.55-.06-4.55-4.56,0,0-.06,4.56-4.56,4.56C31.85,209.54,36.41,209.59,36.41,214.09Z"/><path class="cls-9" d="M168.56,120.11a8.87,8.87,0,1,1,8.87-8.87A8.87,8.87,0,0,1,168.56,120.11Zm0-15a6.19,6.19,0,1,0,6.19,6.18A6.19,6.19,0,0,0,168.56,105.06Z"/><g class="cls-10"><polygon class="cls-9" points="26.18 76.11 20.55 84.94 20.55 76.11 26.18 76.11"/><polygon class="cls-9" points="46.77 76.11 49.55 77.88 49.55 90.19 40.04 105.11 23.34 105.11 20.55 103.33 20.55 84.94 26.18 76.11 46.77 76.11"/><polygon class="cls-9" points="40.04 105.11 49.55 90.19 49.55 105.11 40.04 105.11"/><polygon class="cls-9" points="27.89 73.43 17.87 89.14 17.87 73.43 27.89 73.43"/><polygon class="cls-9" points="48.25 73.43 52.24 75.97 52.24 85.99 38.33 107.79 21.86 107.79 17.87 105.25 17.87 89.14 27.89 73.43 48.25 73.43"/><polygon class="cls-9" points="38.33 107.79 52.24 85.99 52.24 107.79 38.33 107.79"/></g><g class="cls-11"><polygon class="cls-9" points="89.68 199.05 118.68 193.25 118.68 214.96 89.68 214.96 89.68 199.05"/><polygon class="cls-9" points="118.68 193.25 89.68 199.05 89.68 185.96 118.68 185.96 118.68 193.25"/><polygon class="cls-9" points="87 199.59 121.36 192.71 121.36 217.64 87 217.64 87 199.59"/><polygon class="cls-9" points="121.36 192.71 87 199.59 87 183.28 121.36 183.28 121.36 192.71"/></g><circle class="cls-7" cx="158.52" cy="152.7" r="8.44" transform="translate(-11.35 292.66) rotate(-83.42)"/><path class="cls-8" d="M164.51,146.68a8.44,8.44,0,1,1-11.84-1.39A8.43,8.43,0,0,1,164.51,146.68Z"/><path class="cls-7" d="M163.52,147.46a7.17,7.17,0,1,1-10.07-1.18A7.17,7.17,0,0,1,163.52,147.46Z"/><path class="cls-8" d="M160.27,150.64a2.54,2.54,0,0,0-1.13.07,9.39,9.39,0,0,0-1.13.45l-.21.09a9.13,9.13,0,0,1-.85.36l-.09,0a1.79,1.79,0,0,1-.66.11.73.73,0,0,1-.52-.28.86.86,0,0,1-.14-.84,1.69,1.69,0,0,1,.27-.48,3.74,3.74,0,0,1,.53-.51l.31-.22a5,5,0,0,1,.61-.31,4.51,4.51,0,0,1,1.09-.3l-.33-1.13a4,4,0,0,0-1.22.32,5.87,5.87,0,0,0-.88.5l-.7-.88-.87.69.72.91a3.16,3.16,0,0,0-.58.78,2.31,2.31,0,0,0-.31,1.28,2.09,2.09,0,0,0,.45,1.11,1.74,1.74,0,0,0,1,.7,2.24,2.24,0,0,0,1.12-.07,8.71,8.71,0,0,0,1-.38l.38-.17.68-.29.25-.1a1.84,1.84,0,0,1,.67-.11.73.73,0,0,1,.52.28.82.82,0,0,1,.11.82,1.7,1.7,0,0,1-.38.6,4.48,4.48,0,0,1-.44.4,4,4,0,0,1-.43.29,4,4,0,0,1-.78.37,3.84,3.84,0,0,1-1.28.24l.3,1.16a3.65,3.65,0,0,0,1.43-.28,5.75,5.75,0,0,0,1.07-.56l.7.89.87-.69-.71-.89a3.79,3.79,0,0,0,.7-.9,2.29,2.29,0,0,0,.3-1.28,2,2,0,0,0-.43-1.11A1.76,1.76,0,0,0,160.27,150.64Z"/><path class="cls-7" d="M47.6,190.06a8.44,8.44,0,1,1-5.54-10.56A8.44,8.44,0,0,1,47.6,190.06Z"/><circle class="cls-8" cx="39.84" cy="186.59" r="8.44" transform="translate(-41.03 13.78) rotate(-13.03)"/><circle class="cls-7" cx="39.84" cy="186.59" r="7.17" transform="translate(-150.93 184.11) rotate(-77.2)"/><path class="cls-8" d="M42.23,187.83a2.41,2.41,0,0,0-.69-.89,9.22,9.22,0,0,0-1-.68l-.2-.12c-.32-.2-.58-.36-.77-.5l-.08,0a1.81,1.81,0,0,1-.47-.49.66.66,0,0,1-.06-.58.86.86,0,0,1,.61-.59,1.38,1.38,0,0,1,.55-.05,3.87,3.87,0,0,1,.72.15l.35.13a4,4,0,0,1,.61.33,4.56,4.56,0,0,1,.86.73l.75-.91a3.57,3.57,0,0,0-1-.82,6,6,0,0,0-.91-.46l.34-1.07-1.06-.33-.35,1.11a3.59,3.59,0,0,0-1,0,2.35,2.35,0,0,0-1.23.48,2.06,2.06,0,0,0-.67,1,1.72,1.72,0,0,0,0,1.25,2.28,2.28,0,0,0,.68.89,10.5,10.5,0,0,0,.87.6l.35.21.63.4.22.15a1.67,1.67,0,0,1,.47.49.68.68,0,0,1,.06.59.82.82,0,0,1-.61.55,1.5,1.5,0,0,1-.71,0,3.88,3.88,0,0,1-.58-.13,4.51,4.51,0,0,1-1.23-.63,3.77,3.77,0,0,1-.91-.92l-.79.9a3.38,3.38,0,0,0,1,1,5.15,5.15,0,0,0,1.06.57l-.34,1.08,1.06.33.34-1.09a3.41,3.41,0,0,0,1.13.07,2.26,2.26,0,0,0,1.23-.47,2,2,0,0,0,.67-1A1.75,1.75,0,0,0,42.23,187.83Z"/><path class="cls-6" d="M119.31,130.58v8.51H66.12a4.25,4.25,0,0,1-4.26-4.25c0-.09,0-.2,0-.3a4.26,4.26,0,0,1,4.25-4Z"/><g class="cls-12"><polygon class="cls-9" points="108.09 148.25 90.83 133.45 122.76 133.45 122.76 148.25 108.09 148.25"/><polygon class="cls-9" points="107.78 148.25 90.52 133.45 90.83 133.45 108.09 148.25 107.78 148.25"/><polygon class="cls-13" points="107.47 148.25 90.2 133.45 90.52 133.45 107.78 148.25 107.47 148.25"/><polygon class="cls-14" points="107.15 148.25 89.89 133.45 90.2 133.45 107.47 148.25 107.15 148.25"/><polygon class="cls-15" points="106.84 148.25 89.58 133.45 89.89 133.45 107.15 148.25 106.84 148.25"/><polygon class="cls-16" points="106.53 148.25 89.27 133.45 89.58 133.45 106.84 148.25 106.53 148.25"/><polygon class="cls-17" points="106.22 148.25 88.96 133.45 89.27 133.45 106.53 148.25 106.22 148.25"/><polygon class="cls-18" points="105.9 148.25 88.64 133.45 88.96 133.45 106.22 148.25 105.9 148.25"/><polygon class="cls-19" points="105.59 148.25 88.33 133.45 88.64 133.45 105.9 148.25 105.59 148.25"/><polygon class="cls-20" points="105.28 148.25 88.02 133.45 88.33 133.45 105.59 148.25 105.28 148.25"/><polygon class="cls-21" points="104.97 148.25 87.71 133.45 88.02 133.45 105.28 148.25 104.97 148.25"/><polygon class="cls-22" points="104.66 148.25 87.4 133.45 87.71 133.45 104.97 148.25 104.66 148.25"/><polygon class="cls-23" points="104.34 148.25 87.08 133.45 87.4 133.45 104.66 148.25 104.34 148.25"/><polygon class="cls-24" points="104.03 148.25 86.77 133.45 87.08 133.45 104.34 148.25 104.03 148.25"/><polygon class="cls-25" points="103.72 148.25 86.46 133.45 86.77 133.45 104.03 148.25 103.72 148.25"/><polygon class="cls-26" points="103.41 148.25 86.15 133.45 86.46 133.45 103.72 148.25 103.41 148.25"/><polygon class="cls-27" points="103.1 148.25 85.84 133.45 86.15 133.45 103.41 148.25 103.1 148.25"/><polygon class="cls-28" points="102.78 148.25 85.52 133.45 85.84 133.45 103.1 148.25 102.78 148.25"/><polygon class="cls-29" points="102.47 148.25 85.21 133.45 85.52 133.45 102.78 148.25 102.47 148.25"/><polygon class="cls-30" points="102.16 148.25 84.9 133.45 85.21 133.45 102.47 148.25 102.16 148.25"/><polygon class="cls-31" points="101.85 148.25 84.59 133.45 84.9 133.45 102.16 148.25 101.85 148.25"/><polygon class="cls-32" points="101.53 148.25 84.28 133.45 84.59 133.45 101.85 148.25 101.53 148.25"/><polygon class="cls-33" points="101.22 148.25 83.96 133.45 84.28 133.45 101.53 148.25 101.22 148.25"/><polygon class="cls-34" points="100.91 148.25 83.65 133.45 83.96 133.45 101.22 148.25 100.91 148.25"/><polygon class="cls-35" points="100.6 148.25 83.34 133.45 83.65 133.45 100.91 148.25 100.6 148.25"/><polygon class="cls-36" points="100.29 148.25 83.03 133.45 83.34 133.45 100.6 148.25 100.29 148.25"/><polygon class="cls-37" points="99.97 148.25 82.72 133.45 83.03 133.45 100.29 148.25 99.97 148.25"/><polygon class="cls-38" points="99.66 148.25 82.4 133.45 82.72 133.45 99.97 148.25 99.66 148.25"/><polygon class="cls-39" points="99.35 148.25 82.09 133.45 82.4 133.45 99.66 148.25 99.35 148.25"/><polygon class="cls-40" points="99.04 148.25 81.78 133.45 82.09 133.45 99.35 148.25 99.04 148.25"/><polygon class="cls-41" points="98.73 148.25 81.47 133.45 81.78 133.45 99.04 148.25 98.73 148.25"/><polygon class="cls-42" points="98.42 148.25 81.16 133.45 81.47 133.45 98.73 148.25 98.42 148.25"/><polygon class="cls-43" points="98.1 148.25 80.84 133.45 81.16 133.45 98.42 148.25 98.1 148.25"/><polygon class="cls-44" points="97.79 148.25 80.53 133.45 80.84 133.45 98.1 148.25 97.79 148.25"/><polygon class="cls-45" points="97.48 148.25 80.22 133.45 80.53 133.45 97.79 148.25 97.48 148.25"/><polygon class="cls-46" points="97.17 148.25 79.91 133.45 80.22 133.45 97.48 148.25 97.17 148.25"/><polygon class="cls-47" points="96.85 148.25 79.59 133.45 79.91 133.45 97.17 148.25 96.85 148.25"/><polygon class="cls-48" points="96.54 148.25 79.28 133.45 79.59 133.45 96.85 148.25 96.54 148.25"/><polygon class="cls-49" points="96.23 148.25 78.97 133.45 79.28 133.45 96.54 148.25 96.23 148.25"/><polygon class="cls-50" points="95.92 148.25 78.66 133.45 78.97 133.45 96.23 148.25 95.92 148.25"/><polygon class="cls-51" points="95.61 148.25 78.35 133.45 78.66 133.45 95.92 148.25 95.61 148.25"/><polygon class="cls-52" points="95.29 148.25 78.03 133.45 78.35 133.45 95.61 148.25 95.29 148.25"/><polygon class="cls-53" points="94.98 148.25 77.72 133.45 78.03 133.45 95.29 148.25 94.98 148.25"/><polygon class="cls-54" points="94.67 148.25 77.41 133.45 77.72 133.45 94.98 148.25 94.67 148.25"/><polygon class="cls-55" points="94.36 148.25 77.1 133.45 77.41 133.45 94.67 148.25 94.36 148.25"/><polygon class="cls-56" points="94.05 148.25 76.79 133.45 77.1 133.45 94.36 148.25 94.05 148.25"/><polygon class="cls-57" points="93.73 148.25 76.47 133.45 76.79 133.45 94.05 148.25 93.73 148.25"/><polygon class="cls-58" points="93.42 148.25 76.16 133.45 76.47 133.45 93.73 148.25 93.42 148.25"/><polygon class="cls-59" points="93.11 148.25 75.85 133.45 76.16 133.45 93.42 148.25 93.11 148.25"/><polygon class="cls-60" points="92.8 148.25 75.54 133.45 75.85 133.45 93.11 148.25 92.8 148.25"/><polygon class="cls-61" points="92.48 148.25 75.22 133.45 75.54 133.45 92.8 148.25 92.48 148.25"/><polygon class="cls-62" points="92.17 148.25 74.91 133.45 75.22 133.45 92.48 148.25 92.17 148.25"/><polygon class="cls-63" points="91.86 148.25 74.6 133.45 74.91 133.45 92.17 148.25 91.86 148.25"/><polygon class="cls-64" points="91.55 148.25 74.29 133.45 74.6 133.45 91.86 148.25 91.55 148.25"/><polygon class="cls-65" points="91.24 148.25 73.98 133.45 74.29 133.45 91.55 148.25 91.24 148.25"/><polygon class="cls-66" points="90.92 148.25 73.67 133.45 73.98 133.45 91.24 148.25 90.92 148.25"/><polygon class="cls-67" points="90.61 148.25 73.35 133.45 73.67 133.45 90.92 148.25 90.61 148.25"/><polygon class="cls-68" points="90.3 148.25 73.04 133.45 73.35 133.45 90.61 148.25 90.3 148.25"/><polygon class="cls-69" points="89.99 148.25 72.73 133.45 73.04 133.45 90.3 148.25 89.99 148.25"/><polygon class="cls-70" points="89.68 148.25 72.42 133.45 72.73 133.45 89.99 148.25 89.68 148.25"/><polygon class="cls-71" points="89.36 148.25 72.11 133.45 72.42 133.45 89.68 148.25 89.36 148.25"/><polygon class="cls-72" points="89.05 148.25 71.79 133.45 72.11 133.45 89.36 148.25 89.05 148.25"/><polygon class="cls-73" points="88.74 148.25 71.48 133.45 71.79 133.45 89.05 148.25 88.74 148.25"/><polygon class="cls-74" points="88.43 148.25 71.17 133.45 71.48 133.45 88.74 148.25 88.43 148.25"/><polygon class="cls-75" points="88.12 148.25 70.86 133.45 71.17 133.45 88.43 148.25 88.12 148.25"/><polygon class="cls-76" points="87.8 148.25 70.54 133.45 70.86 133.45 88.12 148.25 87.8 148.25"/><polygon class="cls-77" points="87.49 148.25 70.23 133.45 70.54 133.45 87.8 148.25 87.49 148.25"/><polygon class="cls-78" points="87.18 148.25 69.92 133.45 70.23 133.45 87.49 148.25 87.18 148.25"/><polygon class="cls-79" points="86.87 148.25 69.61 133.45 69.92 133.45 87.18 148.25 86.87 148.25"/><polygon class="cls-80" points="86.56 148.25 69.3 133.45 69.61 133.45 86.87 148.25 86.56 148.25"/><polygon class="cls-81" points="86.24 148.25 68.98 133.45 69.3 133.45 86.56 148.25 86.24 148.25"/><polygon class="cls-82" points="85.93 148.25 68.67 133.45 68.98 133.45 86.24 148.25 85.93 148.25"/><polygon class="cls-83" points="85.62 148.25 68.36 133.45 68.67 133.45 85.93 148.25 85.62 148.25"/><polygon class="cls-84" points="85.31 148.25 68.05 133.45 68.36 133.45 85.62 148.25 85.31 148.25"/><polygon class="cls-85" points="85 148.25 67.74 133.45 68.05 133.45 85.31 148.25 85 148.25"/><polygon class="cls-86" points="84.68 148.25 67.42 133.45 67.74 133.45 85 148.25 84.68 148.25"/><polygon class="cls-87" points="84.37 148.25 67.11 133.45 67.42 133.45 84.68 148.25 84.37 148.25"/><polygon class="cls-88" points="84.06 148.25 66.8 133.45 67.11 133.45 84.37 148.25 84.06 148.25"/><polygon class="cls-89" points="83.75 148.25 66.76 133.69 66.76 133.45 66.8 133.45 84.06 148.25 83.75 148.25"/><polygon class="cls-90" points="83.44 148.25 66.76 133.95 66.76 133.69 83.75 148.25 83.44 148.25"/><polygon class="cls-91" points="83.12 148.25 66.76 134.22 66.76 133.95 83.44 148.25 83.12 148.25"/><polygon class="cls-92" points="82.81 148.25 66.76 134.49 66.76 134.22 83.12 148.25 82.81 148.25"/><polygon class="cls-93" points="82.5 148.25 66.76 134.75 66.76 134.49 82.81 148.25 82.5 148.25"/><polygon class="cls-94" points="82.19 148.25 66.76 135.02 66.76 134.75 82.5 148.25 82.19 148.25"/><polygon class="cls-95" points="81.88 148.25 66.76 135.29 66.76 135.02 82.19 148.25 81.88 148.25"/><polygon class="cls-96" points="81.56 148.25 66.76 135.56 66.76 135.29 81.88 148.25 81.56 148.25"/><polygon class="cls-97" points="81.25 148.25 66.76 135.82 66.76 135.56 81.56 148.25 81.25 148.25"/><polygon class="cls-98" points="80.94 148.25 66.76 136.09 66.76 135.82 81.25 148.25 80.94 148.25"/><polygon class="cls-99" points="80.63 148.25 66.76 136.36 66.76 136.09 80.94 148.25 80.63 148.25"/><polygon class="cls-100" points="80.31 148.25 66.76 136.63 66.76 136.36 80.63 148.25 80.31 148.25"/><polygon class="cls-101" points="80 148.25 66.76 136.9 66.76 136.63 80.31 148.25 80 148.25"/><polygon class="cls-102" points="79.69 148.25 66.76 137.16 66.76 136.9 80 148.25 79.69 148.25"/><polygon class="cls-103" points="79.38 148.25 66.76 137.43 66.76 137.16 79.69 148.25 79.38 148.25"/><polygon class="cls-103" points="66.76 137.43 79.38 148.25 66.76 148.25 66.76 137.43"/></g><path class="cls-8" d="M110.07,107.19l27.53,4.51a5,5,0,0,1,4.39,5.54l-8.43,51.49a5,5,0,0,1-5.92,3.84l-27.53-4.5a5,5,0,0,1-4.39-5.54L104.15,111A5,5,0,0,1,110.07,107.19Z"/><rect class="cls-7" x="76.78" y="135.61" width="61.68" height="4.87" transform="translate(-46 221.94) rotate(-80.7)"/><rect class="cls-2" x="105.54" y="162.1" width="6.47" height="1.59" transform="translate(-69.56 243.91) rotate(-80.7)"/><rect class="cls-2" x="107.11" y="152.49" width="6.47" height="1.59" transform="translate(-58.76 237.41) rotate(-80.7)"/><rect class="cls-2" x="108.68" y="142.89" width="6.47" height="1.59" transform="translate(-47.96 230.91) rotate(-80.7)"/><rect class="cls-2" x="110.25" y="133.28" width="6.47" height="1.59" transform="translate(-37.16 224.41) rotate(-80.7)"/><rect class="cls-2" x="111.83" y="123.67" width="6.47" height="1.59" transform="translate(-26.36 217.91) rotate(-80.7)"/><rect class="cls-2" x="113.4" y="114.07" width="6.47" height="1.59" transform="translate(-15.56 211.4) rotate(-80.7)"/><rect class="cls-104" x="125.23" y="116.95" width="12.01" height="8.15" transform="translate(-9.4 230.99) rotate(-80.7)"/><g class="cls-105"><polygon class="cls-9" points="88.6 136.22 83.16 151.02 69.59 151.02 69.59 136.22 88.6 136.22"/><polygon class="cls-9" points="88.89 136.22 83.45 151.02 83.16 151.02 88.6 136.22 88.89 136.22"/><polygon class="cls-13" points="89.18 136.22 83.75 151.02 83.45 151.02 88.89 136.22 89.18 136.22"/><polygon class="cls-14" points="89.47 136.22 84.04 151.02 83.75 151.02 89.18 136.22 89.47 136.22"/><polygon class="cls-15" points="89.77 136.22 84.33 151.02 84.04 151.02 89.47 136.22 89.77 136.22"/><polygon class="cls-16" points="90.06 136.22 84.62 151.02 84.33 151.02 89.77 136.22 90.06 136.22"/><polygon class="cls-17" points="90.35 136.22 84.92 151.02 84.62 151.02 90.06 136.22 90.35 136.22"/><polygon class="cls-18" points="90.64 136.22 85.21 151.02 84.92 151.02 90.35 136.22 90.64 136.22"/><polygon class="cls-19" points="90.94 136.22 85.5 151.02 85.21 151.02 90.64 136.22 90.94 136.22"/><polygon class="cls-20" points="91.23 136.22 85.79 151.02 85.5 151.02 90.94 136.22 91.23 136.22"/><polygon class="cls-21" points="91.52 136.22 86.08 151.02 85.79 151.02 91.23 136.22 91.52 136.22"/><polygon class="cls-22" points="91.81 136.22 86.38 151.02 86.08 151.02 91.52 136.22 91.81 136.22"/><polygon class="cls-23" points="92.11 136.22 86.67 151.02 86.38 151.02 91.81 136.22 92.11 136.22"/><polygon class="cls-24" points="92.4 136.22 86.96 151.02 86.67 151.02 92.11 136.22 92.4 136.22"/><polygon class="cls-25" points="92.69 136.22 87.26 151.02 86.96 151.02 92.4 136.22 92.69 136.22"/><polygon class="cls-26" points="92.98 136.22 87.55 151.02 87.26 151.02 92.69 136.22 92.98 136.22"/><polygon class="cls-27" points="93.28 136.22 87.84 151.02 87.55 151.02 92.98 136.22 93.28 136.22"/><polygon class="cls-28" points="93.57 136.22 88.13 151.02 87.84 151.02 93.28 136.22 93.57 136.22"/><polygon class="cls-29" points="93.86 136.22 88.43 151.02 88.13 151.02 93.57 136.22 93.86 136.22"/><polygon class="cls-30" points="94.16 136.22 88.72 151.02 88.43 151.02 93.86 136.22 94.16 136.22"/><polygon class="cls-31" points="94.45 136.22 89.01 151.02 88.72 151.02 94.16 136.22 94.45 136.22"/><polygon class="cls-32" points="94.74 136.22 89.3 151.02 89.01 151.02 94.45 136.22 94.74 136.22"/><polygon class="cls-33" points="95.03 136.22 89.6 151.02 89.3 151.02 94.74 136.22 95.03 136.22"/><polygon class="cls-34" points="95.33 136.22 89.89 151.02 89.6 151.02 95.03 136.22 95.33 136.22"/><polygon class="cls-35" points="95.62 136.22 90.18 151.02 89.89 151.02 95.33 136.22 95.62 136.22"/><polygon class="cls-36" points="95.91 136.22 90.47 151.02 90.18 151.02 95.62 136.22 95.91 136.22"/><polygon class="cls-37" points="96.2 136.22 90.77 151.02 90.47 151.02 95.91 136.22 96.2 136.22"/><polygon class="cls-38" points="96.5 136.22 91.06 151.02 90.77 151.02 96.2 136.22 96.5 136.22"/><polygon class="cls-39" points="96.79 136.22 91.35 151.02 91.06 151.02 96.5 136.22 96.79 136.22"/><polygon class="cls-40" points="97.08 136.22 91.64 151.02 91.35 151.02 96.79 136.22 97.08 136.22"/><polygon class="cls-41" points="97.37 136.22 91.94 151.02 91.64 151.02 97.08 136.22 97.37 136.22"/><polygon class="cls-42" points="97.67 136.22 92.23 151.02 91.94 151.02 97.37 136.22 97.67 136.22"/><polygon class="cls-43" points="97.96 136.22 92.52 151.02 92.23 151.02 97.67 136.22 97.96 136.22"/><polygon class="cls-44" points="98.25 136.22 92.81 151.02 92.52 151.02 97.96 136.22 98.25 136.22"/><polygon class="cls-45" points="98.54 136.22 93.11 151.02 92.81 151.02 98.25 136.22 98.54 136.22"/><polygon class="cls-46" points="98.84 136.22 93.4 151.02 93.11 151.02 98.54 136.22 98.84 136.22"/><polygon class="cls-47" points="99.13 136.22 93.69 151.02 93.4 151.02 98.84 136.22 99.13 136.22"/><polygon class="cls-48" points="99.42 136.22 93.98 151.02 93.69 151.02 99.13 136.22 99.42 136.22"/><polygon class="cls-49" points="99.71 136.22 94.28 151.02 93.98 151.02 99.42 136.22 99.71 136.22"/><polygon class="cls-50" points="100.01 136.22 94.57 151.02 94.28 151.02 99.71 136.22 100.01 136.22"/><polygon class="cls-51" points="100.3 136.22 94.86 151.02 94.57 151.02 100.01 136.22 100.3 136.22"/><polygon class="cls-52" points="100.59 136.22 95.15 151.02 94.86 151.02 100.3 136.22 100.59 136.22"/><polygon class="cls-53" points="100.88 136.22 95.45 151.02 95.15 151.02 100.59 136.22 100.88 136.22"/><polygon class="cls-54" points="101.18 136.22 95.74 151.02 95.45 151.02 100.88 136.22 101.18 136.22"/><polygon class="cls-55" points="101.47 136.22 96.03 151.02 95.74 151.02 101.18 136.22 101.47 136.22"/><polygon class="cls-56" points="101.76 136.22 96.33 151.02 96.03 151.02 101.47 136.22 101.76 136.22"/><polygon class="cls-57" points="102.05 136.22 96.62 151.02 96.33 151.02 101.76 136.22 102.05 136.22"/><polygon class="cls-58" points="102.35 136.22 96.91 151.02 96.62 151.02 102.05 136.22 102.35 136.22"/><polygon class="cls-59" points="102.64 136.22 97.2 151.02 96.91 151.02 102.35 136.22 102.64 136.22"/><polygon class="cls-60" points="102.93 136.22 97.5 151.02 97.2 151.02 102.64 136.22 102.93 136.22"/><polygon class="cls-61" points="103.22 136.22 97.79 151.02 97.5 151.02 102.93 136.22 103.22 136.22"/><polygon class="cls-62" points="103.52 136.22 98.08 151.02 97.79 151.02 103.22 136.22 103.52 136.22"/><polygon class="cls-63" points="103.81 136.22 98.37 151.02 98.08 151.02 103.52 136.22 103.81 136.22"/><polygon class="cls-64" points="104.1 136.22 98.67 151.02 98.37 151.02 103.81 136.22 104.1 136.22"/><polygon class="cls-65" points="104.39 136.22 98.96 151.02 98.67 151.02 104.1 136.22 104.39 136.22"/><polygon class="cls-66" points="104.69 136.22 99.25 151.02 98.96 151.02 104.39 136.22 104.69 136.22"/><polygon class="cls-67" points="104.98 136.22 99.54 151.02 99.25 151.02 104.69 136.22 104.98 136.22"/><polygon class="cls-68" points="105.27 136.22 99.83 151.02 99.54 151.02 104.98 136.22 105.27 136.22"/><polygon class="cls-69" points="105.56 136.22 100.13 151.02 99.83 151.02 105.27 136.22 105.56 136.22"/><polygon class="cls-70" points="105.86 136.22 100.42 151.02 100.13 151.02 105.56 136.22 105.86 136.22"/><polygon class="cls-71" points="106.15 136.22 100.71 151.02 100.42 151.02 105.86 136.22 106.15 136.22"/><polygon class="cls-72" points="106.44 136.22 101 151.02 100.71 151.02 106.15 136.22 106.44 136.22"/><polygon class="cls-73" points="106.73 136.22 101.3 151.02 101 151.02 106.44 136.22 106.73 136.22"/><polygon class="cls-74" points="107.03 136.22 101.59 151.02 101.3 151.02 106.73 136.22 107.03 136.22"/><polygon class="cls-75" points="107.32 136.22 101.88 151.02 101.59 151.02 107.03 136.22 107.32 136.22"/><polygon class="cls-76" points="107.61 136.22 102.17 151.02 101.88 151.02 107.32 136.22 107.61 136.22"/><polygon class="cls-77" points="107.91 136.22 102.47 151.02 102.17 151.02 107.61 136.22 107.91 136.22"/><polygon class="cls-78" points="108.2 136.22 102.76 151.02 102.47 151.02 107.91 136.22 108.2 136.22"/><polygon class="cls-79" points="108.49 136.22 103.05 151.02 102.76 151.02 108.2 136.22 108.49 136.22"/><polygon class="cls-80" points="108.78 136.22 103.35 151.02 103.05 151.02 108.49 136.22 108.78 136.22"/><polygon class="cls-81" points="109.08 136.22 103.64 151.02 103.35 151.02 108.78 136.22 109.08 136.22"/><polygon class="cls-82" points="109.37 136.22 103.93 151.02 103.64 151.02 109.08 136.22 109.37 136.22"/><polygon class="cls-83" points="109.66 136.22 104.22 151.02 103.93 151.02 109.37 136.22 109.66 136.22"/><polygon class="cls-84" points="109.95 136.22 104.52 151.02 104.22 151.02 109.66 136.22 109.95 136.22"/><polygon class="cls-85" points="110.25 136.22 104.81 151.02 104.52 151.02 109.95 136.22 110.25 136.22"/><polygon class="cls-86" points="110.54 136.22 105.1 151.02 104.81 151.02 110.25 136.22 110.54 136.22"/><polygon class="cls-87" points="110.83 136.22 105.39 151.02 105.1 151.02 110.54 136.22 110.83 136.22"/><polygon class="cls-88" points="111.12 136.22 105.69 151.02 105.39 151.02 110.83 136.22 111.12 136.22"/><polygon class="cls-89" points="111.42 136.22 105.98 151.02 105.69 151.02 111.12 136.22 111.42 136.22"/><polygon class="cls-90" points="111.71 136.22 106.27 151.02 105.98 151.02 111.42 136.22 111.71 136.22"/><polygon class="cls-91" points="112 136.22 106.56 151.02 106.27 151.02 111.71 136.22 112 136.22"/><polygon class="cls-92" points="112.29 136.22 106.86 151.02 106.56 151.02 112 136.22 112.29 136.22"/><polygon class="cls-93" points="112.59 136.22 107.15 151.02 106.86 151.02 112.29 136.22 112.59 136.22"/><polygon class="cls-94" points="112.88 136.22 107.44 151.02 107.15 151.02 112.59 136.22 112.88 136.22"/><polygon class="cls-95" points="113.17 136.22 107.73 151.02 107.44 151.02 112.88 136.22 113.17 136.22"/><polygon class="cls-96" points="113.46 136.22 108.03 151.02 107.73 151.02 113.17 136.22 113.46 136.22"/><polygon class="cls-97" points="113.76 136.22 108.32 151.02 108.03 151.02 113.46 136.22 113.76 136.22"/><polygon class="cls-98" points="114.05 136.22 108.61 151.02 108.32 151.02 113.76 136.22 114.05 136.22"/><polygon class="cls-99" points="114.34 136.22 108.9 151.02 108.61 151.02 114.05 136.22 114.34 136.22"/><polygon class="cls-100" points="114.63 136.22 109.2 151.02 108.9 151.02 114.34 136.22 114.63 136.22"/><polygon class="cls-101" points="114.93 136.22 109.49 151.02 109.2 151.02 114.63 136.22 114.93 136.22"/><polygon class="cls-102" points="115.22 136.22 109.78 151.02 109.49 151.02 114.93 136.22 115.22 136.22"/><polygon class="cls-103" points="115.51 136.22 110.07 151.02 109.78 151.02 115.22 136.22 115.51 136.22"/><polygon class="cls-103" points="110.07 151.02 115.51 136.22 126.91 136.22 126.91 151.02 110.07 151.02"/></g><path class="cls-103" d="M71.08,139.09s2.3-5.91-4.66-5.91v11.49h4.46Z"/><path class="cls-106" d="M131,139.09v53.1H66.12a4.26,4.26,0,0,1-4.26-4.25v-53.1a4.25,4.25,0,0,0,4.26,4.25Z"/><g class="cls-5"><g class="cls-107"><polygon class="cls-108" points="61.85 190.49 63.29 192.19 61.85 192.19 61.85 190.49"/><polygon class="cls-109" points="61.85 187.43 65.88 192.19 63.29 192.19 61.85 190.49 61.85 187.43"/><polygon class="cls-110" points="61.85 184.37 68.47 192.19 65.88 192.19 61.85 187.43 61.85 184.37"/><polygon class="cls-111" points="61.85 181.31 71.06 192.19 68.47 192.19 61.85 184.37 61.85 181.31"/><polygon class="cls-112" points="61.85 178.25 73.64 192.19 71.06 192.19 61.85 181.31 61.85 178.25"/><polygon class="cls-113" points="61.85 175.19 76.23 192.19 73.64 192.19 61.85 178.25 61.85 175.19"/><polygon class="cls-114" points="61.85 172.12 78.82 192.19 76.23 192.19 61.85 175.19 61.85 172.12"/><polygon class="cls-115" points="61.85 169.06 81.41 192.19 78.82 192.19 61.85 172.12 61.85 169.06"/><polygon class="cls-116" points="61.85 166 84 192.19 81.41 192.19 61.85 169.06 61.85 166"/><polygon class="cls-117" points="61.85 162.94 86.59 192.19 84 192.19 61.85 166 61.85 162.94"/><polygon class="cls-118" points="61.85 159.88 89.18 192.19 86.59 192.19 61.85 162.94 61.85 159.88"/><polygon class="cls-119" points="61.85 156.82 91.77 192.19 89.18 192.19 61.85 159.88 61.85 156.82"/><polygon class="cls-120" points="61.85 153.75 94.36 192.19 91.77 192.19 61.85 156.82 61.85 153.75"/><polygon class="cls-121" points="61.85 150.69 96.95 192.19 94.36 192.19 61.85 153.75 61.85 150.69"/><polygon class="cls-122" points="61.85 147.63 99.53 192.19 96.95 192.19 61.85 150.69 61.85 147.63"/><polygon class="cls-123" points="61.85 144.57 102.12 192.19 99.53 192.19 61.85 147.63 61.85 144.57"/><polygon class="cls-124" points="61.85 141.51 104.71 192.19 102.12 192.19 61.85 144.57 61.85 141.51"/><polygon class="cls-125" points="61.85 138.45 107.3 192.19 104.71 192.19 61.85 141.51 61.85 138.45"/><polygon class="cls-126" points="61.85 135.39 109.89 192.19 107.3 192.19 61.85 138.45 61.85 135.39"/><polygon class="cls-127" points="63.98 134.84 112.48 192.19 109.89 192.19 61.85 135.39 61.85 134.84 63.98 134.84"/><polygon class="cls-128" points="66.57 134.84 115.07 192.19 112.48 192.19 63.98 134.84 66.57 134.84"/><polygon class="cls-129" points="69.16 134.84 117.66 192.19 115.07 192.19 66.57 134.84 69.16 134.84"/><polygon class="cls-130" points="71.75 134.84 120.25 192.19 117.66 192.19 69.16 134.84 71.75 134.84"/><polygon class="cls-131" points="74.34 134.84 122.84 192.19 120.25 192.19 71.75 134.84 74.34 134.84"/><polygon class="cls-132" points="76.93 134.84 125.42 192.19 122.84 192.19 74.34 134.84 76.93 134.84"/><polygon class="cls-133" points="79.52 134.84 128.01 192.19 125.42 192.19 76.93 134.84 79.52 134.84"/><polygon class="cls-134" points="82.11 134.84 130.6 192.19 128.01 192.19 79.52 134.84 82.11 134.84"/><polygon class="cls-135" points="84.7 134.84 130.97 189.56 130.97 192.19 130.6 192.19 82.11 134.84 84.7 134.84"/><polygon class="cls-135" points="130.97 189.56 84.7 134.84 130.97 134.84 130.97 189.56"/></g></g><rect class="cls-136" x="118.16" y="43.06" width="34.2" height="59.97" transform="translate(-11.99 117.19) rotate(-45.06)"/><path class="cls-104" d="M164.29,83.9l-18.11,18.15a4.67,4.67,0,0,0-3.56,0L106.23,65.74a4.6,4.6,0,0,0,0-3.55L124.34,44a4.6,4.6,0,0,0,3.55,0l36.39,36.32A4.6,4.6,0,0,0,164.29,83.9Z"/><circle class="cls-7" cx="135.26" cy="73.04" r="13.09"/><path class="cls-104" d="M138,77a4.18,4.18,0,0,0-.35-2,15.92,15.92,0,0,0-1-1.9,3.13,3.13,0,0,0-.21-.34c-.34-.57-.61-1-.8-1.42a1,1,0,0,1-.07-.15,2.92,2.92,0,0,1-.33-1.14,1.21,1.21,0,0,1,.37-1,1.53,1.53,0,0,1,1.45-.42,2.57,2.57,0,0,1,.9.37,6.25,6.25,0,0,1,1,.83l.45.5a7.37,7.37,0,0,1,.67,1,7.53,7.53,0,0,1,.74,1.86l1.93-.8a6.62,6.62,0,0,0-.82-2.08,10.15,10.15,0,0,0-1-1.46l1.4-1.4-1.38-1.39-1.46,1.44a6,6,0,0,0-1.49-.86,4.14,4.14,0,0,0-2.31-.27,3.47,3.47,0,0,0-1.86,1,3,3,0,0,0-1,2,4,4,0,0,0,.34,2,16.87,16.87,0,0,0,.86,1.65c.11.2.24.41.37.63.26.43.48.81.65,1.13.09.15.16.3.23.43a3.07,3.07,0,0,1,.32,1.15,1.22,1.22,0,0,1-.38,1,1.44,1.44,0,0,1-1.42.37,3,3,0,0,1-1.13-.55,9,9,0,0,1-.79-.69q-.31-.33-.6-.69a7.52,7.52,0,0,1-.8-1.31,6.76,6.76,0,0,1-.67-2.19l-2,.76a6.29,6.29,0,0,0,.78,2.45,10.27,10.27,0,0,0,1.19,1.76l-1.42,1.41L129.67,80l1.43-1.42a6.54,6.54,0,0,0,1.71,1,4.19,4.19,0,0,0,2.32.29,3.52,3.52,0,0,0,1.85-1A3,3,0,0,0,138,77Z"/><rect class="cls-136" x="13.29" y="115.85" width="56.94" height="32.47" transform="translate(-95.12 110.77) rotate(-63.6)"/><path class="cls-104" d="M42.77,102.68l21.8,10.82a4.4,4.4,0,0,0,1.08,3.2L44,160.42a4.4,4.4,0,0,0-3.2,1.08L19,150.68a4.4,4.4,0,0,0-1.08-3.2l21.7-43.72A4.4,4.4,0,0,0,42.77,102.68Z"/><circle class="cls-7" cx="41.76" cy="132.09" r="12.42"/><path class="cls-104" d="M44.48,128.46a4,4,0,0,0-1.67.91,16,16,0,0,0-1.41,1.48l-.25.3c-.4.47-.75.86-1,1.14l-.11.12a3,3,0,0,1-.93.64,1.16,1.16,0,0,1-1-.05,1.47,1.47,0,0,1-.81-1.18,2.42,2.42,0,0,1,.06-.91,6.56,6.56,0,0,1,.76-1.71,8.4,8.4,0,0,1,.71-.92,7.44,7.44,0,0,1,1.45-1.22L39,125.56a6.57,6.57,0,0,0-1.62,1.37,9,9,0,0,0-1,1.38l-1.68-.84-.84,1.67,1.74.87a5.75,5.75,0,0,0-.32,1.6,3.76,3.76,0,0,0,.45,2.16,3.42,3.42,0,0,0,1.46,1.38,2.91,2.91,0,0,0,2.07.31,3.83,3.83,0,0,0,1.66-.89,15.64,15.64,0,0,0,1.23-1.28c.15-.16.3-.34.45-.52.31-.37.58-.68.82-.93s.22-.24.32-.33a2.86,2.86,0,0,1,.94-.64,1.16,1.16,0,0,1,1,0,1.39,1.39,0,0,1,.76,1.17,2.88,2.88,0,0,1-.15,1.18,7.39,7.39,0,0,1-.39.92,7,7,0,0,1-.44.75,7.57,7.57,0,0,1-.93,1.12,6.59,6.59,0,0,1-1.77,1.26L44,138.88a5.89,5.89,0,0,0,2-1.45,9.53,9.53,0,0,0,1.22-1.6l1.7.85.84-1.66L48,134.16a6,6,0,0,0,.42-1.86,3.92,3.92,0,0,0-.45-2.16,3.26,3.26,0,0,0-1.45-1.37A2.88,2.88,0,0,0,44.48,128.46Z"/><path class="cls-7" d="M93.15,70.6A26.4,26.4,0,1,0,66.76,97c.47,0,.93,0,1.4,0l10.7,11.21V94.06A26.38,26.38,0,0,0,93.15,70.6Z"/><polygon class="cls-2" points="85.71 61.88 63.33 84.26 47.8 68.72 52.73 63.79 63.33 74.4 80.78 56.95 85.71 61.88"/></g></g></svg>