<svg xmlns="http://www.w3.org/2000/svg" xmlns:xlink="http://www.w3.org/1999/xlink" viewBox="0 0 191.94 373.25"><defs><style>.cls-1{fill:none;}.cls-2{fill:#fff;}.cls-3{fill:#686de0;}.cls-4{fill:#5663af;}.cls-5{opacity:0.2;}.cls-6{fill:#30336b;}.cls-7{fill:#f52293;}.cls-8{opacity:0.4;}.cls-9{fill:#7ed6df;}.cls-10{clip-path:url(#clip-path);}.cls-11{clip-path:url(#clip-path-2);}.cls-12{fill:#f28bc5;}.cls-13{fill:#ffabab;}.cls-14{fill:#22a6b3;}.cls-15{fill:#ba7f17;}.cls-16{clip-path:url(#clip-path-3);}.cls-17{fill:#010101;}.cls-18{fill:#020202;}.cls-19{fill:#030303;}.cls-20{fill:#040404;}.cls-21{fill:#050505;}.cls-22{fill:#060606;}.cls-23{fill:#070707;}.cls-24{fill:#080808;}.cls-25{fill:#090909;}.cls-26{fill:#0a0a0a;}.cls-27{fill:#0b0b0b;}.cls-28{fill:#0c0c0c;}.cls-29{fill:#0d0d0d;}.cls-30{fill:#0f0f0e;}.cls-31{fill:#10100e;}.cls-32{fill:#11110f;}.cls-33{fill:#121210;}.cls-34{fill:#131311;}.cls-35{fill:#141412;}.cls-36{fill:#151513;}.cls-37{fill:#161614;}.cls-38{fill:#171715;}.cls-39{fill:#181816;}.cls-40{fill:#191917;}.cls-41{fill:#1a1a18;}.cls-42{fill:#1b1b19;}.cls-43{fill:#1c1c1a;}.cls-44{fill:#1d1d1b;}.cls-45{fill:#3c427f;}.cls-46{fill:#f6e58d;}.cls-47{clip-path:url(#clip-path-4);}.cls-48{fill:#7dd5df;}.cls-49{fill:#7cd5de;}.cls-50{fill:#7bd4de;}.cls-51{fill:#7ad4dd;}.cls-52{fill:#79d3dd;}.cls-53{fill:#78d3dc;}.cls-54{fill:#77d2dc;}.cls-55{fill:#76d2db;}.cls-56{fill:#75d1db;}.cls-57{fill:#74d1da;}.cls-58{fill:#73d0da;}.cls-59{fill:#72d0d9;}.cls-60{fill:#71cfd9;}.cls-61{fill:#70cfd8;}.cls-62{fill:#6fced8;}.cls-63{fill:#6eced7;}.cls-64{fill:#6dcdd7;}.cls-65{fill:#6ccdd6;}.cls-66{fill:#6bccd6;}.cls-67{fill:#6acbd5;}.cls-68{fill:#69cbd5;}.cls-69{fill:#68cad4;}.cls-70{fill:#67cad4;}.cls-71{fill:#66c9d3;}.cls-72{fill:#65c9d3;}.cls-73{fill:#64c8d2;}.cls-74{fill:#63c8d2;}.cls-75{fill:#62c7d1;}.cls-76{fill:#61c7d1;}.cls-77{fill:#60c6d0;}.cls-78{fill:#5fc6d0;}.cls-79{fill:#5ec5d0;}.cls-80{fill:#5dc5cf;}.cls-81{fill:#5cc4cf;}.cls-82{fill:#5bc4ce;}.cls-83{fill:#5ac3ce;}.cls-84{fill:#59c2cd;}.cls-85{fill:#58c2cd;}.cls-86{fill:#57c1cc;}.cls-87{fill:#56c1cc;}.cls-88{fill:#55c0cb;}.cls-89{fill:#54c0cb;}.cls-90{fill:#53bfca;}.cls-91{fill:#52bfca;}.cls-92{fill:#51bec9;}.cls-93{fill:#4fbec9;}.cls-94{fill:#4ebdc8;}.cls-95{fill:#4dbdc8;}.cls-96{fill:#4cbcc7;}.cls-97{fill:#4bbcc7;}.cls-98{fill:#4abbc6;}.cls-99{fill:#49bbc6;}.cls-100{fill:#48bac5;}.cls-101{fill:#47bac5;}.cls-102{fill:#46b9c4;}.cls-103{fill:#45b8c4;}.cls-104{fill:#44b8c3;}.cls-105{fill:#43b7c3;}.cls-106{fill:#42b7c2;}.cls-107{fill:#41b6c2;}.cls-108{fill:#40b6c2;}.cls-109{fill:#3fb5c1;}.cls-110{fill:#3eb5c1;}.cls-111{fill:#3db4c0;}.cls-112{fill:#3cb4c0;}.cls-113{fill:#3bb3bf;}.cls-114{fill:#3ab3bf;}.cls-115{fill:#39b2be;}.cls-116{fill:#38b2be;}.cls-117{fill:#37b1bd;}.cls-118{fill:#36b1bd;}.cls-119{fill:#35b0bc;}.cls-120{fill:#34afbc;}.cls-121{fill:#33afbb;}.cls-122{fill:#32aebb;}.cls-123{fill:#31aeba;}.cls-124{fill:#30adba;}.cls-125{fill:#2fadb9;}.cls-126{fill:#2eacb9;}.cls-127{fill:#2dacb8;}.cls-128{fill:#2cabb8;}.cls-129{fill:#2babb7;}.cls-130{fill:#2aaab7;}.cls-131{fill:#29aab6;}.cls-132{fill:#28a9b6;}.cls-133{fill:#27a9b5;}.cls-134{fill:#26a8b5;}.cls-135{fill:#25a8b4;}.cls-136{fill:#24a7b4;}.cls-137{fill:#23a7b3;}.cls-138{clip-path:url(#clip-path-5);}.cls-139{fill:#70ced8;}.cls-140{fill:#6ecdd7;}.cls-141{fill:#6cccd6;}.cls-142{fill:#68cbd5;}.cls-143{fill:#66cad4;}.cls-144{fill:#64c9d3;}.cls-145{fill:#62c8d2;}.cls-146{fill:#60c6d1;}.cls-147{fill:#59c3cd;}.cls-148{fill:#57c2cc;}.cls-149{fill:#55c1cb;}.cls-150{fill:#53bfcb;}.cls-151{fill:#51beca;}.cls-152{fill:#50bec9;}.cls-153{fill:#4fbdc9;}.cls-154{fill:#4dbcc8;}.cls-155{fill:#4bbbc7;}.cls-156{fill:#49bac6;}.cls-157{fill:#47b9c5;}.cls-158{fill:#42b6c2;}.cls-159{fill:#40b5c1;}.cls-160{fill:#3eb4c0;}.cls-161{fill:#3cb3bf;}.cls-162{fill:#34b0bc;}</style><clipPath id="clip-path"><path class="cls-1" d="M151.63,230.84a17.18,17.18,0,1,1,17.19-17.18A17.2,17.2,0,0,1,151.63,230.84Zm0-31.68a14.5,14.5,0,1,0,14.5,14.5A14.52,14.52,0,0,0,151.63,199.16Z"/></clipPath><clipPath id="clip-path-2"><path class="cls-1" d="M92.49,104.6a17.18,17.18,0,1,1,17.18-17.18A17.2,17.2,0,0,1,92.49,104.6Zm0-31.68A14.5,14.5,0,1,0,107,87.42,14.53,14.53,0,0,0,92.49,72.92Z"/></clipPath><clipPath id="clip-path-3"><path class="cls-1" d="M95.46,97.29s-2.25,6,2.33,13l9.63-3.81-1.67-10Z"/></clipPath><clipPath id="clip-path-4"><path class="cls-1" d="M160.49,202.76H58.7c-.21-1.2-.37-2.4-.49-3.6H92.6s4.49-32.41,15.19-32.41h24.4C157.42,166.75,160.49,202.76,160.49,202.76Z"/></clipPath><clipPath id="clip-path-5"><path class="cls-1" d="M114.56,166.75h-8.83a2.06,2.06,0,0,1-2.07-2.07h0a5.35,5.35,0,0,1,5.35-5.35h8.38c9.13,0,5.26-3,11.63-3h5.16a2.46,2.46,0,0,1,2.46,2.46h0a8,8,0,0,1-8,8Z"/></clipPath></defs><g id="Layer_2" data-name="Layer 2"><g id="OBJECTS"><rect class="cls-2" width="191.94" height="373.25" rx="19.01"/><path class="cls-3" d="M63.44,265.36h3.78v1.3H64.87v2.53h1.85v1.3H64.87v4H63.44Z"/><path class="cls-3" d="M69.25,265.36h1.94l1.48,9.1H71.24L71,272.65v0H69.35l-.26,1.78H67.77Zm1.56,6.08-.64-4.5h0l-.63,4.5Z"/><path class="cls-3" d="M74.25,274a2.49,2.49,0,0,1-.53-1.7v-.52h1.35v.62c0,.59.25.89.75.89a.68.68,0,0,0,.55-.22,1.05,1.05,0,0,0,.19-.69,2,2,0,0,0-.26-1,5.09,5.09,0,0,0-1-1.05,5.63,5.63,0,0,1-1.23-1.41,2.9,2.9,0,0,1-.35-1.42,2.38,2.38,0,0,1,.54-1.67,2.09,2.09,0,0,1,1.59-.59,2,2,0,0,1,1.55.59,2.47,2.47,0,0,1,.53,1.7v.37H76.61v-.46a1.08,1.08,0,0,0-.18-.69.69.69,0,0,0-.54-.21c-.47,0-.71.29-.71.87a1.75,1.75,0,0,0,.26.92,4.84,4.84,0,0,0,1,1,5.36,5.36,0,0,1,1.24,1.42,3.18,3.18,0,0,1,.34,1.49,2.44,2.44,0,0,1-.56,1.72,2.42,2.42,0,0,1-3.18,0Z"/><path class="cls-3" d="M80.57,266.66H79.08v-1.3H83.5v1.3H82v7.8H80.57Z"/><path class="cls-3" d="M87.57,265.36h2.18a2.1,2.1,0,0,1,1.6.57,2.35,2.35,0,0,1,.53,1.68v4.6a2.35,2.35,0,0,1-.53,1.68,2.1,2.1,0,0,1-1.6.57H87.57Zm2.15,7.8a.67.67,0,0,0,.54-.21,1,1,0,0,0,.19-.68v-4.73a1,1,0,0,0-.19-.67.67.67,0,0,0-.54-.21H89v6.5Z"/><path class="cls-3" d="M93.5,265.36h3.9v1.3H94.92v2.4h2v1.3h-2v2.8H97.4v1.3H93.5Z"/><path class="cls-3" d="M98.86,265.36h1.43v7.8h2.36v1.3H98.86Z"/><path class="cls-3" d="M104,265.36h1.43v9.1H104Z"/><path class="cls-3" d="M106.75,265.36h1.45l.93,7.06h0l.94-7.06h1.31l-1.38,9.1h-1.9Z"/><path class="cls-3" d="M112.75,265.36h3.9v1.3h-2.47v2.4h2v1.3h-2v2.8h2.47v1.3h-3.9Z"/><path class="cls-3" d="M118.12,265.36h2.11a2.22,2.22,0,0,1,1.62.51,2.16,2.16,0,0,1,.5,1.58V268c0,.95-.31,1.54-.93,1.79v0a1.11,1.11,0,0,1,.73.64,3.07,3.07,0,0,1,.22,1.28v1.6c0,.26,0,.47,0,.63a1.72,1.72,0,0,0,.13.48h-1.45A2.62,2.62,0,0,1,121,274c0-.13,0-.36,0-.7v-1.66a1.42,1.42,0,0,0-.2-.87.85.85,0,0,0-.7-.25h-.49v3.9h-1.43Zm1.95,3.9a.88.88,0,0,0,.64-.22,1.07,1.07,0,0,0,.21-.74v-.71a1.14,1.14,0,0,0-.17-.71.66.66,0,0,0-.55-.22h-.65v2.6Z"/><path class="cls-3" d="M125.11,270.58l-1.73-5.22h1.52l1,3.34h0l1-3.34h1.39l-1.73,5.22v3.88h-1.43Z"/><path class="cls-4" d="M32.13,287.55h.66v3.6h1.09v.6H32.13Z"/><path class="cls-4" d="M34.68,291.54a1.13,1.13,0,0,1-.26-.78v-2.21a1.1,1.1,0,0,1,.26-.78,1.13,1.13,0,0,1,1.49,0,1.1,1.1,0,0,1,.26.78v2.21a1.13,1.13,0,0,1-.26.78,1.16,1.16,0,0,1-1.49,0Zm1.09-.74v-2.29c0-.28-.12-.42-.34-.42s-.35.14-.35.42v2.29c0,.28.12.41.35.41S35.77,291.08,35.77,290.8Z"/><path class="cls-4" d="M37.17,287.55h1a.85.85,0,0,1,1,1v.26a.81.81,0,0,1-.43.83h0a.52.52,0,0,1,.34.29,1.65,1.65,0,0,1,.09.6v.73a2.36,2.36,0,0,0,0,.3.42.42,0,0,0,.06.21h-.68a.65.65,0,0,1,0-.19,2.1,2.1,0,0,1,0-.32v-.77a.65.65,0,0,0-.09-.4.38.38,0,0,0-.32-.12h-.23v1.8h-.66Zm.9,1.8a.4.4,0,0,0,.3-.1.51.51,0,0,0,.1-.34v-.32a.53.53,0,0,0-.08-.33.32.32,0,0,0-.26-.11h-.3v1.2Z"/><path class="cls-4" d="M39.89,287.55h1.8v.6H40.55v1.11h.91v.6h-.91v1.29h1.14v.6h-1.8Z"/><path class="cls-4" d="M42.37,287.55h.94l.42,3h0l.42-3h.94v4.2h-.62v-3.18h0L44,291.75h-.55L43,288.57h0v3.18h-.57Z"/><path class="cls-4" d="M48.53,287.55h.66v4.2h-.66Z"/><path class="cls-4" d="M50,287.55h1a1,1,0,0,1,.74.27,1.05,1.05,0,0,1,.25.77V289a1.07,1.07,0,0,1-.25.77A.94.94,0,0,1,51,290h-.31v1.71H50Zm1,1.89a.33.33,0,0,0,.25-.09.47.47,0,0,0,.08-.3v-.5a.5.5,0,0,0-.08-.31.33.33,0,0,0-.25-.09h-.31v1.29Z"/><path class="cls-4" d="M52.75,291.54a1.14,1.14,0,0,1-.24-.78v-.24h.62v.29c0,.27.12.4.34.4a.34.34,0,0,0,.26-.09.5.5,0,0,0,.09-.33.88.88,0,0,0-.12-.46,2.09,2.09,0,0,0-.45-.48,2.83,2.83,0,0,1-.57-.65,1.34,1.34,0,0,1-.16-.66,1.08,1.08,0,0,1,.25-.77,1,1,0,0,1,.73-.28.92.92,0,0,1,.72.28,1.14,1.14,0,0,1,.24.78v.17h-.62v-.21a.54.54,0,0,0-.08-.32.34.34,0,0,0-.25-.1c-.22,0-.33.14-.33.41a.79.79,0,0,0,.12.42,2.31,2.31,0,0,0,.45.48,2.29,2.29,0,0,1,.57.66,1.46,1.46,0,0,1,.16.69,1.14,1.14,0,0,1-.26.79,1,1,0,0,1-.74.27A1,1,0,0,1,52.75,291.54Z"/><path class="cls-4" d="M55.38,291.54a1.09,1.09,0,0,1-.25-.78v-3.21h.66v3.26a.46.46,0,0,0,.09.31.33.33,0,0,0,.25.09.35.35,0,0,0,.25-.09.52.52,0,0,0,.08-.31v-3.26h.64v3.21a1.14,1.14,0,0,1-.25.78,1,1,0,0,1-.74.27A1,1,0,0,1,55.38,291.54Z"/><path class="cls-4" d="M57.87,287.55h.94l.42,3h0l.42-3h.94v4.2H60v-3.18h0l-.48,3.18h-.56l-.48-3.18h0v3.18h-.57Z"/><path class="cls-4" d="M64,287.55h1a1,1,0,0,1,.74.27,1.09,1.09,0,0,1,.24.77v2.13a1.11,1.11,0,0,1-.24.77,1,1,0,0,1-.74.26H64Zm1,3.6a.31.31,0,0,0,.24-.09.46.46,0,0,0,.09-.31v-2.19a.44.44,0,0,0-.09-.31.31.31,0,0,0-.24-.1h-.34v3Z"/><path class="cls-4" d="M67,291.54a1.08,1.08,0,0,1-.26-.78v-2.21a1.05,1.05,0,0,1,.26-.78,1.12,1.12,0,0,1,1.48,0,1.05,1.05,0,0,1,.26.78v2.21a1.08,1.08,0,0,1-.26.78,1.15,1.15,0,0,1-1.48,0Zm1.08-.74v-2.29c0-.28-.11-.42-.34-.42s-.34.14-.34.42v2.29c0,.28.11.41.34.41S68.06,291.08,68.06,290.8Z"/><path class="cls-4" d="M69.47,287.55h.66v3.6h1.08v.6H69.47Z"/><path class="cls-4" d="M72,291.54a1.08,1.08,0,0,1-.26-.78v-2.21a1.05,1.05,0,0,1,.26-.78,1.12,1.12,0,0,1,1.48,0,1.05,1.05,0,0,1,.26.78v2.21a1.08,1.08,0,0,1-.26.78,1.15,1.15,0,0,1-1.48,0Zm1.08-.74v-2.29c0-.28-.11-.42-.34-.42s-.34.14-.34.42v2.29c0,.28.11.41.34.41S73.1,291.08,73.1,290.8Z"/><path class="cls-4" d="M74.51,287.55h1a.84.84,0,0,1,1,1v.26a.8.8,0,0,1-.43.83h0a.52.52,0,0,1,.34.29,1.63,1.63,0,0,1,.1.6v.73a2.63,2.63,0,0,0,0,.3.83.83,0,0,0,.06.21h-.67a.67.67,0,0,1-.05-.19,2.55,2.55,0,0,1,0-.32v-.77a.58.58,0,0,0-.1-.4.37.37,0,0,0-.32-.12h-.22v1.8h-.66Zm.9,1.8a.37.37,0,0,0,.29-.1.46.46,0,0,0,.1-.34v-.32a.53.53,0,0,0-.08-.33.3.3,0,0,0-.25-.11h-.3v1.2Z"/><path class="cls-4" d="M80,291.54a1.14,1.14,0,0,1-.25-.78v-.24h.63v.29c0,.27.11.4.34.4a.36.36,0,0,0,.26-.09.57.57,0,0,0,.08-.33.88.88,0,0,0-.12-.46,2.24,2.24,0,0,0-.44-.48,2.83,2.83,0,0,1-.57-.65,1.34,1.34,0,0,1-.16-.66,1.08,1.08,0,0,1,.25-.77,1,1,0,0,1,.73-.28.92.92,0,0,1,.72.28,1.14,1.14,0,0,1,.24.78v.17h-.62v-.21a.47.47,0,0,0-.09-.32.31.31,0,0,0-.24-.1c-.22,0-.33.14-.33.41a.79.79,0,0,0,.12.42,2.31,2.31,0,0,0,.45.48,2.65,2.65,0,0,1,.57.66,1.47,1.47,0,0,1,.15.69,1.14,1.14,0,0,1-.25.79,1,1,0,0,1-.74.27A.94.94,0,0,1,80,291.54Z"/><path class="cls-4" d="M82.39,287.55h.66v4.2h-.66Z"/><path class="cls-4" d="M84.36,288.15h-.69v-.6h2v.6H85v3.6h-.66Z"/><path class="cls-4" d="M89.47,287.55h.9l.68,4.2h-.66l-.12-.83h-.75l-.12.82h-.61Zm.72,2.81-.29-2.07h0l-.29,2.07Z"/><path class="cls-4" d="M91.67,287.55h.94l.42,3h0l.42-3h.94v4.2h-.62v-3.18h0l-.48,3.18h-.55l-.49-3.18h0v3.18h-.57Z"/><path class="cls-4" d="M95.2,287.55H97v.6H95.86v1.11h.9v.6h-.9v1.29H97v.6H95.2Z"/><path class="cls-4" d="M98.19,288.15H97.5v-.6h2v.6h-.69v3.6h-.66Z"/><path class="cls-4" d="M99.93,291.75h-.21v-.63h.63v.57l-.33.78h-.3Z"/><path class="cls-4" d="M104,291.54a1.06,1.06,0,0,1-.25-.76v-2.25a1.08,1.08,0,0,1,.25-.77.94.94,0,0,1,.72-.27.91.91,0,0,1,.72.27,1.08,1.08,0,0,1,.25.77V289h-.62v-.49q0-.39-.33-.39t-.33.39v2.35c0,.26.11.38.33.38s.33-.12.33-.38v-.64h.62v.59a1.06,1.06,0,0,1-.25.76.91.91,0,0,1-.72.27A.94.94,0,0,1,104,291.54Z"/><path class="cls-4" d="M106.6,291.54a1.13,1.13,0,0,1-.26-.78v-2.21a1.1,1.1,0,0,1,.26-.78,1.13,1.13,0,0,1,1.49,0,1.1,1.1,0,0,1,.26.78v2.21a1.13,1.13,0,0,1-.26.78,1.16,1.16,0,0,1-1.49,0Zm1.09-.74v-2.29c0-.28-.12-.42-.34-.42s-.35.14-.35.42v2.29c0,.28.12.41.35.41S107.69,291.08,107.69,290.8Z"/><path class="cls-4" d="M109.09,287.55h.83l.64,2.52h0v-2.52h.59v4.2h-.68l-.79-3.06h0v3.06h-.59Z"/><path class="cls-4" d="M112.09,291.54a1.09,1.09,0,0,1-.25-.78v-.24h.62v.29c0,.27.12.4.35.4a.33.33,0,0,0,.25-.09.5.5,0,0,0,.09-.33.88.88,0,0,0-.12-.46,2.09,2.09,0,0,0-.45-.48,2.83,2.83,0,0,1-.57-.65,1.46,1.46,0,0,1-.16-.66,1.13,1.13,0,0,1,.25-.77,1,1,0,0,1,.74-.28.91.91,0,0,1,.71.28,1.14,1.14,0,0,1,.25.78v.17h-.63v-.21a.54.54,0,0,0-.08-.32.34.34,0,0,0-.25-.1c-.22,0-.33.14-.33.41a.79.79,0,0,0,.12.42,3,3,0,0,0,.45.48,2.29,2.29,0,0,1,.57.66,1.35,1.35,0,0,1,.16.69,1.14,1.14,0,0,1-.26.79,1,1,0,0,1-.74.27A.91.91,0,0,1,112.09,291.54Z"/><path class="cls-4" d="M114.49,287.55h1.8v.6h-1.14v1.11h.9v.6h-.9v1.29h1.14v.6h-1.8Z"/><path class="cls-4" d="M117.17,291.54a1.06,1.06,0,0,1-.25-.76v-2.25a1.08,1.08,0,0,1,.25-.77,1.11,1.11,0,0,1,1.45,0,1.13,1.13,0,0,1,.25.77V289h-.63v-.49q0-.39-.33-.39t-.33.39v2.35c0,.26.11.38.33.38s.33-.12.33-.38v-.64h.63v.59a1.1,1.1,0,0,1-.25.76,1.11,1.11,0,0,1-1.45,0Z"/><path class="cls-4" d="M120.08,288.15h-.69v-.6h2v.6h-.69v3.6h-.66Z"/><path class="cls-4" d="M122.05,287.55h1.79v.6h-1.13v1.11h.9v.6h-.9v1.29h1.13v.6h-1.79Z"/><path class="cls-4" d="M125,288.15h-.69v-.6h2v.6h-.69v3.6H125Z"/><path class="cls-4" d="M127.24,291.54a1.1,1.1,0,0,1-.26-.78v-3.21h.66v3.26a.46.46,0,0,0,.09.31.39.39,0,0,0,.5,0,.46.46,0,0,0,.09-.31v-3.26H129v3.21a1.09,1.09,0,0,1-.25.78,1,1,0,0,1-.73.27A.94.94,0,0,1,127.24,291.54Z"/><path class="cls-4" d="M129.72,287.55h1.8v.6h-1.14v1.11h.91v.6h-.91v1.29h1.14v.6h-1.8Z"/><path class="cls-4" d="M132.2,287.55h1a1,1,0,0,1,.75.24,1,1,0,0,1,.23.73v.26a.8.8,0,0,1-.43.83h0a.52.52,0,0,1,.34.29,1.44,1.44,0,0,1,.1.6v.73a2.63,2.63,0,0,0,0,.3.83.83,0,0,0,.06.21h-.67a1.33,1.33,0,0,1-.05-.19,2.55,2.55,0,0,1,0-.32v-.77a.65.65,0,0,0-.09-.4.39.39,0,0,0-.32-.12h-.23v1.8h-.66Zm.9,1.8a.37.37,0,0,0,.29-.1.46.46,0,0,0,.1-.34v-.32a.47.47,0,0,0-.08-.33.3.3,0,0,0-.25-.11h-.3v1.2Z"/><path class="cls-4" d="M138.06,287.55H139l.69,4.2H139l-.12-.83h-.75l-.12.82h-.61Zm.72,2.81-.29-2.07h0l-.28,2.07Z"/><path class="cls-4" d="M140.26,287.55h1a1,1,0,0,1,.74.27,1.05,1.05,0,0,1,.25.77v2.13a1.07,1.07,0,0,1-.25.77.94.94,0,0,1-.74.26h-1Zm1,3.6a.33.33,0,0,0,.25-.09.46.46,0,0,0,.09-.31v-2.19a.44.44,0,0,0-.09-.31.34.34,0,0,0-.25-.1h-.33v3Z"/><path class="cls-4" d="M143,287.55h.66v4.2H143Z"/><path class="cls-4" d="M144.44,287.55h1a.94.94,0,0,1,.73.27,1.05,1.05,0,0,1,.25.77V289a1.07,1.07,0,0,1-.25.77.93.93,0,0,1-.73.26h-.32v1.71h-.66Zm1,1.89a.32.32,0,0,0,.24-.09.47.47,0,0,0,.08-.3v-.5a.5.5,0,0,0-.08-.31.32.32,0,0,0-.24-.09h-.32v1.29Z"/><path class="cls-4" d="M147.06,287.55h.66v4.2h-.66Z"/><path class="cls-4" d="M148.64,291.54a1.14,1.14,0,0,1-.24-.78v-.24H149v.29c0,.27.12.4.34.4a.34.34,0,0,0,.26-.09.5.5,0,0,0,.09-.33.88.88,0,0,0-.12-.46,2.34,2.34,0,0,0-.45-.48,2.83,2.83,0,0,1-.57-.65,1.34,1.34,0,0,1-.16-.66,1.08,1.08,0,0,1,.25-.77,1,1,0,0,1,.73-.28.92.92,0,0,1,.72.28,1.14,1.14,0,0,1,.24.78v.17h-.62v-.21a.54.54,0,0,0-.08-.32.34.34,0,0,0-.25-.1c-.22,0-.33.14-.33.41a.79.79,0,0,0,.12.42,2.31,2.31,0,0,0,.45.48,2.29,2.29,0,0,1,.57.66,1.46,1.46,0,0,1,.16.69,1.14,1.14,0,0,1-.26.79,1,1,0,0,1-.74.27A1,1,0,0,1,148.64,291.54Z"/><path class="cls-4" d="M151.25,291.54a1.06,1.06,0,0,1-.25-.76v-2.25a1.08,1.08,0,0,1,.25-.77,1.11,1.11,0,0,1,1.45,0,1.13,1.13,0,0,1,.25.77V289h-.63v-.49q0-.39-.33-.39t-.33.39v2.35c0,.26.11.38.33.38s.33-.12.33-.38v-.64H153v.59a1.1,1.1,0,0,1-.25.76,1.11,1.11,0,0,1-1.45,0Z"/><path class="cls-4" d="M153.64,287.55h.66v4.2h-.66Z"/><path class="cls-4" d="M155.09,287.55h.83l.64,2.52h0v-2.52h.58v4.2h-.67l-.8-3.06h0v3.06h-.59Z"/><path class="cls-4" d="M158.16,291.54a1.09,1.09,0,0,1-.25-.78v-2.21a1.09,1.09,0,0,1,.25-.78,1,1,0,0,1,.73-.28.94.94,0,0,1,.73.28,1.1,1.1,0,0,1,.26.78v.36h-.63v-.4c0-.28-.11-.42-.34-.42s-.34.14-.34.42v2.3c0,.27.11.4.34.4s.34-.13.34-.4V290h-.33v-.6h1v1.38a1.1,1.1,0,0,1-.26.78.94.94,0,0,1-.73.27A1,1,0,0,1,158.16,291.54Z"/><path class="cls-4" d="M42.88,294.75h1.8v.6H43.54v1.11h.9v.6h-.9v1.29h1.14v.6h-1.8Z"/><path class="cls-4" d="M45.36,294.75H46v3.6H47.1v.6H45.36Z"/><path class="cls-4" d="M47.72,294.75h.66V299h-.66Z"/><path class="cls-4" d="M49.69,295.35H49v-.6h2v.6h-.69V299h-.66Z"/><path class="cls-4" d="M51.43,299h-.21v-.63h.63v.57l-.33.78h-.3Z"/><path class="cls-4" d="M54,298.74a1.09,1.09,0,0,1-.25-.78v-.24h.63V298c0,.27.11.4.34.4a.33.33,0,0,0,.25-.09.5.5,0,0,0,.09-.33.88.88,0,0,0-.12-.46,2.24,2.24,0,0,0-.44-.48,2.41,2.41,0,0,1-.57-.65,1.35,1.35,0,0,1-.17-.66,1.09,1.09,0,0,1,.26-.77.94.94,0,0,1,.73-.28.91.91,0,0,1,.71.28,1.09,1.09,0,0,1,.25.78v.17h-.63v-.21a.47.47,0,0,0-.08-.32.34.34,0,0,0-.25-.1c-.22,0-.33.14-.33.41a.72.72,0,0,0,.13.42,2.51,2.51,0,0,0,.44.48,2.29,2.29,0,0,1,.57.66,1.35,1.35,0,0,1,.16.69,1.14,1.14,0,0,1-.26.79,1,1,0,0,1-.74.27A.91.91,0,0,1,54,298.74Z"/><path class="cls-4" d="M56.44,294.75h1.8v.6H57.1v1.11H58v.6h-.9v1.29h1.14v.6h-1.8Z"/><path class="cls-4" d="M58.92,294.75h1a1,1,0,0,1,.74.27,1.05,1.05,0,0,1,.25.77v2.13a1.07,1.07,0,0,1-.25.77.94.94,0,0,1-.74.26h-1Zm1,3.6a.33.33,0,0,0,.25-.09.46.46,0,0,0,.09-.31v-2.19a.44.44,0,0,0-.09-.31.34.34,0,0,0-.25-.1h-.33v3Z"/><path class="cls-4" d="M62.91,294.75h1a1,1,0,0,1,.74.27,1.09,1.09,0,0,1,.24.77v2.13a1.11,1.11,0,0,1-.24.77,1,1,0,0,1-.74.26h-1Zm1,3.6a.33.33,0,0,0,.25-.09.52.52,0,0,0,.08-.31v-2.19a.5.5,0,0,0-.08-.31.34.34,0,0,0-.25-.1h-.34v3Z"/><path class="cls-4" d="M65.65,294.75h.66V299h-.66Z"/><path class="cls-4" d="M67.61,294.75h.89l.69,4.2h-.66l-.12-.83h-.75l-.12.82h-.62Zm.72,2.81L68,295.49h0l-.28,2.07Z"/><path class="cls-4" d="M69.8,294.75h1l.42,3h0l.42-3h.94V299h-.62v-3.18h0L71.42,299h-.55l-.48-3.18h0V299H69.8Z"/><path class="cls-4" d="M74.59,294.75h.83l.64,2.52h0v-2.52h.58V299H76l-.8-3.06h0V299h-.59Z"/><path class="cls-4" d="M77.67,298.74a1.08,1.08,0,0,1-.26-.78v-2.21a1.05,1.05,0,0,1,.26-.78,1.12,1.12,0,0,1,1.48,0,1.1,1.1,0,0,1,.26.78V298a1.13,1.13,0,0,1-.26.78,1.15,1.15,0,0,1-1.48,0Zm1.08-.74v-2.29c0-.28-.11-.42-.34-.42s-.34.14-.34.42V298c0,.28.11.41.34.41S78.75,298.28,78.75,298Z"/><path class="cls-4" d="M80.16,294.75H81l.65,2.52h0v-2.52h.58V299h-.67l-.8-3.06h0V299h-.58Z"/><path class="cls-4" d="M83.25,298.74A1.1,1.1,0,0,1,83,298v-3.21h.66V298a.46.46,0,0,0,.09.31.39.39,0,0,0,.5,0,.46.46,0,0,0,.09-.31v-3.26H85V298a1.09,1.09,0,0,1-.25.78A1,1,0,0,1,84,299,.94.94,0,0,1,83.25,298.74Z"/><path class="cls-4" d="M85.73,294.75h.94l.42,3h0l.42-3h.94V299h-.62v-3.18h0L87.35,299H86.8l-.48-3.18h0V299h-.57Z"/><path class="cls-4" d="M89.26,294.75h.94l.42,3h0l.42-3H92V299h-.62v-3.18h0L90.88,299h-.55l-.49-3.18h0V299h-.57Z"/><path class="cls-4" d="M93.39,297.17l-.8-2.42h.71l.45,1.55h0l.45-1.55h.64l-.8,2.42V299h-.66Z"/><path class="cls-4" d="M96.71,294.75h.83l.64,2.52h0v-2.52h.59V299H98.1l-.79-3.06h0V299h-.59Z"/><path class="cls-4" d="M99.57,294.75h.66V299h-.66Z"/><path class="cls-4" d="M101,294.75h1a.85.85,0,0,1,1,1v.17a1.19,1.19,0,0,1-.11.53.65.65,0,0,1-.32.29h0c.33.11.49.41.49.88V298a.88.88,0,0,1-1,1h-1Zm.92,1.71a.4.4,0,0,0,.3-.1.51.51,0,0,0,.1-.34v-.23a.53.53,0,0,0-.08-.33.32.32,0,0,0-.26-.11h-.32v1.11Zm.12,1.89a.34.34,0,0,0,.26-.09.46.46,0,0,0,.08-.32v-.37a.55.55,0,0,0-.1-.39.38.38,0,0,0-.32-.12h-.3v1.29Z"/><path class="cls-4" d="M103.75,294.75h.66v1.71h.7v-1.71h.66V299h-.66v-1.89h-.7V299h-.66Z"/><path class="cls-4" d="M107.83,294.75h1.8v.6h-1.14v1.11h.9v.6h-.9v1.29h1.14v.6h-1.8Z"/><path class="cls-4" d="M110.53,298.74a1.09,1.09,0,0,1-.25-.78v-3.21h.66V298a.46.46,0,0,0,.09.31.33.33,0,0,0,.25.09.35.35,0,0,0,.25-.09.52.52,0,0,0,.08-.31v-3.26h.64V298a1.14,1.14,0,0,1-.25.78,1,1,0,0,1-.74.27A1,1,0,0,1,110.53,298.74Z"/><path class="cls-4" d="M113,294.75h.66V299H113Z"/><path class="cls-4" d="M114.6,298.74a1.14,1.14,0,0,1-.25-.78v-.24H115V298c0,.27.11.4.34.4a.36.36,0,0,0,.26-.09.57.57,0,0,0,.08-.33.88.88,0,0,0-.12-.46,2.24,2.24,0,0,0-.44-.48,2.83,2.83,0,0,1-.57-.65,1.34,1.34,0,0,1-.16-.66,1.08,1.08,0,0,1,.25-.77,1,1,0,0,1,.73-.28.92.92,0,0,1,.72.28,1.14,1.14,0,0,1,.24.78v.17h-.62v-.21a.47.47,0,0,0-.09-.32.31.31,0,0,0-.24-.1c-.22,0-.33.14-.33.41a.79.79,0,0,0,.12.42,2.31,2.31,0,0,0,.45.48,2.65,2.65,0,0,1,.57.66,1.47,1.47,0,0,1,.15.69,1.14,1.14,0,0,1-.25.79,1,1,0,0,1-.74.27A.94.94,0,0,1,114.6,298.74Z"/><path class="cls-4" d="M117,294.75h.94l.42,3h0l.42-3h.95V299h-.63v-3.18h0l-.48,3.18h-.55l-.48-3.18h0V299H117Z"/><path class="cls-4" d="M120.74,298.74a1.13,1.13,0,0,1-.26-.78v-2.21a1.1,1.1,0,0,1,.26-.78,1,1,0,0,1,.74-.28,1,1,0,0,1,.75.28,1.09,1.09,0,0,1,.25.78V298a1.13,1.13,0,0,1-.25.78,1,1,0,0,1-.75.27A1,1,0,0,1,120.74,298.74Zm1.08-.74v-2.29c0-.28-.11-.42-.34-.42s-.34.14-.34.42V298c0,.28.11.41.34.41S121.82,298.28,121.82,298Z"/><path class="cls-4" d="M123.23,294.75h1a.94.94,0,0,1,.73.27,1.05,1.05,0,0,1,.25.77v2.13a1.07,1.07,0,0,1-.25.77.93.93,0,0,1-.73.26h-1Zm1,3.6a.32.32,0,0,0,.25-.09.46.46,0,0,0,.09-.31v-2.19a.44.44,0,0,0-.09-.31.32.32,0,0,0-.25-.1h-.33v3Z"/><path class="cls-4" d="M127.74,295.35h-.69v-.6h2v.6h-.69V299h-.66Z"/><path class="cls-4" d="M129.71,294.75h.66V299h-.66Z"/><path class="cls-4" d="M131.16,294.75H132l.64,2.52h0v-2.52h.59V299h-.68l-.79-3.06h0V299h-.59Z"/><path class="cls-4" d="M134.23,298.74A1.06,1.06,0,0,1,134,298v-2.25a1.08,1.08,0,0,1,.25-.77.94.94,0,0,1,.72-.27.91.91,0,0,1,.72.27,1.08,1.08,0,0,1,.25.77v.44h-.62v-.49q0-.39-.33-.39t-.33.39V298c0,.26.11.38.33.38s.33-.12.33-.38v-.64h.62V298a1.06,1.06,0,0,1-.25.76.91.91,0,0,1-.72.27A.94.94,0,0,1,134.23,298.74Z"/><path class="cls-4" d="M136.62,294.75h.66V299h-.66Z"/><path class="cls-4" d="M138.07,294.75h1a1,1,0,0,1,.74.27,1.09,1.09,0,0,1,.24.77v2.13a1.11,1.11,0,0,1-.24.77,1,1,0,0,1-.74.26h-1Zm1,3.6a.33.33,0,0,0,.25-.09.52.52,0,0,0,.08-.31v-2.19a.5.5,0,0,0-.08-.31.34.34,0,0,0-.25-.1h-.34v3Z"/><path class="cls-4" d="M141,298.74a1.1,1.1,0,0,1-.26-.78v-3.21h.66V298a.46.46,0,0,0,.09.31.39.39,0,0,0,.5,0,.46.46,0,0,0,.09-.31v-3.26h.63V298a1.09,1.09,0,0,1-.25.78,1,1,0,0,1-.73.27A.94.94,0,0,1,141,298.74Z"/><path class="cls-4" d="M143.52,294.75h.83l.64,2.52h0v-2.52h.59V299h-.68l-.79-3.06h0V299h-.59Z"/><path class="cls-4" d="M146.9,295.35h-.69v-.6h2v.6h-.69V299h-.66Z"/><path class="cls-4" d="M148.43,298.32h.63V299h-.63Z"/><g class="cls-5"><circle class="cls-6" cx="74.96" cy="355.51" r="2.89"/></g><g class="cls-5"><circle class="cls-6" cx="95.97" cy="355.51" r="2.89"/></g><circle class="cls-7" cx="116.98" cy="355.51" r="2.89"/><g class="cls-8"><path class="cls-9" d="M122.59,58.06H51a6.38,6.38,0,0,1,10.05-5.23,13.81,13.81,0,0,1,27.06-3.17A9.65,9.65,0,0,1,94.79,47c4.1,0,7.61,3.71,9,7.32a15.61,15.61,0,0,1,6.82-1.51C116.13,52.83,120.82,54.33,122.59,58.06Z"/><path class="cls-9" d="M175.51,93.52a5,5,0,0,0-5.24-2.68c-.38-1-2.5-5.43-9.1-1.71-.52-1.32-3.5-7.8-10.12-3.25a6.79,6.79,0,0,0-1.27-3.16c-1.21-1.57-3.08-2.15-5.53-1.72a5.37,5.37,0,0,0-4.42,3.45,9.18,9.18,0,0,0-.26,4.75c-1.36.06-7.33.52-7.95,4.41l-.06.37h44.15Z"/><path class="cls-9" d="M55.61,121a4.46,4.46,0,0,0-4.69-2.69c-.34-1-2.24-5.42-8.15-1.7-.47-1.32-3.15-7.8-9.07-3.25a7.46,7.46,0,0,0-1.14-3.16c-1.09-1.58-2.76-2.16-5-1.72a4.92,4.92,0,0,0-4,3.45,10.22,10.22,0,0,0-.24,4.75c-1.22.06-6.57.52-7.12,4.41l-.06.37H55.79Z"/></g><path class="cls-9" d="M31.75,157.93a8.87,8.87,0,1,1,8.86-8.86A8.87,8.87,0,0,1,31.75,157.93Zm0-15a6.18,6.18,0,1,0,6.18,6.18A6.19,6.19,0,0,0,31.75,142.89Z"/><g class="cls-10"><polygon class="cls-9" points="164.19 228.16 166.13 225.55 166.13 228.16 164.19 228.16"/><polygon class="cls-9" points="140.29 228.16 137.13 225.8 137.13 223.4 155.21 199.16 162.97 199.16 166.13 201.51 166.13 225.55 164.19 228.16 140.29 228.16"/><polygon class="cls-9" points="155.21 199.16 137.13 223.4 137.13 199.16 155.21 199.16"/><polygon class="cls-9" points="162.19 230.84 168.81 221.96 168.81 230.84 162.19 230.84"/><polygon class="cls-9" points="138.81 230.84 134.45 227.59 134.45 227 157.21 196.48 164.45 196.48 168.81 199.73 168.81 221.96 162.19 230.84 138.81 230.84"/><polygon class="cls-9" points="157.21 196.48 134.45 227 134.45 196.48 157.21 196.48"/></g><g class="cls-11"><polygon class="cls-9" points="97.17 72.92 77.98 81.67 77.98 72.92 97.17 72.92"/><polygon class="cls-9" points="106.22 72.92 106.99 74.61 106.99 91.4 83.91 101.92 78.75 101.92 77.98 100.24 77.98 81.67 97.17 72.92 106.22 72.92"/><polygon class="cls-9" points="83.91 101.92 106.99 91.4 106.99 101.92 83.91 101.92"/><polygon class="cls-9" points="103.05 70.24 75.3 82.89 75.3 70.24 103.05 70.24"/><polygon class="cls-9" points="108.35 70.24 109.67 73.13 109.67 90.17 78.03 104.6 76.62 104.6 75.3 101.72 75.3 82.89 103.05 70.24 108.35 70.24"/><polygon class="cls-9" points="78.03 104.6 109.67 90.17 109.67 104.6 78.03 104.6"/></g><path class="cls-12" d="M67.72,232.81s.1-7.76,7.76-7.76c0,0-7.76-.09-7.76-7.75,0,0-.09,7.75-7.75,7.75C60,225.05,67.72,225.15,67.72,232.81Z"/><path class="cls-12" d="M37.93,87.76S38,80,45.69,80c0,0-7.76-.09-7.76-7.75,0,0-.1,7.75-7.76,7.75C30.17,80,37.93,80.1,37.93,87.76Z"/><path class="cls-12" d="M48.8,241.92s.06-4.55,4.56-4.55c0,0-4.56-.06-4.56-4.56,0,0,0,4.56-4.55,4.56C44.25,237.37,48.8,237.42,48.8,241.92Z"/><path class="cls-12" d="M161.81,174.4s.06-4.55,4.56-4.55c0,0-4.56-.06-4.56-4.56,0,0-.06,4.56-4.55,4.56C157.26,169.85,161.81,169.9,161.81,174.4Z"/><path class="cls-12" d="M139.08,64.51s0-4.55,4.55-4.55c0,0-4.55-.06-4.55-4.56,0,0-.06,4.56-4.56,4.56C134.52,60,139.08,60,139.08,64.51Z"/><path class="cls-12" d="M53.36,104.51s.06-4.56,4.55-4.56c0,0-4.55,0-4.55-4.55,0,0-.06,4.55-4.56,4.55C48.8,100,53.36,100,53.36,104.51Z"/><polygon class="cls-13" points="85.6 189.04 85.6 182.03 79.31 182.03 79.31 189.77 84.96 190.32 85.6 189.04"/><path class="cls-6" d="M87.36,199.16H66.13v-1.08a5,5,0,0,1,.06-.76,4.79,4.79,0,0,1,3.46-3.87c3.49-1,8.3-2.85,8.24-5.81h0a2.79,2.79,0,0,1,3.2,1.77l4.9-.92a34.27,34.27,0,0,1,1.35,8.84C87.38,198.09,87.38,198.72,87.36,199.16Z"/><path class="cls-4" d="M87.36,199.16H66.13v-1.08a5,5,0,0,1,.06-.76H87.36C87.38,198.09,87.38,198.72,87.36,199.16Z"/><path class="cls-7" d="M126.21,149.49v3.68a6.93,6.93,0,0,1-6.93,6.93H86.75v26.64H75.83V157.86a8.37,8.37,0,0,1,8.37-8.37Z"/><path class="cls-13" d="M112.41,108.68a2.52,2.52,0,0,0-.08,1.25l.92,4.6-6.72,1.35-.87-5.28L104,111c-.55.13-1.11.25-1.64.35a1.79,1.79,0,0,1-1.47-.37h0l-.34-.4s0,0,0,0c-3.17-3.79-2.94-5.59-2.27-7a6.31,6.31,0,0,0,1-2.76c-.54-3.91,2.25-6.79,5.8-7.69a10.26,10.26,0,0,1,2.78-.29,8,8,0,0,1,2.72.59h0a8.06,8.06,0,0,1,2,1.09,8.55,8.55,0,0,1,3.46,6.49,8.46,8.46,0,0,1-2.89,6.73A2.35,2.35,0,0,0,112.41,108.68Z"/><path d="M116,100.93a8.46,8.46,0,0,1-2.89,6.73,2.35,2.35,0,0,0-.65,1l-3.16-2.89s1.2-1.39-.33-3.35c-1.06-1.36-2-.33-2.53.43a.27.27,0,0,1-.49-.12,8.08,8.08,0,0,1,.75-5.09L105,93.05a10.26,10.26,0,0,1,2.78-.29,8,8,0,0,1,2.72.59h0l2,1.09A8.55,8.55,0,0,1,116,100.93Z"/><path d="M100.41,101.71c0,.23-.08.43-.17.43s-.18-.2-.18-.43.08-.43.18-.43S100.41,101.47,100.41,101.71Z"/><path d="M99.66,100.32a.12.12,0,0,1-.12-.11.57.57,0,0,1,.2-.5c.29-.22.84-.14,1.62.23a.12.12,0,0,1,.06.16.11.11,0,0,1-.16.06c-.91-.42-1.25-.34-1.37-.25a.31.31,0,0,0-.1.27.12.12,0,0,1-.11.14Z"/><path class="cls-2" d="M103.76,110.07a.14.14,0,0,1-.11-.06.13.13,0,0,1,0-.17l5.25-3.36-.86-4.45-4.26,2.4a.13.13,0,0,1-.17-.05.13.13,0,0,1,0-.17l4.56-2.57,1,5-.07.05-5.32,3.4Z"/><path class="cls-13" d="M107.16,102.73s1.74-3.31,3.39-1.32.11,6.72-2.89,5"/><path d="M108.89,106.91a2.54,2.54,0,0,1-1.29-.38.13.13,0,0,1,0-.17.12.12,0,0,1,.17,0,1.88,1.88,0,0,0,2.57-.36,3.84,3.84,0,0,0,.16-4.47,1.32,1.32,0,0,0-1.14-.59c-1.09.11-2,1.87-2,1.89a.12.12,0,0,1-.17,0,.12.12,0,0,1-.06-.16c0-.08,1-1.9,2.23-2a1.55,1.55,0,0,1,1.36.68,4.13,4.13,0,0,1-.15,4.79A2.06,2.06,0,0,1,108.89,106.91Z"/><path d="M108.17,105a.12.12,0,0,1-.12-.11c0-.08-.08-1.84.76-2.49a1.28,1.28,0,0,1,1.22-.15.13.13,0,1,1-.08.24,1,1,0,0,0-1,.11c-.73.57-.66,2.26-.66,2.27a.12.12,0,0,1-.12.13Z"/><path d="M109.19,104.59h0a.13.13,0,0,1-.09-.16s.29-1.17-.53-1.51a.14.14,0,0,1-.07-.17.13.13,0,0,1,.17-.06c.82.33.8,1.33.67,1.81A.12.12,0,0,1,109.19,104.59Z"/><path class="cls-12" d="M104,111c-.55.13-1.11.25-1.64.35a1.79,1.79,0,0,1-1.47-.37h0l-.34-.4s0,0,0,0c-3.17-3.79-2.94-5.59-2.27-7,1,.12,4.06.49,5.23.46C105.32,103.92,105.79,106.94,104,111Z"/><path class="cls-7" d="M116.51,114.09a14.11,14.11,0,0,0-10.08,3.16h0c-.4.28-.79.58-1.2.89-.64-1.36-2.12-4.83-2.12-4.83l10.84-3.23S115.14,111.94,116.51,114.09Z"/><circle class="cls-6" cx="39.3" cy="204.24" r="15.41"/><circle class="cls-4" cx="39.3" cy="204.24" r="8.81"/><path class="cls-2" d="M42.23,204.24a2.94,2.94,0,1,1-2.93-2.93A2.93,2.93,0,0,1,42.23,204.24Z"/><path class="cls-14" d="M44.12,195.44H22s6.48-17.39,28-17.39Z"/><path class="cls-15" d="M115.45,108.22a2.46,2.46,0,0,1-1.86.86h-6a3.08,3.08,0,0,1-3.08-3.08V97.29h9.76Z"/><g class="cls-5"><g class="cls-16"><polygon points="93.21 101.5 105.2 110.25 93.21 110.25 93.21 101.5"/><polygon points="93.21 101.15 105.69 110.25 105.2 110.25 93.21 101.5 93.21 101.15"/><polygon class="cls-17" points="93.21 100.79 106.19 110.25 105.69 110.25 93.21 101.15 93.21 100.79"/><polygon class="cls-18" points="93.21 100.43 106.68 110.25 106.19 110.25 93.21 100.79 93.21 100.43"/><polygon class="cls-19" points="93.21 100.07 107.13 110.22 107.11 110.25 106.68 110.25 93.21 100.43 93.21 100.07"/><polygon class="cls-20" points="93.21 99.71 107.3 109.99 107.13 110.22 93.21 100.07 93.21 99.71"/><polygon class="cls-21" points="93.21 99.35 107.42 109.71 107.42 109.83 107.3 109.99 93.21 99.71 93.21 99.35"/><polygon class="cls-22" points="93.21 99 107.42 109.35 107.42 109.71 93.21 99.35 93.21 99"/><polygon class="cls-23" points="93.21 98.64 107.42 109 107.42 109.35 93.21 99 93.21 98.64"/><polygon class="cls-24" points="93.21 98.28 107.42 108.64 107.42 109 93.21 98.64 93.21 98.28"/><polygon class="cls-25" points="93.21 97.92 107.42 108.28 107.42 108.64 93.21 98.28 93.21 97.92"/><polygon class="cls-26" points="93.21 97.56 107.42 107.92 107.42 108.28 93.21 97.92 93.21 97.56"/><polygon class="cls-27" points="93.21 97.2 107.42 107.56 107.42 107.92 93.21 97.56 93.21 97.2"/><polygon class="cls-28" points="93.21 96.97 93.27 96.89 107.42 107.2 107.42 107.56 93.21 97.2 93.21 96.97"/><polygon class="cls-29" points="93.27 96.89 93.44 96.66 107.42 106.84 107.42 107.2 93.27 96.89"/><polygon class="cls-30" points="93.44 96.66 93.59 96.45 93.65 96.45 107.42 106.49 107.42 106.84 93.44 96.66"/><polygon class="cls-31" points="94.14 96.45 107.42 106.13 107.42 106.49 93.65 96.45 94.14 96.45"/><polygon class="cls-32" points="94.64 96.45 107.42 105.77 107.42 106.13 94.14 96.45 94.64 96.45"/><polygon class="cls-33" points="95.13 96.45 107.42 105.41 107.42 105.77 94.64 96.45 95.13 96.45"/><polygon class="cls-34" points="95.62 96.45 107.42 105.05 107.42 105.41 95.13 96.45 95.62 96.45"/><polygon class="cls-35" points="96.11 96.45 107.42 104.69 107.42 105.05 95.62 96.45 96.11 96.45"/><polygon class="cls-36" points="96.6 96.45 107.42 104.34 107.42 104.69 96.11 96.45 96.6 96.45"/><polygon class="cls-37" points="97.09 96.45 107.42 103.98 107.42 104.34 96.6 96.45 97.09 96.45"/><polygon class="cls-38" points="97.58 96.45 107.42 103.62 107.42 103.98 97.09 96.45 97.58 96.45"/><polygon class="cls-39" points="98.08 96.45 107.42 103.26 107.42 103.62 97.58 96.45 98.08 96.45"/><polygon class="cls-40" points="98.57 96.45 107.42 102.9 107.42 103.26 98.08 96.45 98.57 96.45"/><polygon class="cls-41" points="99.06 96.45 107.42 102.54 107.42 102.9 98.57 96.45 99.06 96.45"/><polygon class="cls-42" points="99.55 96.45 107.42 102.19 107.42 102.54 99.06 96.45 99.55 96.45"/><polygon class="cls-43" points="100.04 96.45 107.42 101.83 107.42 102.19 99.55 96.45 100.04 96.45"/><polygon class="cls-44" points="100.53 96.45 107.42 101.47 107.42 101.83 100.04 96.45 100.53 96.45"/><polygon class="cls-44" points="107.42 101.47 100.53 96.45 107.42 96.45 107.42 101.47"/></g></g><path class="cls-7" d="M116.57,93.47a10.94,10.94,0,0,0-17.17,0,11.38,11.38,0,0,0-2.06,3.82h7.78V106a3.08,3.08,0,0,0,3.08,3.08h6a2.48,2.48,0,0,0,1.87-.86c1.69-2,3.17-4.52,3.17-7.27A11.81,11.81,0,0,0,116.57,93.47Z"/><path class="cls-45" d="M105.12,93.47v3.82H94.88a.54.54,0,0,1-.21-1l4-1.75.07-1Z"/><path class="cls-6" d="M105.12,93.47v3.17a12,12,0,0,0-6.49-2.13l.07-1Z"/><path class="cls-2" d="M104.15,94.66a.39.39,0,1,1-.39-.39A.39.39,0,0,1,104.15,94.66Z"/><path class="cls-12" d="M59.34,135.2v10.87a5.59,5.59,0,0,1-4.21-5.43h0A5.59,5.59,0,0,1,59.34,135.2Z"/><path class="cls-9" d="M73.48,139c-1.24,2-2.66,4.46-4.15,7.21H60.39a5.23,5.23,0,0,1-1-.17V135.2a5.23,5.23,0,0,1,1-.17,2.17,2.17,0,0,1,.36,0H71.21A2.65,2.65,0,0,1,73.48,139Z"/><path class="cls-14" d="M69.33,146.25c-.48.89-1,1.81-1.46,2.76H63.21c.56-.92,1.13-1.83,1.71-2.76Z"/><path class="cls-9" d="M72.58,151.86c-4.86,7.08-16.43,26.44-14.37,47.3.12,1.2.28,2.4.49,3.6H44.49a4.23,4.23,0,0,1-4-5.56A239.43,239.43,0,0,1,63.21,149h7.87A1.82,1.82,0,0,1,72.58,151.86Z"/><rect class="cls-14" x="59.34" y="134.1" width="1.05" height="13.07"/><path class="cls-12" d="M126.11,158.69c-9.84-2.48-19.94-9.35-19.94-9.35l.92-1.71c-2.06-1.12-.84-3.6-.92-8.34s-.58-8.87-.58-8.87h0c-9.4,5.44-30.48,9.92-30.48,9.92l-1.23-4.41a127.82,127.82,0,0,0,19.89-9.2c5.1-3,8.52-6.27,11.46-8.6.41-.31.8-.61,1.2-.89h0c.34-.26.68-.52,1-.76h0a13.78,13.78,0,0,1,9-2.4l2.39,3.69c.62.94,1.13,1.73,1.45,2.17a0,0,0,0,1,0,0C124.68,125.39,128.16,136.52,126.11,158.69Z"/><path class="cls-14" d="M65.32,140.4h-.09a.4.4,0,0,1-.3-.47l2.83-12.76a.39.39,0,0,1,.77.17L65.7,140.09A.39.39,0,0,1,65.32,140.4Z"/><path class="cls-7" d="M67.81,142.62h0a1.38,1.38,0,0,1-1.5,1.59c-1.24-.13-2.75-.87-3.1-3.57-.61-4.77,5.74-5.34,8.11-3.67l3.7-1.18.81,3.59-3.68,1s-2,3.54-3.73,2.27S67.81,142.62,67.81,142.62Z"/><circle class="cls-14" cx="66.96" cy="140.64" r="2.46"/><path class="cls-46" d="M105.59,130.42h0c-9.4,5.44-30.48,9.92-30.48,9.92l-1.23-4.41a127.82,127.82,0,0,0,19.89-9.2c5.1-3,8.52-6.27,11.46-8.6.41-.31.8-.61,1.2-.89h0c.34-.26.68-.52,1-.76h0C113,120.38,112,126.91,105.59,130.42Z"/><path class="cls-14" d="M69.66,122.69h.16a0,0,0,0,1,0,0v7.18a0,0,0,0,1,0,0h-.16a3.18,3.18,0,0,1-3.18-3.18v-.81A3.18,3.18,0,0,1,69.66,122.69Z"/><circle class="cls-6" cx="130.27" cy="204.24" r="15.41"/><circle class="cls-4" cx="130.27" cy="204.24" r="8.81"/><circle class="cls-2" cx="130.27" cy="204.24" r="2.94"/><g class="cls-47"><rect class="cls-9" x="106.18" y="166.75" width="54.31" height="36.01"/><rect class="cls-9" x="105.78" y="166.75" width="0.41" height="36.01"/><rect class="cls-48" x="105.37" y="166.75" width="0.41" height="36.01"/><rect class="cls-49" x="104.96" y="166.75" width="0.41" height="36.01"/><rect class="cls-50" x="104.55" y="166.75" width="0.41" height="36.01"/><rect class="cls-51" x="104.14" y="166.75" width="0.41" height="36.01"/><rect class="cls-52" x="103.74" y="166.75" width="0.41" height="36.01"/><rect class="cls-53" x="103.33" y="166.75" width="0.41" height="36.01"/><rect class="cls-54" x="102.92" y="166.75" width="0.41" height="36.01"/><rect class="cls-55" x="102.51" y="166.75" width="0.41" height="36.01"/><rect class="cls-56" x="102.11" y="166.75" width="0.41" height="36.01"/><rect class="cls-57" x="101.7" y="166.75" width="0.41" height="36.01"/><rect class="cls-58" x="101.29" y="166.75" width="0.41" height="36.01"/><rect class="cls-59" x="100.88" y="166.75" width="0.41" height="36.01"/><rect class="cls-60" x="100.47" y="166.75" width="0.41" height="36.01"/><rect class="cls-61" x="100.07" y="166.75" width="0.41" height="36.01"/><rect class="cls-62" x="99.66" y="166.75" width="0.41" height="36.01"/><rect class="cls-63" x="99.25" y="166.75" width="0.41" height="36.01"/><rect class="cls-64" x="98.84" y="166.75" width="0.41" height="36.01"/><rect class="cls-65" x="98.43" y="166.75" width="0.41" height="36.01"/><rect class="cls-66" x="98.03" y="166.75" width="0.41" height="36.01"/><rect class="cls-67" x="97.62" y="166.75" width="0.41" height="36.01"/><rect class="cls-68" x="97.21" y="166.75" width="0.41" height="36.01"/><rect class="cls-69" x="96.8" y="166.75" width="0.41" height="36.01"/><rect class="cls-70" x="96.39" y="166.75" width="0.41" height="36.01"/><rect class="cls-71" x="95.99" y="166.75" width="0.41" height="36.01"/><rect class="cls-72" x="95.58" y="166.75" width="0.41" height="36.01"/><rect class="cls-73" x="95.17" y="166.75" width="0.41" height="36.01"/><rect class="cls-74" x="94.76" y="166.75" width="0.41" height="36.01"/><rect class="cls-75" x="94.35" y="166.75" width="0.41" height="36.01"/><rect class="cls-76" x="93.95" y="166.75" width="0.41" height="36.01"/><rect class="cls-77" x="93.54" y="166.75" width="0.41" height="36.01"/><rect class="cls-78" x="93.13" y="166.75" width="0.41" height="36.01"/><rect class="cls-79" x="92.72" y="166.75" width="0.41" height="36.01"/><rect class="cls-80" x="92.31" y="166.75" width="0.41" height="36.01"/><rect class="cls-81" x="91.91" y="166.75" width="0.41" height="36.01"/><rect class="cls-82" x="91.5" y="166.75" width="0.41" height="36.01"/><rect class="cls-83" x="91.09" y="166.75" width="0.41" height="36.01"/><rect class="cls-84" x="90.68" y="166.75" width="0.41" height="36.01"/><rect class="cls-85" x="90.27" y="166.75" width="0.41" height="36.01"/><rect class="cls-86" x="89.87" y="166.75" width="0.41" height="36.01"/><rect class="cls-87" x="89.46" y="166.75" width="0.41" height="36.01"/><rect class="cls-88" x="89.05" y="166.75" width="0.41" height="36.01"/><rect class="cls-89" x="88.64" y="166.75" width="0.41" height="36.01"/><rect class="cls-90" x="88.23" y="166.75" width="0.41" height="36.01"/><rect class="cls-91" x="87.83" y="166.75" width="0.41" height="36.01"/><rect class="cls-92" x="87.42" y="166.75" width="0.41" height="36.01"/><rect class="cls-93" x="87.01" y="166.75" width="0.41" height="36.01"/><rect class="cls-94" x="86.6" y="166.75" width="0.41" height="36.01"/><rect class="cls-95" x="86.19" y="166.75" width="0.41" height="36.01"/><rect class="cls-96" x="85.79" y="166.75" width="0.41" height="36.01"/><rect class="cls-97" x="85.38" y="166.75" width="0.41" height="36.01"/><rect class="cls-98" x="84.97" y="166.75" width="0.41" height="36.01"/><rect class="cls-99" x="84.56" y="166.75" width="0.41" height="36.01"/><rect class="cls-100" x="84.15" y="166.75" width="0.41" height="36.01"/><rect class="cls-101" x="83.75" y="166.75" width="0.41" height="36.01"/><rect class="cls-102" x="83.34" y="166.75" width="0.41" height="36.01"/><rect class="cls-103" x="82.93" y="166.75" width="0.41" height="36.01"/><rect class="cls-104" x="82.52" y="166.75" width="0.41" height="36.01"/><rect class="cls-105" x="82.11" y="166.75" width="0.41" height="36.01"/><rect class="cls-106" x="81.71" y="166.75" width="0.41" height="36.01"/><rect class="cls-107" x="81.3" y="166.75" width="0.41" height="36.01"/><rect class="cls-108" x="80.89" y="166.75" width="0.41" height="36.01"/><rect class="cls-109" x="80.48" y="166.75" width="0.41" height="36.01"/><rect class="cls-110" x="80.07" y="166.75" width="0.41" height="36.01"/><rect class="cls-111" x="79.67" y="166.75" width="0.41" height="36.01"/><rect class="cls-112" x="79.26" y="166.75" width="0.41" height="36.01"/><rect class="cls-113" x="78.85" y="166.75" width="0.41" height="36.01"/><rect class="cls-114" x="78.44" y="166.75" width="0.41" height="36.01"/><rect class="cls-115" x="78.03" y="166.75" width="0.41" height="36.01"/><rect class="cls-116" x="77.63" y="166.75" width="0.41" height="36.01"/><rect class="cls-117" x="77.22" y="166.75" width="0.41" height="36.01"/><rect class="cls-118" x="76.81" y="166.75" width="0.41" height="36.01"/><rect class="cls-119" x="76.4" y="166.75" width="0.41" height="36.01"/><rect class="cls-120" x="75.99" y="166.75" width="0.41" height="36.01"/><rect class="cls-121" x="75.59" y="166.75" width="0.41" height="36.01"/><rect class="cls-122" x="75.18" y="166.75" width="0.41" height="36.01"/><rect class="cls-123" x="74.77" y="166.75" width="0.41" height="36.01"/><rect class="cls-124" x="74.36" y="166.75" width="0.41" height="36.01"/><rect class="cls-125" x="73.95" y="166.75" width="0.41" height="36.01"/><rect class="cls-126" x="73.55" y="166.75" width="0.41" height="36.01"/><rect class="cls-127" x="73.14" y="166.75" width="0.41" height="36.01"/><rect class="cls-128" x="72.73" y="166.75" width="0.41" height="36.01"/><rect class="cls-129" x="72.32" y="166.75" width="0.41" height="36.01"/><rect class="cls-130" x="71.91" y="166.75" width="0.41" height="36.01"/><rect class="cls-131" x="71.51" y="166.75" width="0.41" height="36.01"/><rect class="cls-132" x="71.1" y="166.75" width="0.41" height="36.01"/><rect class="cls-133" x="70.69" y="166.75" width="0.41" height="36.01"/><rect class="cls-134" x="70.28" y="166.75" width="0.41" height="36.01"/><rect class="cls-135" x="69.87" y="166.75" width="0.41" height="36.01"/><rect class="cls-136" x="69.47" y="166.75" width="0.41" height="36.01"/><rect class="cls-137" x="69.06" y="166.75" width="0.41" height="36.01"/><rect class="cls-14" x="68.65" y="166.75" width="0.41" height="36.01"/><rect class="cls-14" x="58.21" y="166.75" width="10.44" height="36.01"/></g><path class="cls-14" d="M153,202.76H107.57a22.74,22.74,0,0,1,45.39,0Z"/><g class="cls-138"><polygon class="cls-9" points="136.64 158.85 135.11 156.31 136.64 156.31 136.64 158.85"/><polygon class="cls-9" points="136.64 159.48 134.73 156.31 135.11 156.31 136.64 158.85 136.64 159.48"/><polygon class="cls-48" points="136.64 160.11 134.35 156.31 134.73 156.31 136.64 159.48 136.64 160.11"/><polygon class="cls-49" points="136.64 160.74 133.97 156.31 134.35 156.31 136.64 160.11 136.64 160.74"/><polygon class="cls-50" points="136.64 161.37 133.6 156.31 133.97 156.31 136.64 160.74 136.64 161.37"/><polygon class="cls-51" points="136.64 162 133.22 156.31 133.6 156.31 136.64 161.37 136.64 162"/><polygon class="cls-52" points="136.64 162.63 132.84 156.31 133.22 156.31 136.64 162 136.64 162.63"/><polygon class="cls-53" points="136.64 163.26 132.46 156.31 132.84 156.31 136.64 162.63 136.64 163.26"/><polygon class="cls-54" points="136.64 163.89 132.08 156.31 132.46 156.31 136.64 163.26 136.64 163.89"/><polygon class="cls-55" points="136.64 164.52 131.7 156.31 132.08 156.31 136.64 163.89 136.64 164.52"/><polygon class="cls-56" points="136.64 165.15 131.32 156.31 131.7 156.31 136.64 164.52 136.64 165.15"/><polygon class="cls-57" points="136.64 165.78 130.95 156.31 131.32 156.31 136.64 165.15 136.64 165.78"/><polygon class="cls-58" points="136.64 166.41 130.57 156.31 130.95 156.31 136.64 165.78 136.64 166.41"/><polygon class="cls-59" points="136.47 166.75 130.19 156.31 130.57 156.31 136.64 166.41 136.64 166.75 136.47 166.75"/><polygon class="cls-60" points="136.09 166.75 129.81 156.31 130.19 156.31 136.47 166.75 136.09 166.75"/><polygon class="cls-139" points="135.71 166.75 129.43 156.31 129.81 156.31 136.09 166.75 135.71 166.75"/><polygon class="cls-62" points="135.33 166.75 129.05 156.31 129.43 156.31 135.71 166.75 135.33 166.75"/><polygon class="cls-140" points="134.95 166.75 128.67 156.31 129.05 156.31 135.33 166.75 134.95 166.75"/><polygon class="cls-64" points="134.57 166.75 128.3 156.31 128.67 156.31 134.95 166.75 134.57 166.75"/><polygon class="cls-141" points="134.2 166.75 127.92 156.31 128.3 156.31 134.57 166.75 134.2 166.75"/><polygon class="cls-66" points="133.82 166.75 127.54 156.31 127.92 156.31 134.2 166.75 133.82 166.75"/><polygon class="cls-67" points="133.44 166.75 127.16 156.31 127.54 156.31 133.82 166.75 133.44 166.75"/><polygon class="cls-142" points="133.06 166.75 126.78 156.31 127.16 156.31 133.44 166.75 133.06 166.75"/><polygon class="cls-70" points="132.68 166.75 126.4 156.31 126.78 156.31 133.06 166.75 132.68 166.75"/><polygon class="cls-143" points="132.3 166.75 126.02 156.31 126.4 156.31 132.68 166.75 132.3 166.75"/><polygon class="cls-72" points="131.93 166.75 125.64 156.31 126.02 156.31 132.3 166.75 131.93 166.75"/><polygon class="cls-144" points="131.55 166.75 125.27 156.31 125.64 156.31 131.93 166.75 131.55 166.75"/><polygon class="cls-74" points="131.17 166.75 124.89 156.31 125.27 156.31 131.55 166.75 131.17 166.75"/><polygon class="cls-145" points="130.79 166.75 124.51 156.31 124.89 156.31 131.17 166.75 130.79 166.75"/><polygon class="cls-76" points="130.41 166.75 124.13 156.31 124.51 156.31 130.79 166.75 130.41 166.75"/><polygon class="cls-146" points="130.03 166.75 123.75 156.31 124.13 156.31 130.41 166.75 130.03 166.75"/><polygon class="cls-78" points="129.65 166.75 123.37 156.31 123.75 156.31 130.03 166.75 129.65 166.75"/><polygon class="cls-79" points="129.27 166.75 123 156.31 123.37 156.31 129.65 166.75 129.27 166.75"/><polygon class="cls-80" points="128.9 166.75 122.62 156.31 123 156.31 129.27 166.75 128.9 166.75"/><polygon class="cls-81" points="128.52 166.75 122.24 156.31 122.62 156.31 128.9 166.75 128.52 166.75"/><polygon class="cls-82" points="128.14 166.75 121.86 156.31 122.24 156.31 128.52 166.75 128.14 166.75"/><polygon class="cls-83" points="127.76 166.75 121.48 156.31 121.86 156.31 128.14 166.75 127.76 166.75"/><polygon class="cls-147" points="127.38 166.75 121.1 156.31 121.48 156.31 127.76 166.75 127.38 166.75"/><polygon class="cls-85" points="127 166.75 120.72 156.31 121.1 156.31 127.38 166.75 127 166.75"/><polygon class="cls-148" points="126.62 166.75 120.34 156.31 120.72 156.31 127 166.75 126.62 166.75"/><polygon class="cls-87" points="126.25 166.75 119.97 156.31 120.34 156.31 126.62 166.75 126.25 166.75"/><polygon class="cls-149" points="125.87 166.75 119.59 156.31 119.97 156.31 126.25 166.75 125.87 166.75"/><polygon class="cls-89" points="125.49 166.75 119.21 156.31 119.59 156.31 125.87 166.75 125.49 166.75"/><polygon class="cls-89" points="125.1 166.75 118.82 156.31 119.21 156.31 125.49 166.75 125.1 166.75"/><polygon class="cls-150" points="124.72 166.75 118.44 156.31 118.82 156.31 125.1 166.75 124.72 166.75"/><polygon class="cls-91" points="124.33 166.75 118.05 156.31 118.44 156.31 124.72 166.75 124.33 166.75"/><polygon class="cls-151" points="123.94 166.75 117.66 156.31 118.05 156.31 124.33 166.75 123.94 166.75"/><polygon class="cls-152" points="123.56 166.75 117.28 156.31 117.66 156.31 123.94 166.75 123.56 166.75"/><polygon class="cls-153" points="123.17 166.75 116.89 156.31 117.28 156.31 123.56 166.75 123.17 166.75"/><polygon class="cls-94" points="122.78 166.75 116.5 156.31 116.89 156.31 123.17 166.75 122.78 166.75"/><polygon class="cls-154" points="122.4 166.75 116.12 156.31 116.5 156.31 122.78 166.75 122.4 166.75"/><polygon class="cls-96" points="122.01 166.75 115.73 156.31 116.12 156.31 122.4 166.75 122.01 166.75"/><polygon class="cls-155" points="121.62 166.75 115.34 156.31 115.73 156.31 122.01 166.75 121.62 166.75"/><polygon class="cls-98" points="121.24 166.75 114.96 156.31 115.34 156.31 121.62 166.75 121.24 166.75"/><polygon class="cls-156" points="120.85 166.75 114.57 156.31 114.96 156.31 121.24 166.75 120.85 166.75"/><polygon class="cls-100" points="120.47 166.75 114.19 156.31 114.57 156.31 120.85 166.75 120.47 166.75"/><polygon class="cls-157" points="120.08 166.75 113.8 156.31 114.19 156.31 120.47 166.75 120.08 166.75"/><polygon class="cls-102" points="119.69 166.75 113.41 156.31 113.8 156.31 120.08 166.75 119.69 166.75"/><polygon class="cls-103" points="119.31 166.75 113.03 156.31 113.41 156.31 119.69 166.75 119.31 166.75"/><polygon class="cls-104" points="118.92 166.75 112.64 156.31 113.03 156.31 119.31 166.75 118.92 166.75"/><polygon class="cls-105" points="118.53 166.75 112.25 156.31 112.64 156.31 118.92 166.75 118.53 166.75"/><polygon class="cls-158" points="118.15 166.75 111.87 156.31 112.25 156.31 118.53 166.75 118.15 166.75"/><polygon class="cls-107" points="117.76 166.75 111.48 156.31 111.87 156.31 118.15 166.75 117.76 166.75"/><polygon class="cls-159" points="117.37 166.75 111.09 156.31 111.48 156.31 117.76 166.75 117.37 166.75"/><polygon class="cls-109" points="116.99 166.75 110.71 156.31 111.09 156.31 117.37 166.75 116.99 166.75"/><polygon class="cls-160" points="116.6 166.75 110.32 156.31 110.71 156.31 116.99 166.75 116.6 166.75"/><polygon class="cls-111" points="116.22 166.75 109.94 156.31 110.32 156.31 116.6 166.75 116.22 166.75"/><polygon class="cls-161" points="115.83 166.75 109.55 156.31 109.94 156.31 116.22 166.75 115.83 166.75"/><polygon class="cls-114" points="115.44 166.75 109.16 156.31 109.55 156.31 115.83 166.75 115.44 166.75"/><polygon class="cls-115" points="115.06 166.75 108.78 156.31 109.16 156.31 115.44 166.75 115.06 166.75"/><polygon class="cls-116" points="114.67 166.75 108.39 156.31 108.78 156.31 115.06 166.75 114.67 166.75"/><polygon class="cls-117" points="114.28 166.75 108 156.31 108.39 156.31 114.67 166.75 114.28 166.75"/><polygon class="cls-118" points="113.9 166.75 107.62 156.31 108 156.31 114.28 166.75 113.9 166.75"/><polygon class="cls-119" points="113.51 166.75 107.23 156.31 107.62 156.31 113.9 166.75 113.51 166.75"/><polygon class="cls-162" points="113.12 166.75 106.94 156.46 107.2 156.31 107.23 156.31 113.51 166.75 113.12 166.75"/><polygon class="cls-121" points="112.74 166.75 106.66 156.63 106.94 156.46 113.12 166.75 112.74 166.75"/><polygon class="cls-122" points="112.35 166.75 106.37 156.81 106.66 156.63 112.74 166.75 112.35 166.75"/><polygon class="cls-123" points="111.97 166.75 106.09 156.98 106.37 156.81 112.35 166.75 111.97 166.75"/><polygon class="cls-124" points="111.58 166.75 105.8 157.15 106.09 156.98 111.97 166.75 111.58 166.75"/><polygon class="cls-125" points="111.19 166.75 105.52 157.32 105.8 157.15 111.58 166.75 111.19 166.75"/><polygon class="cls-126" points="110.81 166.75 105.24 157.49 105.52 157.32 111.19 166.75 110.81 166.75"/><polygon class="cls-127" points="110.42 166.75 104.95 157.66 105.24 157.49 110.81 166.75 110.42 166.75"/><polygon class="cls-128" points="110.03 166.75 104.67 157.83 104.95 157.66 110.42 166.75 110.03 166.75"/><polygon class="cls-129" points="109.65 166.75 104.38 158 104.67 157.83 110.03 166.75 109.65 166.75"/><polygon class="cls-130" points="109.26 166.75 104.1 158.17 104.38 158 109.65 166.75 109.26 166.75"/><polygon class="cls-131" points="108.87 166.75 103.82 158.34 104.1 158.17 109.26 166.75 108.87 166.75"/><polygon class="cls-132" points="108.49 166.75 103.66 158.72 103.66 158.44 103.82 158.34 108.87 166.75 108.49 166.75"/><polygon class="cls-133" points="108.1 166.75 103.66 159.36 103.66 158.72 108.49 166.75 108.1 166.75"/><polygon class="cls-134" points="107.72 166.75 103.66 160 103.66 159.36 108.1 166.75 107.72 166.75"/><polygon class="cls-135" points="107.33 166.75 103.66 160.65 103.66 160 107.72 166.75 107.33 166.75"/><polygon class="cls-136" points="106.94 166.75 103.66 161.29 103.66 160.65 107.33 166.75 106.94 166.75"/><polygon class="cls-137" points="106.56 166.75 103.66 161.93 103.66 161.29 106.94 166.75 106.56 166.75"/><polygon class="cls-14" points="106.17 166.75 103.66 162.57 103.66 161.93 106.56 166.75 106.17 166.75"/><polygon class="cls-14" points="103.66 162.57 106.17 166.75 103.66 166.75 103.66 162.57"/></g><path class="cls-7" d="M141.43,110.25h17a5.67,5.67,0,0,1,5.67,5.67V153a0,0,0,0,1,0,0H134a7.17,7.17,0,0,1-7.17-7.17v-21A14.58,14.58,0,0,1,141.43,110.25Z"/><path class="cls-14" d="M131.3,168.75H116a.64.64,0,0,1-.64-.63.64.64,0,0,1,.64-.64H130v-5.42a7.61,7.61,0,0,1,7.6-7.6h26a.64.64,0,0,1,.63.64.63.63,0,0,1-.63.63h-26a6.33,6.33,0,0,0-6.32,6.33Z"/><circle class="cls-2" cx="145.47" cy="131.62" r="10.23" transform="translate(-50.47 141.41) rotate(-45)"/><polygon class="cls-7" points="152.81 128.24 144.14 136.92 138.12 130.9 140.03 128.99 144.14 133.1 150.9 126.33 152.81 128.24"/></g></g></svg>