<svg xmlns="http://www.w3.org/2000/svg" xmlns:xlink="http://www.w3.org/1999/xlink" viewBox="0 0 191.94 373.25"><defs><style>.cls-1{fill:none;}.cls-2{fill:#fff;}.cls-3{fill:#f28bc5;}.cls-4{fill:#7ed6df;}.cls-5{clip-path:url(#clip-path);}.cls-6{clip-path:url(#clip-path-2);}.cls-7{opacity:0.1;}.cls-8{fill:#30336b;}.cls-9{fill:#dff9fb;}.cls-10{fill:#f6e58d;}.cls-11{clip-path:url(#clip-path-3);}.cls-12{opacity:0.4;}.cls-13{clip-path:url(#clip-path-4);}.cls-14{clip-path:url(#clip-path-5);}.cls-15{clip-path:url(#clip-path-6);}.cls-16{fill:#22a6b3;}.cls-17{fill:#f52293;}.cls-18{fill:#ffc483;}.cls-19{fill:#686de0;}.cls-20{fill:#5663af;}.cls-21{opacity:0.2;}</style><clipPath id="clip-path"><path class="cls-1" d="M42.54,190.06a17.19,17.19,0,1,1,17.18-17.18A17.21,17.21,0,0,1,42.54,190.06Zm0-31.69A14.51,14.51,0,1,0,57,172.88,14.53,14.53,0,0,0,42.54,158.37Z"/></clipPath><clipPath id="clip-path-2"><path class="cls-1" d="M114,62.06A17.18,17.18,0,1,1,131.2,44.88,17.2,17.2,0,0,1,114,62.06Zm0-31.68a14.5,14.5,0,1,0,14.5,14.5A14.52,14.52,0,0,0,114,30.38Z"/></clipPath><clipPath id="clip-path-3"><path class="cls-1" d="M129.94,158.46H101.8a7,7,0,0,1-7-7V123.28a7.05,7.05,0,0,1,7-7h28.14a7.05,7.05,0,0,1,7,7v28.14A7,7,0,0,1,129.94,158.46ZM101.8,117.58a5.71,5.71,0,0,0-5.7,5.7v28.14a5.7,5.7,0,0,0,5.7,5.7h28.14a5.7,5.7,0,0,0,5.7-5.7V123.28a5.7,5.7,0,0,0-5.7-5.7Z"/></clipPath><clipPath id="clip-path-4"><path class="cls-1" d="M139.1,62.29v140.3a7.81,7.81,0,0,1-7.56,8H60.89a7.82,7.82,0,0,1-7.57-8V62.29a7.82,7.82,0,0,1,7.57-8h70.65A7.81,7.81,0,0,1,139.1,62.29Z"/></clipPath><clipPath id="clip-path-5"><rect class="cls-1" x="87.48" y="42.97" width="28.62" height="177.53" transform="translate(71.21 -31.91) rotate(27.11)"/></clipPath><clipPath id="clip-path-6"><rect class="cls-1" x="74.45" y="31.53" width="9.98" height="177.53" transform="translate(63.54 -22.98) rotate(27.11)"/></clipPath></defs><g id="Layer_2" data-name="Layer 2"><g id="OBJECTS"><rect class="cls-2" width="191.94" height="373.25" rx="19.01"/><path class="cls-3" d="M42.54,234.06s.09-7.75,7.75-7.75c0,0-7.75-.1-7.75-7.76,0,0-.1,7.76-7.76,7.76C34.78,226.31,42.54,226.4,42.54,234.06Z"/><path class="cls-3" d="M38,59s.09-7.76,7.75-7.76c0,0-7.75-.09-7.75-7.76,0,0-.1,7.76-7.76,7.76C30.21,51.28,38,51.38,38,59Z"/><path class="cls-3" d="M163.35,82.71S163.44,75,171.1,75c0,0-7.75-.1-7.75-7.76,0,0-.1,7.76-7.76,7.76C155.59,75,163.35,75.05,163.35,82.71Z"/><path class="cls-3" d="M157.83,193.68s.09-7.75,7.76-7.75c0,0-7.76-.1-7.76-7.76,0,0-.1,7.76-7.76,7.76C150.07,185.93,157.83,186,157.83,193.68Z"/><path class="cls-3" d="M92.42,239.55S92.48,235,97,235c0,0-4.55-.05-4.55-4.55,0,0-.06,4.55-4.56,4.55C87.86,235,92.42,235.05,92.42,239.55Z"/><path class="cls-3" d="M33.41,140.41s.06-4.55,4.56-4.55c0,0-4.56-.06-4.56-4.56,0,0,0,4.56-4.55,4.56C28.86,135.86,33.41,135.91,33.41,140.41Z"/><path class="cls-3" d="M58.25,43.52S58.31,39,62.81,39c0,0-4.56-.06-4.56-4.56,0,0-.06,4.56-4.55,4.56C53.7,39,58.25,39,58.25,43.52Z"/><path class="cls-3" d="M153.27,114s.06-4.55,4.56-4.55c0,0-4.56-.06-4.56-4.56,0,0-.05,4.56-4.55,4.56C148.72,109.4,153.27,109.46,153.27,114Z"/><path class="cls-3" d="M150.5,223s.05-4.55,4.55-4.55c0,0-4.55-.06-4.55-4.56,0,0-.06,4.56-4.56,4.56C145.94,218.45,150.5,218.5,150.5,223Z"/><path class="cls-4" d="M36.35,115.31a8.86,8.86,0,1,1,8.87-8.86A8.87,8.87,0,0,1,36.35,115.31Zm0-15a6.18,6.18,0,1,0,6.19,6.18A6.18,6.18,0,0,0,36.35,100.27Z"/><path class="cls-4" d="M157.83,157.16a8.86,8.86,0,1,1,8.86-8.86A8.87,8.87,0,0,1,157.83,157.16Zm0-15A6.18,6.18,0,1,0,164,148.3,6.18,6.18,0,0,0,157.83,142.12Z"/><g class="cls-5"><rect class="cls-4" x="28.03" y="158.37" width="29" height="29"/><path class="cls-4" d="M25.35,155.69v0Z"/><rect class="cls-4" x="25.35" y="155.69" width="34.36" height="34.36"/><path class="cls-4" d="M59.72,190.06v0Z"/></g><g class="cls-6"><rect class="cls-4" x="99.51" y="30.38" width="29" height="6.88"/><rect class="cls-4" x="99.51" y="37.27" width="29" height="16.09"/><rect class="cls-4" x="99.51" y="53.36" width="29" height="6.03"/><rect class="cls-4" x="96.83" y="27.7" width="34.36" height="9.57"/><rect class="cls-4" x="96.83" y="37.27" width="34.36" height="16.09"/><rect class="cls-4" x="96.83" y="53.36" width="34.36" height="8.71"/></g><g class="cls-7"><path class="cls-8" d="M128.85,60.72H58.21A8.49,8.49,0,0,0,50,69.44v140.3a8.49,8.49,0,0,0,8.24,8.71h70.64a8.49,8.49,0,0,0,8.24-8.71V69.44A8.49,8.49,0,0,0,128.85,60.72Z"/></g><path class="cls-9" d="M139.1,62.29v140.3a7.81,7.81,0,0,1-7.56,8H60.89a7.82,7.82,0,0,1-7.57-8V62.29a7.82,7.82,0,0,1,7.57-8h70.65A7.81,7.81,0,0,1,139.1,62.29Z"/><rect class="cls-4" x="60.47" y="82.84" width="32.17" height="32.17" rx="5.62"/><path class="cls-4" d="M105.41,82.84h20.92A5.63,5.63,0,0,1,132,88.47v20.92a5.62,5.62,0,0,1-5.62,5.62H105.41a5.63,5.63,0,0,1-5.62-5.62V88.47A5.62,5.62,0,0,1,105.41,82.84Z"/><rect class="cls-4" x="60.47" y="121.27" width="32.17" height="32.17" rx="5.62"/><rect class="cls-4" x="60.47" y="159.69" width="32.17" height="32.17" rx="5.62"/><path class="cls-4" d="M105.41,159.69h20.92a5.63,5.63,0,0,1,5.63,5.63v20.92a5.62,5.62,0,0,1-5.62,5.62H105.41a5.63,5.63,0,0,1-5.62-5.62V165.32A5.62,5.62,0,0,1,105.41,159.69Z"/><path class="cls-2" d="M87.45,104.84a10.9,10.9,0,0,0-21.8,0Z"/><path class="cls-2" d="M77.56,93.35a.45.45,0,0,0,.42-.63,1.56,1.56,0,0,0-2.85,0,.45.45,0,0,0,.41.63Z"/><rect class="cls-2" x="64.19" y="105.67" width="24.72" height="0.78"/><path class="cls-2" d="M87.45,141.31a10.9,10.9,0,0,0-21.8,0Z"/><path class="cls-2" d="M77.56,129.81a.45.45,0,0,0,.42-.62,1.56,1.56,0,0,0-2.85,0,.44.44,0,0,0,.41.62Z"/><rect class="cls-2" x="64.19" y="142.13" width="24.72" height="0.78"/><path class="cls-2" d="M126.77,104.84a10.9,10.9,0,1,0-21.8,0Z"/><path class="cls-2" d="M116.88,93.35a.45.45,0,0,0,.42-.63,1.56,1.56,0,0,0-2.86,0,.46.46,0,0,0,.42.63Z"/><rect class="cls-2" x="103.51" y="105.67" width="24.72" height="0.78"/><path class="cls-2" d="M87.45,181.5a10.9,10.9,0,0,0-21.8,0Z"/><path class="cls-2" d="M77.56,170a.46.46,0,0,0,.42-.63,1.56,1.56,0,0,0-2.85,0,.45.45,0,0,0,.41.63Z"/><rect class="cls-2" x="64.19" y="182.33" width="24.72" height="0.78"/><path class="cls-2" d="M126.77,181.5a10.9,10.9,0,1,0-21.8,0Z"/><path class="cls-2" d="M116.88,170a.46.46,0,0,0,.42-.63,1.56,1.56,0,0,0-2.86,0,.46.46,0,0,0,.42.63Z"/><rect class="cls-2" x="103.51" y="182.33" width="24.72" height="0.78"/><path class="cls-10" d="M102.77,118.62H129a5.62,5.62,0,0,1,5.62,5.62v26.21a5.62,5.62,0,0,1-5.62,5.62H102.77a5.63,5.63,0,0,1-5.62-5.62V124.25A5.63,5.63,0,0,1,102.77,118.62Z"/><g class="cls-11"><rect class="cls-10" x="96.1" y="150.42" width="39.54" height="6.7"/><rect class="cls-10" x="96.1" y="122.71" width="39.54" height="27.71"/><rect class="cls-10" x="96.1" y="117.58" width="39.54" height="5.13"/><rect class="cls-10" x="94.76" y="150.42" width="42.22" height="8.04"/><rect class="cls-10" x="94.76" y="122.71" width="42.22" height="27.71"/><rect class="cls-10" x="94.76" y="116.24" width="42.22" height="6.47"/></g><g class="cls-12"><g class="cls-13"><g class="cls-14"><polygon class="cls-2" points="48.6 199.83 62.23 173.22 91.26 188.08 76.32 217.27 48.6 217.27 48.6 199.83"/><rect class="cls-2" x="45.03" y="112.48" width="116.52" height="32.62" transform="translate(-58.42 162.04) rotate(-62.89)"/><polygon class="cls-2" points="115.32 69.5 127.25 46.2 154.97 46.2 154.97 63.64 144.36 84.37 115.32 69.5"/></g><g class="cls-15"><polygon class="cls-2" points="34.55 192.64 48.17 166.02 60.62 172.4 45.68 201.59 34.55 201.59 34.55 192.64"/><rect class="cls-2" x="22.69" y="110.36" width="116.52" height="13.98" transform="translate(-60.4 135.92) rotate(-62.89)"/><polygon class="cls-2" points="101.27 62.31 113.2 39.01 124.33 39.01 124.33 47.96 113.72 68.68 101.27 62.31"/></g></g></g><path class="cls-2" d="M128.56,144a12.69,12.69,0,1,0-25.38,0Z"/><path class="cls-2" d="M117.05,130.63a.52.52,0,0,0,.48-.73,1.82,1.82,0,0,0-3.32,0,.52.52,0,0,0,.49.73Z"/><rect class="cls-2" x="101.48" y="144.98" width="28.79" height="0.91"/><rect class="cls-4" x="60.47" y="69.29" width="7.3" height="7.3"/><rect class="cls-4" x="72.9" y="69.29" width="59.05" height="7.3"/><path class="cls-8" d="M131.54,211.3H60.89a8.49,8.49,0,0,1-8.24-8.71V62.29a8.49,8.49,0,0,1,8.24-8.71h70.65a8.49,8.49,0,0,1,8.24,8.71v140.3A8.5,8.5,0,0,1,131.54,211.3ZM60.89,54.92A7.15,7.15,0,0,0,54,62.29v140.3a7.15,7.15,0,0,0,6.9,7.37h70.65a7.15,7.15,0,0,0,6.89-7.37V62.29a7.15,7.15,0,0,0-6.89-7.37Z"/><path class="cls-8" d="M139.1,201.69v.9a7.81,7.81,0,0,1-7.56,8H60.89a7.82,7.82,0,0,1-7.57-8v-.9Z"/><path class="cls-8" d="M53.32,63.18v-.89a7.82,7.82,0,0,1,7.57-8h70.65a7.81,7.81,0,0,1,7.56,8v.89Z"/><path class="cls-16" d="M148.72,87.69a32.85,32.85,0,1,0-53.92,25.2A65.71,65.71,0,0,1,111.27,134l1.5,3a3.48,3.48,0,0,0,6.21,0l1.68-3.38a67.6,67.6,0,0,1,16.58-21A32.76,32.76,0,0,0,148.72,87.69Z"/><circle class="cls-4" cx="115.87" cy="87.69" r="28.21"/><circle class="cls-2" cx="115.87" cy="87.69" r="26.72"/><path class="cls-10" d="M113.56,75.61C103.24,77.1,92.42,84,92.42,90.85s1.58,12.37,18.87,12.4c12.61,0,28-10.81,28-17.66S131.88,73,113.56,75.61Zm6.58,22c-8.39,3-20.28,3.81-22.93-3.71s4.12-11.16,12.45-14.32,18.91-3.47,22.46.21C136.18,84,133.69,92.79,120.14,97.61Z"/><path class="cls-8" d="M131.24,82c-3.55-3.67-14.14-3.36-22.46-.2s-15.11,6.8-12.45,14.32,14.53,6.69,22.92,3.71C132.81,95,135.3,86.19,131.24,82Z"/><path class="cls-17" d="M132.12,79.79c-3.55-3.68-14.13-3.37-22.46-.21S94.55,86.38,97.21,93.9s14.54,6.69,22.93,3.71C133.69,92.79,136.18,84,132.12,79.79Zm-13.55,15.3c-6.43,2.29-15.49,3.24-17.53-2.52s3.61-8.52,10-10.93,14.49-2.66,17.21.15C131.34,85,129,91.4,118.57,95.09Z"/><path class="cls-3" d="M118.57,95.09c-6.43,2.29-15.49,3.24-17.53-2.52s3.61-8.52,10-10.93,14.49-2.66,17.21.15C131.34,85,129,91.4,118.57,95.09Z"/><path class="cls-17" d="M117.45,84.9c0,.37-.58.67-1.29.67s-1.3-.3-1.3-.67.58-.66,1.3-.66S117.45,84.54,117.45,84.9Z"/><path class="cls-18" d="M121.63,83c0,.37-.58.66-1.29.66s-1.29-.29-1.29-.66.58-.66,1.29-.66S121.63,82.65,121.63,83Z"/><path class="cls-17" d="M112.28,87.48c0,.37-.58.66-1.29.66s-1.3-.29-1.3-.66.58-.66,1.3-.66S112.28,87.12,112.28,87.48Z"/><path class="cls-17" d="M110.89,85.05c0,.37-.57.66-1.29.66s-1.29-.29-1.29-.66.58-.66,1.29-.66S110.89,84.68,110.89,85.05Z"/><path class="cls-18" d="M106.64,90.12c0,.36-.58.66-1.29.66s-1.29-.3-1.29-.66.58-.67,1.29-.67S106.64,89.75,106.64,90.12Z"/><path class="cls-17" d="M105.69,88.26c0,.37-.58.66-1.29.66s-1.3-.29-1.3-.66.58-.66,1.3-.66S105.69,87.89,105.69,88.26Z"/><path class="cls-18" d="M119.37,88.6c0,.37-.58.66-1.29.66s-1.29-.29-1.29-.66.58-.66,1.29-.66S119.37,88.24,119.37,88.6Z"/><path class="cls-17" d="M124.65,86c0,.36-.58.66-1.3.66s-1.29-.3-1.29-.66.58-.67,1.29-.67S124.65,85.58,124.65,86Z"/><ellipse class="cls-17" cx="122.22" cy="90.74" rx="1.29" ry="0.66"/><path class="cls-18" d="M115.58,90.51c0,.37-.58.67-1.29.67s-1.29-.3-1.29-.67.58-.66,1.29-.66S115.58,90.15,115.58,90.51Z"/><ellipse class="cls-18" cx="115.96" cy="93.71" rx="1.29" ry="0.66"/><path class="cls-18" d="M109.29,94.94c0,.36-.58.66-1.29.66s-1.3-.3-1.3-.66.58-.67,1.3-.67S109.29,94.57,109.29,94.94Z"/><ellipse class="cls-17" cx="111.06" cy="92.54" rx="1.29" ry="0.66"/><circle class="cls-17" cx="138.43" cy="63.18" r="12.06" transform="translate(45.28 183.51) rotate(-76.79)"/><polygon class="cls-2" points="147.1 59.19 136.87 69.42 129.77 62.32 132.02 60.07 136.87 64.92 144.84 56.94 147.1 59.19"/><path class="cls-19" d="M53.5,274a2.34,2.34,0,0,1-.54-1.65v-4.89a2.34,2.34,0,0,1,.54-1.65,2.4,2.4,0,0,1,3.13,0,2.34,2.34,0,0,1,.54,1.65v1H55.82v-1.06c0-.56-.24-.84-.71-.84s-.72.28-.72.84v5.09c0,.55.24.83.72.83s.71-.28.71-.83v-1.39h1.35v1.28a2.34,2.34,0,0,1-.54,1.65,2.37,2.37,0,0,1-3.13,0Z"/><path class="cls-19" d="M58.68,265.36h1.43v3.7h1.54v-3.7h1.43v9.1H61.65v-4.1H60.11v4.1H58.68Z"/><path class="cls-19" d="M65.25,274a2.35,2.35,0,0,1-.56-1.69v-4.78a2.33,2.33,0,0,1,.56-1.69,2.46,2.46,0,0,1,3.22,0,2.38,2.38,0,0,1,.56,1.69v4.78a2.39,2.39,0,0,1-.56,1.69,2.46,2.46,0,0,1-3.22,0Zm2.35-1.6v-5c0-.6-.25-.9-.74-.9s-.74.3-.74.9v5c0,.6.24.9.74.9S67.6,273,67.6,272.39Z"/><path class="cls-19" d="M71.1,274a2.35,2.35,0,0,1-.56-1.69v-4.78a2.33,2.33,0,0,1,.56-1.69,2.46,2.46,0,0,1,3.22,0,2.38,2.38,0,0,1,.56,1.69v4.78a2.39,2.39,0,0,1-.56,1.69,2.46,2.46,0,0,1-3.22,0Zm2.35-1.6v-5c0-.6-.25-.9-.74-.9s-.74.3-.74.9v5c0,.6.24.9.74.9S73.45,273,73.45,272.39Z"/><path class="cls-19" d="M76.78,274a2.44,2.44,0,0,1-.54-1.7v-.52H77.6v.62c0,.59.24.89.74.89a.68.68,0,0,0,.55-.22,1,1,0,0,0,.19-.69,2,2,0,0,0-.26-1,5,5,0,0,0-1-1.05,5.92,5.92,0,0,1-1.24-1.41,2.9,2.9,0,0,1-.35-1.42,2.34,2.34,0,0,1,.55-1.67,2.05,2.05,0,0,1,1.58-.59,2,2,0,0,1,1.56.59,2.47,2.47,0,0,1,.52,1.7v.37H79.13v-.46a1.08,1.08,0,0,0-.18-.69.66.66,0,0,0-.53-.21q-.72,0-.72.87a1.68,1.68,0,0,0,.27.92,4.59,4.59,0,0,0,1,1,5.48,5.48,0,0,1,1.23,1.42,3.06,3.06,0,0,1,.34,1.49A2.48,2.48,0,0,1,80,274a2.09,2.09,0,0,1-1.61.6A2,2,0,0,1,76.78,274Z"/><path class="cls-19" d="M82,265.36h3.9v1.3H83.41v2.4h2v1.3h-2v2.8h2.47v1.3H82Z"/><path class="cls-19" d="M91.39,270.58l-1.73-5.22h1.52l1,3.34h0l1-3.34h1.39l-1.73,5.22v3.88H91.39Z"/><path class="cls-19" d="M96.07,274a2.39,2.39,0,0,1-.56-1.69v-4.78a2.38,2.38,0,0,1,.56-1.69,2.46,2.46,0,0,1,3.22,0,2.33,2.33,0,0,1,.56,1.69v4.78a2.35,2.35,0,0,1-.56,1.69,2.46,2.46,0,0,1-3.22,0Zm2.35-1.6v-5c0-.6-.24-.9-.74-.9s-.74.3-.74.9v5c0,.6.25.9.74.9S98.42,273,98.42,272.39Z"/><path class="cls-19" d="M102,274a2.4,2.4,0,0,1-.55-1.7v-6.94h1.43v7a1,1,0,0,0,.19.68.8.8,0,0,0,1.08,0,1,1,0,0,0,.19-.68v-7h1.38v6.94a2.45,2.45,0,0,1-.55,1.7,2.42,2.42,0,0,1-3.17,0Z"/><path class="cls-19" d="M107.34,265.36h2.12a2.19,2.19,0,0,1,1.61.51,2.16,2.16,0,0,1,.51,1.58V268c0,.95-.31,1.54-.94,1.79v0a1.13,1.13,0,0,1,.74.64,3.25,3.25,0,0,1,.21,1.28v1.6a5.29,5.29,0,0,0,0,.63,1.43,1.43,0,0,0,.13.48h-1.46a1.81,1.81,0,0,1-.1-.42,5.37,5.37,0,0,1,0-.7v-1.66a1.42,1.42,0,0,0-.2-.87.85.85,0,0,0-.7-.25h-.49v3.9h-1.43Zm2,3.9a.87.87,0,0,0,.64-.22,1,1,0,0,0,.22-.74v-.71a1.14,1.14,0,0,0-.18-.71.64.64,0,0,0-.55-.22h-.65v2.6Z"/><path class="cls-19" d="M116,265.36h2l.91,6.51h0l.91-6.51h2v9.1h-1.36v-6.89h0l-1,6.89h-1.2l-1-6.89h0v6.89H116Z"/><path class="cls-19" d="M123.6,265.36h3.9v1.3H125v2.4h2v1.3h-2v2.8h2.47v1.3h-3.9Z"/><path class="cls-19" d="M130.08,265.36H132l1.49,9.1h-1.43l-.26-1.81v0h-1.63l-.26,1.78h-1.33Zm1.56,6.08-.64-4.5h0l-.62,4.5Z"/><path class="cls-19" d="M134.83,265.36h1.43v7.8h2.36v1.3h-3.79Z"/><path class="cls-20" d="M32.13,287.55h.66v3.6h1.09v.6H32.13Z"/><path class="cls-20" d="M34.68,291.54a1.13,1.13,0,0,1-.26-.78v-2.21a1.1,1.1,0,0,1,.26-.78,1.13,1.13,0,0,1,1.49,0,1.1,1.1,0,0,1,.26.78v2.21a1.13,1.13,0,0,1-.26.78,1.16,1.16,0,0,1-1.49,0Zm1.09-.74v-2.29c0-.28-.12-.42-.34-.42s-.35.14-.35.42v2.29c0,.28.12.41.35.41S35.77,291.08,35.77,290.8Z"/><path class="cls-20" d="M37.17,287.55h1a.85.85,0,0,1,1,1v.26a.81.81,0,0,1-.43.83h0a.52.52,0,0,1,.34.29,1.65,1.65,0,0,1,.09.6v.73a2.36,2.36,0,0,0,0,.3.42.42,0,0,0,.06.21h-.68a.65.65,0,0,1,0-.19,2.1,2.1,0,0,1,0-.32v-.77a.65.65,0,0,0-.09-.4.38.38,0,0,0-.32-.12h-.23v1.8h-.66Zm.9,1.8a.4.4,0,0,0,.3-.1.46.46,0,0,0,.1-.34v-.32a.53.53,0,0,0-.08-.33.32.32,0,0,0-.26-.11h-.3v1.2Z"/><path class="cls-20" d="M39.89,287.55h1.8v.6H40.55v1.11h.91v.6h-.91v1.29h1.14v.6h-1.8Z"/><path class="cls-20" d="M42.37,287.55h.94l.42,3h0l.42-3h.94v4.2h-.62v-3.18h0L44,291.75h-.55L43,288.57h0v3.18h-.57Z"/><path class="cls-20" d="M48.53,287.55h.66v4.2h-.66Z"/><path class="cls-20" d="M50,287.55h1a1,1,0,0,1,.74.27,1.05,1.05,0,0,1,.25.77V289a1.07,1.07,0,0,1-.25.77A.94.94,0,0,1,51,290h-.31v1.71H50Zm1,1.89a.33.33,0,0,0,.25-.09.47.47,0,0,0,.08-.3v-.5a.5.5,0,0,0-.08-.31.33.33,0,0,0-.25-.09h-.31v1.29Z"/><path class="cls-20" d="M52.75,291.54a1.14,1.14,0,0,1-.24-.78v-.24h.62v.29c0,.27.12.4.34.4a.34.34,0,0,0,.26-.09.5.5,0,0,0,.09-.33.88.88,0,0,0-.12-.46,2.09,2.09,0,0,0-.45-.48,2.83,2.83,0,0,1-.57-.65,1.34,1.34,0,0,1-.16-.66,1.08,1.08,0,0,1,.25-.77,1,1,0,0,1,.73-.28.92.92,0,0,1,.72.28,1.14,1.14,0,0,1,.24.78v.17h-.62v-.21a.54.54,0,0,0-.08-.32.34.34,0,0,0-.25-.1c-.22,0-.33.14-.33.41a.79.79,0,0,0,.12.42,2.63,2.63,0,0,0,.45.48,2.29,2.29,0,0,1,.57.66,1.46,1.46,0,0,1,.16.69,1.14,1.14,0,0,1-.26.79,1,1,0,0,1-.74.27A1,1,0,0,1,52.75,291.54Z"/><path class="cls-20" d="M55.38,291.54a1.09,1.09,0,0,1-.25-.78v-3.21h.66v3.26a.46.46,0,0,0,.09.31.33.33,0,0,0,.25.09.35.35,0,0,0,.25-.09.52.52,0,0,0,.08-.31v-3.26h.64v3.21a1.14,1.14,0,0,1-.25.78,1,1,0,0,1-.74.27A1,1,0,0,1,55.38,291.54Z"/><path class="cls-20" d="M57.87,287.55h.94l.42,3h0l.42-3h.94v4.2H60v-3.18h0l-.48,3.18h-.56l-.48-3.18h0v3.18h-.57Z"/><path class="cls-20" d="M64,287.55h1a1,1,0,0,1,.74.27,1.09,1.09,0,0,1,.24.77v2.13a1.11,1.11,0,0,1-.24.77,1,1,0,0,1-.74.26H64Zm1,3.6a.31.31,0,0,0,.24-.09.46.46,0,0,0,.09-.31v-2.19a.44.44,0,0,0-.09-.31.31.31,0,0,0-.24-.1h-.34v3Z"/><path class="cls-20" d="M67,291.54a1.08,1.08,0,0,1-.26-.78v-2.21a1.05,1.05,0,0,1,.26-.78,1.12,1.12,0,0,1,1.48,0,1.05,1.05,0,0,1,.26.78v2.21a1.08,1.08,0,0,1-.26.78,1.15,1.15,0,0,1-1.48,0Zm1.08-.74v-2.29c0-.28-.11-.42-.34-.42s-.34.14-.34.42v2.29c0,.28.11.41.34.41S68.06,291.08,68.06,290.8Z"/><path class="cls-20" d="M69.47,287.55h.66v3.6h1.08v.6H69.47Z"/><path class="cls-20" d="M72,291.54a1.08,1.08,0,0,1-.26-.78v-2.21a1.05,1.05,0,0,1,.26-.78,1.12,1.12,0,0,1,1.48,0,1.05,1.05,0,0,1,.26.78v2.21a1.08,1.08,0,0,1-.26.78,1.15,1.15,0,0,1-1.48,0Zm1.08-.74v-2.29c0-.28-.11-.42-.34-.42s-.34.14-.34.42v2.29c0,.28.11.41.34.41S73.1,291.08,73.1,290.8Z"/><path class="cls-20" d="M74.51,287.55h1a.84.84,0,0,1,1,1v.26a.8.8,0,0,1-.43.83h0a.52.52,0,0,1,.34.29,1.63,1.63,0,0,1,.1.6v.73a2.63,2.63,0,0,0,0,.3.83.83,0,0,0,.06.21h-.67a.67.67,0,0,1-.05-.19,2.55,2.55,0,0,1,0-.32v-.77a.58.58,0,0,0-.1-.4.37.37,0,0,0-.32-.12h-.22v1.8h-.66Zm.9,1.8a.37.37,0,0,0,.29-.1.46.46,0,0,0,.1-.34v-.32a.53.53,0,0,0-.08-.33.3.3,0,0,0-.25-.11h-.3v1.2Z"/><path class="cls-20" d="M80,291.54a1.14,1.14,0,0,1-.25-.78v-.24h.63v.29c0,.27.11.4.34.4a.36.36,0,0,0,.26-.09.57.57,0,0,0,.08-.33.88.88,0,0,0-.12-.46,2.24,2.24,0,0,0-.44-.48,2.83,2.83,0,0,1-.57-.65,1.34,1.34,0,0,1-.16-.66,1.08,1.08,0,0,1,.25-.77,1,1,0,0,1,.73-.28.92.92,0,0,1,.72.28,1.14,1.14,0,0,1,.24.78v.17h-.62v-.21a.47.47,0,0,0-.09-.32.3.3,0,0,0-.24-.1c-.22,0-.33.14-.33.41a.79.79,0,0,0,.12.42,2.31,2.31,0,0,0,.45.48,2.65,2.65,0,0,1,.57.66,1.47,1.47,0,0,1,.15.69,1.14,1.14,0,0,1-.25.79,1,1,0,0,1-.74.27A.94.94,0,0,1,80,291.54Z"/><path class="cls-20" d="M82.39,287.55h.66v4.2h-.66Z"/><path class="cls-20" d="M84.36,288.15h-.69v-.6h2v.6H85v3.6h-.66Z"/><path class="cls-20" d="M89.47,287.55h.9l.68,4.2h-.66l-.12-.83h-.75l-.12.82h-.61Zm.72,2.81-.29-2.07h0l-.29,2.07Z"/><path class="cls-20" d="M91.67,287.55h.94l.42,3h0l.42-3h.94v4.2h-.62v-3.18h0l-.48,3.18h-.55l-.48-3.18h0v3.18h-.57Z"/><path class="cls-20" d="M95.2,287.55H97v.6H95.86v1.11h.9v.6h-.9v1.29H97v.6H95.2Z"/><path class="cls-20" d="M98.19,288.15H97.5v-.6h2v.6h-.69v3.6h-.66Z"/><path class="cls-20" d="M99.94,291.75h-.22v-.63h.64v.57l-.34.78h-.3Z"/><path class="cls-20" d="M104,291.54a1.06,1.06,0,0,1-.25-.76v-2.25a1.08,1.08,0,0,1,.25-.77,1.11,1.11,0,0,1,1.45,0,1.13,1.13,0,0,1,.24.77V289h-.62v-.49q0-.39-.33-.39t-.33.39v2.35c0,.26.11.38.33.38s.33-.12.33-.38v-.64h.62v.59a1.1,1.1,0,0,1-.24.76,1.11,1.11,0,0,1-1.45,0Z"/><path class="cls-20" d="M106.6,291.54a1.13,1.13,0,0,1-.26-.78v-2.21a1.1,1.1,0,0,1,.26-.78,1.13,1.13,0,0,1,1.49,0,1.1,1.1,0,0,1,.26.78v2.21a1.13,1.13,0,0,1-.26.78,1.16,1.16,0,0,1-1.49,0Zm1.09-.74v-2.29c0-.28-.12-.42-.34-.42s-.35.14-.35.42v2.29c0,.28.12.41.35.41S107.69,291.08,107.69,290.8Z"/><path class="cls-20" d="M109.09,287.55h.83l.64,2.52h0v-2.52h.59v4.2h-.68l-.79-3.06h0v3.06h-.59Z"/><path class="cls-20" d="M112.09,291.54a1.09,1.09,0,0,1-.25-.78v-.24h.62v.29c0,.27.12.4.35.4a.33.33,0,0,0,.25-.09.5.5,0,0,0,.09-.33.88.88,0,0,0-.12-.46,2.09,2.09,0,0,0-.45-.48,2.83,2.83,0,0,1-.57-.65,1.46,1.46,0,0,1-.16-.66,1.13,1.13,0,0,1,.25-.77,1,1,0,0,1,.74-.28.91.91,0,0,1,.71.28,1.14,1.14,0,0,1,.25.78v.17h-.63v-.21a.54.54,0,0,0-.08-.32.34.34,0,0,0-.25-.1c-.22,0-.33.14-.33.41a.79.79,0,0,0,.12.42,3,3,0,0,0,.45.48,2.29,2.29,0,0,1,.57.66,1.35,1.35,0,0,1,.16.69,1.14,1.14,0,0,1-.26.79,1,1,0,0,1-.74.27A.91.91,0,0,1,112.09,291.54Z"/><path class="cls-20" d="M114.49,287.55h1.8v.6h-1.14v1.11h.9v.6h-.9v1.29h1.14v.6h-1.8Z"/><path class="cls-20" d="M117.17,291.54a1.06,1.06,0,0,1-.25-.76v-2.25a1.08,1.08,0,0,1,.25-.77,1.11,1.11,0,0,1,1.45,0,1.13,1.13,0,0,1,.25.77V289h-.63v-.49q0-.39-.33-.39t-.33.39v2.35c0,.26.11.38.33.38s.33-.12.33-.38v-.64h.63v.59a1.1,1.1,0,0,1-.25.76,1.11,1.11,0,0,1-1.45,0Z"/><path class="cls-20" d="M120.08,288.15h-.69v-.6h2v.6h-.69v3.6h-.66Z"/><path class="cls-20" d="M122.05,287.55h1.8v.6h-1.14v1.11h.9v.6h-.9v1.29h1.14v.6h-1.8Z"/><path class="cls-20" d="M125,288.15h-.69v-.6h2v.6h-.69v3.6H125Z"/><path class="cls-20" d="M127.24,291.54a1.1,1.1,0,0,1-.26-.78v-3.21h.66v3.26a.46.46,0,0,0,.09.31.39.39,0,0,0,.5,0,.46.46,0,0,0,.09-.31v-3.26H129v3.21a1.09,1.09,0,0,1-.25.78,1,1,0,0,1-.73.27A.94.94,0,0,1,127.24,291.54Z"/><path class="cls-20" d="M129.72,287.55h1.8v.6h-1.14v1.11h.91v.6h-.91v1.29h1.14v.6h-1.8Z"/><path class="cls-20" d="M132.2,287.55h1a1,1,0,0,1,.74.24,1,1,0,0,1,.23.73v.26a.8.8,0,0,1-.43.83h0a.52.52,0,0,1,.34.29,1.44,1.44,0,0,1,.1.6v.73a2.63,2.63,0,0,0,0,.3.83.83,0,0,0,.06.21h-.67a1.33,1.33,0,0,1-.05-.19,2.55,2.55,0,0,1,0-.32v-.77a.65.65,0,0,0-.09-.4.39.39,0,0,0-.32-.12h-.23v1.8h-.66Zm.9,1.8a.37.37,0,0,0,.29-.1.46.46,0,0,0,.1-.34v-.32a.47.47,0,0,0-.08-.33.3.3,0,0,0-.25-.11h-.3v1.2Z"/><path class="cls-20" d="M138.06,287.55H139l.69,4.2H139l-.12-.83h-.75l-.12.82h-.61Zm.72,2.81-.29-2.07h0l-.28,2.07Z"/><path class="cls-20" d="M140.26,287.55h1a1,1,0,0,1,.74.27,1.05,1.05,0,0,1,.25.77v2.13a1.07,1.07,0,0,1-.25.77.94.94,0,0,1-.74.26h-1Zm1,3.6a.33.33,0,0,0,.25-.09.46.46,0,0,0,.09-.31v-2.19a.44.44,0,0,0-.09-.31.34.34,0,0,0-.25-.1h-.33v3Z"/><path class="cls-20" d="M143,287.55h.66v4.2H143Z"/><path class="cls-20" d="M144.44,287.55h1a.94.94,0,0,1,.73.27,1.05,1.05,0,0,1,.25.77V289a1.07,1.07,0,0,1-.25.77.93.93,0,0,1-.73.26h-.32v1.71h-.66Zm1,1.89a.31.31,0,0,0,.24-.09.47.47,0,0,0,.08-.3v-.5a.5.5,0,0,0-.08-.31.31.31,0,0,0-.24-.09h-.32v1.29Z"/><path class="cls-20" d="M147.06,287.55h.66v4.2h-.66Z"/><path class="cls-20" d="M148.64,291.54a1.14,1.14,0,0,1-.24-.78v-.24H149v.29c0,.27.12.4.34.4a.34.34,0,0,0,.26-.09.5.5,0,0,0,.09-.33.88.88,0,0,0-.12-.46,2.09,2.09,0,0,0-.45-.48,2.83,2.83,0,0,1-.57-.65,1.34,1.34,0,0,1-.16-.66,1.08,1.08,0,0,1,.25-.77,1,1,0,0,1,.73-.28.92.92,0,0,1,.72.28,1.14,1.14,0,0,1,.24.78v.17h-.62v-.21a.54.54,0,0,0-.08-.32.34.34,0,0,0-.25-.1c-.22,0-.33.14-.33.41a.79.79,0,0,0,.12.42,2.31,2.31,0,0,0,.45.48,2.29,2.29,0,0,1,.57.66,1.46,1.46,0,0,1,.16.69,1.14,1.14,0,0,1-.26.79,1,1,0,0,1-.74.27A1,1,0,0,1,148.64,291.54Z"/><path class="cls-20" d="M151.25,291.54a1.06,1.06,0,0,1-.25-.76v-2.25a1.08,1.08,0,0,1,.25-.77,1.11,1.11,0,0,1,1.45,0,1.13,1.13,0,0,1,.25.77V289h-.63v-.49q0-.39-.33-.39t-.33.39v2.35c0,.26.11.38.33.38s.33-.12.33-.38v-.64H153v.59a1.1,1.1,0,0,1-.25.76,1.11,1.11,0,0,1-1.45,0Z"/><path class="cls-20" d="M153.64,287.55h.66v4.2h-.66Z"/><path class="cls-20" d="M155.09,287.55h.83l.64,2.52h0v-2.52h.58v4.2h-.67l-.8-3.06h0v3.06h-.59Z"/><path class="cls-20" d="M158.16,291.54a1.09,1.09,0,0,1-.25-.78v-2.21a1.09,1.09,0,0,1,.25-.78,1,1,0,0,1,.73-.28.94.94,0,0,1,.73.28,1.1,1.1,0,0,1,.26.78v.36h-.63v-.4c0-.28-.11-.42-.34-.42s-.34.14-.34.42v2.3c0,.27.11.4.34.4s.34-.13.34-.4V290h-.33v-.6h1v1.38a1.1,1.1,0,0,1-.26.78.94.94,0,0,1-.73.27A1,1,0,0,1,158.16,291.54Z"/><path class="cls-20" d="M42.88,294.75h1.8v.6H43.54v1.11h.9v.6h-.9v1.29h1.14v.6h-1.8Z"/><path class="cls-20" d="M45.36,294.75H46v3.6H47.1v.6H45.36Z"/><path class="cls-20" d="M47.72,294.75h.66V299h-.66Z"/><path class="cls-20" d="M49.69,295.35H49v-.6h2v.6h-.69V299h-.66Z"/><path class="cls-20" d="M51.43,299h-.21v-.63h.63v.57l-.33.78h-.3Z"/><path class="cls-20" d="M54,298.74a1.09,1.09,0,0,1-.25-.78v-.24h.63V298c0,.27.11.4.34.4a.33.33,0,0,0,.25-.09.5.5,0,0,0,.09-.33.88.88,0,0,0-.12-.46,2.24,2.24,0,0,0-.44-.48,2.41,2.41,0,0,1-.57-.65,1.35,1.35,0,0,1-.17-.66,1.09,1.09,0,0,1,.26-.77.94.94,0,0,1,.73-.28.91.91,0,0,1,.71.28,1.09,1.09,0,0,1,.25.78v.17h-.63v-.21a.47.47,0,0,0-.08-.32.34.34,0,0,0-.25-.1c-.22,0-.33.14-.33.41a.72.72,0,0,0,.13.42,2.51,2.51,0,0,0,.44.48,2.29,2.29,0,0,1,.57.66,1.35,1.35,0,0,1,.16.69,1.14,1.14,0,0,1-.26.79,1,1,0,0,1-.74.27A.91.91,0,0,1,54,298.74Z"/><path class="cls-20" d="M56.44,294.75h1.8v.6H57.1v1.11H58v.6h-.9v1.29h1.14v.6h-1.8Z"/><path class="cls-20" d="M58.92,294.75h1a1,1,0,0,1,.74.27,1.05,1.05,0,0,1,.25.77v2.13a1.07,1.07,0,0,1-.25.77.94.94,0,0,1-.74.26h-1Zm1,3.6a.33.33,0,0,0,.25-.09.46.46,0,0,0,.09-.31v-2.19a.44.44,0,0,0-.09-.31.34.34,0,0,0-.25-.1h-.33v3Z"/><path class="cls-20" d="M62.91,294.75h1a1,1,0,0,1,.74.27,1.09,1.09,0,0,1,.24.77v2.13a1.11,1.11,0,0,1-.24.77,1,1,0,0,1-.74.26h-1Zm1,3.6a.33.33,0,0,0,.25-.09.52.52,0,0,0,.08-.31v-2.19a.5.5,0,0,0-.08-.31.34.34,0,0,0-.25-.1h-.34v3Z"/><path class="cls-20" d="M65.65,294.75h.66V299h-.66Z"/><path class="cls-20" d="M67.61,294.75h.89l.69,4.2h-.66l-.12-.83h-.75l-.12.82h-.61Zm.72,2.81L68,295.49h0l-.28,2.07Z"/><path class="cls-20" d="M69.81,294.75h.94l.42,3h0l.42-3h.94V299h-.62v-3.18h0L71.43,299h-.56l-.48-3.18h0V299h-.57Z"/><path class="cls-20" d="M74.59,294.75h.83l.64,2.52h0v-2.52h.58V299H76l-.8-3.06h0V299h-.59Z"/><path class="cls-20" d="M77.67,298.74a1.08,1.08,0,0,1-.26-.78v-2.21a1.05,1.05,0,0,1,.26-.78,1.12,1.12,0,0,1,1.48,0,1.1,1.1,0,0,1,.26.78V298a1.13,1.13,0,0,1-.26.78,1.15,1.15,0,0,1-1.48,0Zm1.08-.74v-2.29c0-.28-.11-.42-.34-.42s-.34.14-.34.42V298c0,.28.11.41.34.41S78.75,298.28,78.75,298Z"/><path class="cls-20" d="M80.16,294.75H81l.65,2.52h0v-2.52h.59V299h-.68l-.79-3.06h0V299h-.58Z"/><path class="cls-20" d="M83.25,298.74A1.1,1.1,0,0,1,83,298v-3.21h.66V298a.46.46,0,0,0,.09.31.39.39,0,0,0,.5,0,.46.46,0,0,0,.09-.31v-3.26H85V298a1.09,1.09,0,0,1-.25.78A1,1,0,0,1,84,299,.94.94,0,0,1,83.25,298.74Z"/><path class="cls-20" d="M85.73,294.75h.94l.42,3h0l.42-3h1V299h-.63v-3.18h0L87.35,299H86.8l-.48-3.18h0V299h-.58Z"/><path class="cls-20" d="M89.26,294.75h.94l.42,3h0l.42-3H92V299h-.62v-3.18h0L90.88,299h-.55l-.48-3.18h0V299h-.57Z"/><path class="cls-20" d="M93.39,297.17l-.8-2.42h.7l.46,1.55h0l.45-1.55h.64l-.8,2.42V299h-.66Z"/><path class="cls-20" d="M96.71,294.75h.83l.64,2.52h0v-2.52h.59V299H98.1l-.79-3.06h0V299h-.59Z"/><path class="cls-20" d="M99.57,294.75h.66V299h-.66Z"/><path class="cls-20" d="M101,294.75h1a.85.85,0,0,1,1,1v.17a1.19,1.19,0,0,1-.11.53.65.65,0,0,1-.32.29h0c.33.11.49.41.49.88V298a.88.88,0,0,1-1,1h-1Zm.92,1.71a.4.4,0,0,0,.3-.1.51.51,0,0,0,.1-.34v-.23a.53.53,0,0,0-.08-.33.32.32,0,0,0-.26-.11h-.32v1.11Zm.12,1.89a.34.34,0,0,0,.26-.09.46.46,0,0,0,.08-.32v-.37a.55.55,0,0,0-.1-.39.38.38,0,0,0-.32-.12h-.3v1.29Z"/><path class="cls-20" d="M103.75,294.75h.66v1.71h.7v-1.71h.66V299h-.66v-1.89h-.7V299h-.66Z"/><path class="cls-20" d="M107.83,294.75h1.8v.6h-1.14v1.11h.9v.6h-.9v1.29h1.14v.6h-1.8Z"/><path class="cls-20" d="M110.53,298.74a1.09,1.09,0,0,1-.25-.78v-3.21h.66V298a.46.46,0,0,0,.09.31.33.33,0,0,0,.25.09.35.35,0,0,0,.25-.09.52.52,0,0,0,.08-.31v-3.26h.64V298a1.14,1.14,0,0,1-.25.78,1,1,0,0,1-.74.27A1,1,0,0,1,110.53,298.74Z"/><path class="cls-20" d="M113,294.75h.66V299H113Z"/><path class="cls-20" d="M114.6,298.74a1.14,1.14,0,0,1-.25-.78v-.24H115V298c0,.27.11.4.34.4a.36.36,0,0,0,.26-.09.57.57,0,0,0,.08-.33.88.88,0,0,0-.12-.46,2.24,2.24,0,0,0-.44-.48,2.83,2.83,0,0,1-.57-.65,1.34,1.34,0,0,1-.16-.66,1.08,1.08,0,0,1,.25-.77,1,1,0,0,1,.73-.28.92.92,0,0,1,.72.28,1.14,1.14,0,0,1,.24.78v.17h-.62v-.21a.47.47,0,0,0-.09-.32.31.31,0,0,0-.24-.1c-.22,0-.33.14-.33.41a.79.79,0,0,0,.12.42,2.31,2.31,0,0,0,.45.48,2.65,2.65,0,0,1,.57.66,1.47,1.47,0,0,1,.15.69,1.14,1.14,0,0,1-.25.79,1,1,0,0,1-.74.27A.94.94,0,0,1,114.6,298.74Z"/><path class="cls-20" d="M117,294.75h.94l.42,3h0l.42-3h.95V299h-.63v-3.18h0l-.48,3.18h-.55l-.48-3.18h0V299H117Z"/><path class="cls-20" d="M120.74,298.74a1.13,1.13,0,0,1-.26-.78v-2.21a1.1,1.1,0,0,1,.26-.78,1,1,0,0,1,.74-.28,1,1,0,0,1,.75.28,1.09,1.09,0,0,1,.25.78V298a1.13,1.13,0,0,1-.25.78,1,1,0,0,1-.75.27A1,1,0,0,1,120.74,298.74Zm1.08-.74v-2.29c0-.28-.11-.42-.34-.42s-.34.14-.34.42V298c0,.28.11.41.34.41S121.82,298.28,121.82,298Z"/><path class="cls-20" d="M123.23,294.75h1a.94.94,0,0,1,.73.27,1.05,1.05,0,0,1,.25.77v2.13a1.07,1.07,0,0,1-.25.77.93.93,0,0,1-.73.26h-1Zm1,3.6a.32.32,0,0,0,.25-.09.46.46,0,0,0,.09-.31v-2.19a.44.44,0,0,0-.09-.31.32.32,0,0,0-.25-.1h-.33v3Z"/><path class="cls-20" d="M127.74,295.35h-.69v-.6h2v.6h-.69V299h-.66Z"/><path class="cls-20" d="M129.71,294.75h.66V299h-.66Z"/><path class="cls-20" d="M131.16,294.75H132l.64,2.52h0v-2.52h.59V299h-.68l-.79-3.06h0V299h-.59Z"/><path class="cls-20" d="M134.23,298.74A1.06,1.06,0,0,1,134,298v-2.25a1.08,1.08,0,0,1,.25-.77,1.11,1.11,0,0,1,1.45,0,1.13,1.13,0,0,1,.24.77v.44h-.62v-.49q0-.39-.33-.39t-.33.39V298c0,.26.11.38.33.38s.33-.12.33-.38v-.64h.62V298a1.1,1.1,0,0,1-.24.76,1.11,1.11,0,0,1-1.45,0Z"/><path class="cls-20" d="M136.62,294.75h.66V299h-.66Z"/><path class="cls-20" d="M138.07,294.75h1a1,1,0,0,1,.74.27,1.09,1.09,0,0,1,.24.77v2.13a1.11,1.11,0,0,1-.24.77,1,1,0,0,1-.74.26h-1Zm1,3.6a.33.33,0,0,0,.25-.09.52.52,0,0,0,.08-.31v-2.19a.5.5,0,0,0-.08-.31.34.34,0,0,0-.25-.1h-.34v3Z"/><path class="cls-20" d="M141,298.74a1.1,1.1,0,0,1-.26-.78v-3.21h.66V298a.46.46,0,0,0,.09.31.39.39,0,0,0,.5,0,.46.46,0,0,0,.09-.31v-3.26h.63V298a1.09,1.09,0,0,1-.25.78,1,1,0,0,1-.73.27A.94.94,0,0,1,141,298.74Z"/><path class="cls-20" d="M143.52,294.75h.83l.64,2.52h0v-2.52h.59V299h-.68l-.79-3.06h0V299h-.59Z"/><path class="cls-20" d="M146.9,295.35h-.69v-.6h2v.6h-.69V299h-.66Z"/><path class="cls-20" d="M148.43,298.32h.63V299h-.63Z"/><circle class="cls-17" cx="74.96" cy="355.51" r="2.89"/><g class="cls-21"><circle class="cls-8" cx="95.97" cy="355.51" r="2.89"/></g><g class="cls-21"><circle class="cls-8" cx="116.98" cy="355.51" r="2.89"/></g></g></g></svg>